<?xml version="1.0" encoding="UTF-8" standalone="no"?>
<!-- Created with Inkscape (http://www.inkscape.org/) -->

<svg
   xmlns:dc="http://purl.org/dc/elements/1.1/"
   xmlns:cc="http://creativecommons.org/ns#"
   xmlns:rdf="http://www.w3.org/1999/02/22-rdf-syntax-ns#"
   xmlns:svg="http://www.w3.org/2000/svg"
   xmlns="http://www.w3.org/2000/svg"
   version="1.1"
   width="64"
   height="64"
   id="svg2985">
  <defs
     id="defs2987" />
  <metadata
     id="metadata2990">
    <rdf:RDF>
      <cc:Work
         rdf:about="">
        <dc:format>image/svg+xml</dc:format>
        <dc:type
           rdf:resource="http://purl.org/dc/dcmitype/StillImage" />
        <dc:title></dc:title>
      </cc:Work>
    </rdf:RDF>
  </metadata>
  <g
     id="layer2"
     style="display:inline">
    <path
       d="m 31.15625,5.34375 c -10.847243,0.393826 -17.923591,6.626913 -20.625,10.625 -1.4746317,2.182455 -3.0799638,6.235604 -3.5625,10.875 -0.4825362,4.639396 0.1749972,9.875888 3.375,14.21875 6.259057,8.494435 14.568541,10.523185 17.03125,10.875 2.35576,0.336539 5.34375,0.4375 5.34375,0.4375 a 0.81093051,0.81093051 0 0 0 0.03125,0 c 0.691055,-0.0128 1.878051,-0.194487 3.46875,-0.5625 1.590699,-0.368013 3.549507,-0.913042 5.59375,-1.71875 4.088486,-1.611417 8.580459,-4.190333 11.15625,-8.1875 4.991124,-7.745327 5.613965,-16.552972 2.59375,-21.875 C 52.685854,14.96221 45.562183,5.807504 33.40625,5.34375 c -0.757826,-0.028911 -1.527949,-0.026207 -2.25,0 z M 30.4375,9.375 c 3.035688,-0.092821 6.244261,0.396275 9.8125,1.4375 3.919287,1.14366 6.858312,3.870128 8.90625,6.625 2.047938,2.754872 3.198939,5.605292 3.40625,6.5 0.512775,2.213027 1.799175,8.001859 -2.6875,14.71875 -2.233263,3.343363 -5.258562,5.678516 -7.9375,7.125 -1.339469,0.723242 -2.606787,1.210177 -3.59375,1.5 -0.986963,0.289823 -1.770369,0.329341 -1.84375,0.3125 -0.01958,-0.0045 -0.139251,-0.07797 -0.28125,-0.53125 -0.141999,-0.453277 -0.243452,-1.157332 -0.25,-1.96875 -0.0131,-1.622835 0.254554,-3.650802 0.59375,-5.125 0.665115,-2.89069 1.802341,-3.642187 2.625,-3.9375 0.253994,-0.09118 1.596052,-0.26191 2.90625,-0.375 1.310198,-0.11309 2.671368,-0.190199 3.53125,-0.34375 1.844662,-0.329404 4.165612,-1.788239 5.53125,-4.125 0.658899,-1.127446 1.028888,-2.170518 1.125,-3.09375 0.09611,-0.923232 -0.04657,-1.779733 -0.6875,-2.34375 -0.420006,-0.369605 -0.928843,-0.421216 -1.375,-0.375 -0.446157,0.04622 -0.937727,0.167726 -1.5,0.3125 -1.124546,0.289548 -2.60988,0.699857 -4.65625,0.9375 -2.042709,0.237218 -3.468306,0.161496 -4.375,-0.0625 -0.906694,-0.223996 -1.248174,-0.569468 -1.34375,-0.75 -0.0073,-0.01376 -0.01116,0.01667 0.03125,-0.125 0.04241,-0.141667 0.13973,-0.390196 0.3125,-0.6875 0.34554,-0.594608 0.908189,-1.391602 1.09375,-2.4375 0.139198,-0.784572 -0.213143,-1.482289 -0.625,-2.125 -0.411857,-0.642711 -0.972892,-1.259547 -1.5625,-1.84375 -0.589608,-0.584203 -1.194983,-1.11066 -1.75,-1.53125 -0.555017,-0.42059 -0.963081,-0.708312 -1.4375,-0.875 -0.704665,-0.247585 -1.818727,-0.386035 -3.40625,-0.25 -1.587523,0.136035 -3.611985,0.563059 -6.03125,1.5 -2.55752,0.990486 -4.468272,2.916268 -5.59375,5.0625 -1.125478,2.146232 -1.526429,4.515465 -0.84375,6.5 0.65921,1.916304 2.351299,4.426872 4.09375,6.8125 1.742451,2.385628 3.558888,4.611584 4.34375,5.6875 1.494874,2.049219 1.964155,4.648424 2.03125,5.21875 0.01657,0.140887 -0.01059,0.646145 -0.125,1.0625 -0.0572,0.208178 -0.124883,0.404021 -0.1875,0.53125 -0.01879,0.03817 -0.01469,0.0083 -0.03125,0.03125 -0.16736,0.04106 -0.437835,0.125 -0.625,0.125 0.141798,0 0.02816,8.55e-4 -0.09375,-0.03125 -0.121912,-0.03211 -0.296607,-0.09174 -0.5,-0.15625 -0.406786,-0.129018 -0.938266,-0.307487 -1.5,-0.5 -1.123467,-0.385027 -2.3664,-0.802537 -3.15625,-1 -0.04176,-0.01044 -0.89747,-0.413218 -1.875,-1.09375 -0.97753,-0.680532 -2.192624,-1.638415 -3.4375,-2.84375 -2.489751,-2.410671 -5.084088,-5.769877 -6.25,-9.65625 -2.327619,-7.758733 1.571116,-16.822681 8,-20.5 C 22.946302,10.555338 26.5316,9.4944194 30.4375,9.375 z"
       id="path3774"
       style="opacity:0.1;fill:#000000;fill-opacity:1;stroke:none;display:inline" />
    <path
       d="M 31.15625,5.71875 C 20.442546,6.1077277 13.446237,12.289568 10.8125,16.1875 9.3890146,18.294258 7.819973,22.296303 7.34375,26.875 c -0.476223,4.578697 0.1499706,9.750406 3.28125,14 6.184242,8.3929 14.429197,10.347028 16.8125,10.6875 C 29.761376,51.894484 32.71875,52 32.71875,52 A 0.45059037,0.45059037 0 0 0 32.75,52 c 0.628647,-0.01165 1.831364,-0.166895 3.40625,-0.53125 1.574886,-0.364355 3.506485,-0.920718 5.53125,-1.71875 4.049531,-1.596063 8.459182,-4.136849 10.96875,-8.03125 4.929979,-7.650441 5.516391,-16.34991 2.59375,-21.5 -2.842868,-5.009519 -9.863786,-14.0429593 -21.84375,-14.5 -0.747681,-0.028524 -1.536364,-0.025902 -2.25,0 z M 30.40625,9 c 3.082038,-0.094238 6.342598,0.4197448 9.9375,1.46875 4.020278,1.17313 7.046138,3.953529 9.125,6.75 2.078862,2.796471 3.207527,5.632487 3.4375,6.625 0.514484,2.220403 1.840317,8.174733 -2.71875,15 -2.273935,3.404253 -5.372583,5.780715 -8.09375,7.25 -1.360584,0.734643 -2.609832,1.233145 -3.625,1.53125 -1.015168,0.298105 -1.837472,0.364145 -2.0625,0.3125 -0.195131,-0.04478 -0.371128,-0.270123 -0.53125,-0.78125 -0.160122,-0.511127 -0.243284,-1.230208 -0.25,-2.0625 -0.01343,-1.664583 0.248208,-3.716972 0.59375,-5.21875 0.683707,-2.971494 1.915435,-3.823009 2.84375,-4.15625 0.376735,-0.135238 1.686452,-0.292871 3,-0.40625 1.313548,-0.113379 2.683907,-0.229269 3.5,-0.375 1.701584,-0.303855 3.978739,-1.708756 5.28125,-3.9375 0.637966,-1.091627 1.004593,-2.081072 1.09375,-2.9375 0.08916,-0.856428 -0.05534,-1.616202 -0.5625,-2.0625 -0.308888,-0.271822 -0.721542,-0.291793 -1.125,-0.25 -0.403458,0.04179 -0.877398,0.137035 -1.4375,0.28125 -1.120204,0.288431 -2.64532,0.727965 -4.71875,0.96875 -2.071397,0.24055 -3.531931,0.145409 -4.5,-0.09375 -0.968069,-0.239159 -1.400654,-0.631789 -1.5625,-0.9375 -0.05842,-0.110343 -0.05897,-0.209281 0,-0.40625 0.05897,-0.196969 0.199078,-0.447271 0.375,-0.75 0.351845,-0.605458 0.830441,-1.356801 1,-2.3125 0.110571,-0.623219 -0.173026,-1.235969 -0.5625,-1.84375 -0.389474,-0.607781 -0.922978,-1.240768 -1.5,-1.8125 -0.577022,-0.571732 -1.177237,-1.089643 -1.71875,-1.5 -0.541513,-0.410357 -0.96838,-0.711863 -1.34375,-0.84375 -0.615065,-0.216104 -1.699147,-0.320393 -3.25,-0.1875 -1.550853,0.132893 -3.548131,0.543388 -5.9375,1.46875 -2.466189,0.955115 -4.317631,2.799056 -5.40625,4.875 -1.088619,2.075944 -1.451595,4.392161 -0.8125,6.25 0.626056,1.819926 2.32645,4.310635 4.0625,6.6875 1.73605,2.376865 3.513928,4.592789 4.3125,5.6875 1.555556,2.132404 2.051473,4.781253 2.125,5.40625 0.02733,0.232332 -0.03247,0.737029 -0.15625,1.1875 -0.06189,0.225235 -0.142122,0.438052 -0.21875,0.59375 -0.06544,0.132956 -0.110122,0.200203 -0.125,0.21875 -0.100317,0.02759 -0.538261,0.15625 -0.84375,0.15625 0.05311,0 -0.0556,-0.02777 -0.1875,-0.0625 -0.131896,-0.03473 -0.324705,-0.09074 -0.53125,-0.15625 -0.41309,-0.131018 -0.937958,-0.307381 -1.5,-0.5 -1.124085,-0.385238 -2.371985,-0.811746 -3.125,-1 -0.180273,-0.04507 -1.005935,-0.464206 -2,-1.15625 -0.994065,-0.692044 -2.20906,-1.655321 -3.46875,-2.875 C 14.69937,40.654392 12.066535,37.253034 10.875,33.28125 8.4942668,25.34547 12.438506,16.146047 19.03125,12.375 22.801514,10.218406 26.442032,9.1212024 30.40625,9 z"
       id="path3776"
       style="opacity:0.15;fill:#000000;fill-opacity:1;stroke:none;display:inline" />
    <path
       d="M 31.1875,5.96875 C 20.567602,6.3543219 13.617449,12.484924 11.03125,16.3125 c -1.387557,2.053584 -2.9657118,6.057692 -3.4375,10.59375 -0.4717882,4.536058 0.1669963,9.628423 3.25,13.8125 6.131687,8.321575 14.297476,10.261247 16.625,10.59375 2.301478,0.328784 5.28125,0.4375 5.28125,0.4375 0.584808,-0.01083 1.779972,-0.169465 3.34375,-0.53125 1.563778,-0.361785 3.488917,-0.926111 5.5,-1.71875 4.022166,-1.585278 8.380702,-4.115289 10.84375,-7.9375 C 57.324526,33.978714 57.854099,25.373059 55,20.34375 52.18086,15.376043 45.231352,6.4210748 33.375,5.96875 c -0.740555,-0.028252 -1.479775,-0.025687 -2.1875,0 z M 30.40625,8.75 c 3.114597,-0.095233 6.386369,0.4142795 10,1.46875 4.09122,1.193831 7.149415,4.049307 9.25,6.875 2.100585,2.825693 3.254108,5.626283 3.5,6.6875 0.515684,2.225585 1.85992,8.286102 -2.75,15.1875 -2.302507,3.447026 -5.436668,5.858448 -8.1875,7.34375 -1.375416,0.742651 -2.65252,1.258577 -3.6875,1.5625 -1.03498,0.303923 -1.855945,0.388594 -2.1875,0.3125 -0.318453,-0.07309 -0.545898,-0.385735 -0.71875,-0.9375 -0.172852,-0.551765 -0.274415,-1.309295 -0.28125,-2.15625 -0.01367,-1.69391 0.275001,-3.760097 0.625,-5.28125 0.696768,-3.028256 1.997466,-3.983866 3,-4.34375 0.462956,-0.166189 1.746599,-0.323918 3.0625,-0.4375 1.315901,-0.113582 2.683417,-0.203511 3.46875,-0.34375 1.601077,-0.285907 3.866833,-1.659634 5.125,-3.8125 0.623261,-1.066466 0.978228,-2.03425 1.0625,-2.84375 0.08427,-0.8095 -0.08681,-1.480145 -0.5,-1.84375 C 50.956668,25.984367 50.654713,25.961314 50.28125,26 c -0.373463,0.03869 -0.847673,0.137427 -1.40625,0.28125 -1.117154,0.287645 -2.657561,0.725757 -4.75,0.96875 -2.091549,0.24289 -3.582567,0.15606 -4.59375,-0.09375 -1.011183,-0.24981 -1.510351,-0.668856 -1.71875,-1.0625 -0.09434,-0.178191 -0.101845,-0.357933 -0.03125,-0.59375 0.07059,-0.235817 0.228113,-0.50596 0.40625,-0.8125 0.356274,-0.61308 0.810433,-1.357663 0.96875,-2.25 0.09046,-0.509874 -0.12625,-1.073006 -0.5,-1.65625 -0.37375,-0.583244 -0.900569,-1.187028 -1.46875,-1.75 -0.568181,-0.562972 -1.186723,-1.096832 -1.71875,-1.5 -0.532027,-0.403168 -0.975459,-0.673809 -1.28125,-0.78125 -0.552125,-0.19399 -1.599907,-0.318186 -3.125,-0.1875 -1.525093,0.130686 -3.506632,0.520271 -5.875,1.4375 -2.402033,0.930269 -4.218523,2.754682 -5.28125,4.78125 -1.062727,2.026568 -1.38973,4.26241 -0.78125,6.03125 0.602766,1.752224 2.268446,4.254291 4,6.625 1.731554,2.370709 3.535547,4.610837 4.34375,5.71875 1.598183,2.190838 2.078205,4.836599 2.15625,5.5 0.03488,0.296569 -0.02589,0.838064 -0.15625,1.3125 -0.06518,0.237218 -0.16353,0.449304 -0.25,0.625 -0.08133,0.165249 -0.191989,0.266312 -0.25,0.3125 -0.0037,0.0029 0.0034,0.02892 0,0.03125 -0.09686,0.02805 -0.567966,0.15625 -0.9375,0.15625 -0.0092,0 -0.111091,-0.02592 -0.25,-0.0625 -0.138909,-0.03658 -0.322491,-0.09004 -0.53125,-0.15625 -0.417517,-0.132422 -0.968991,-0.307307 -1.53125,-0.5 -1.124518,-0.385387 -2.335361,-0.818215 -3.0625,-1 C 22.378677,47.305607 21.568181,46.88763 20.5625,46.1875 19.556819,45.48737 18.301347,44.511005 17.03125,43.28125 14.491057,40.821739 11.834534,37.375532 10.625,33.34375 8.2069559,25.2836 12.1984,15.961888 18.90625,12.125 c 3.800268,-2.1737557 7.494815,-3.2525451 11.5,-3.375 z"
       id="path3778"
       style="opacity:0.3;fill:#000000;fill-opacity:1;stroke:none;display:inline" />
  </g>
  <g
     id="layer1"
     style="display:inline">
    <path
       d="M 31.167848,6.229038 C 20.621129,6.6119535 13.704436,12.740195 11.155321,16.512887 8.4362618,20.537093 4.8795747,32.383595 10.970263,40.649529 c 6.090689,8.265935 14.212449,10.221927 16.496459,10.548214 2.284006,0.326288 5.260887,0.422987 5.260887,0.422987 2.202437,-0.0408 14.656715,-2.540566 19.510231,-10.072356 4.853519,-7.531789 5.364983,-16.108467 2.564354,-21.043555 -2.80063,-4.93509 -9.706619,-13.8271347 -21.466541,-14.275781 -0.734996,-0.028035 -1.464691,-0.025521 -2.167805,0 z M 30.37475,8.634772 c 3.139997,-0.096008 6.444113,0.3952811 10.072355,1.454015 8.293125,2.41996 12.358017,11.490983 12.874638,13.720609 0.516621,2.229627 1.873744,8.398895 -2.775846,15.359682 -4.64959,6.960787 -12.590718,9.659923 -14.249344,9.279257 -1.658624,-0.380668 -1.262123,-5.51937 -0.555169,-8.591904 0.706956,-3.072536 2.085526,-4.139997 3.145959,-4.520665 1.060434,-0.380669 5.033612,-0.494755 6.556285,-0.766662 1.522671,-0.271906 3.772947,-1.63389 4.996521,-3.727564 1.223579,-2.093674 1.287809,-3.816725 0.608043,-4.414917 -0.679763,-0.598192 -2.711858,0.59447 -6.926394,1.0839 -4.214541,0.489432 -6.040419,-0.318039 -6.529849,-1.242521 -0.48943,-0.924478 1.049173,-2.094622 1.348268,-3.780439 0.299096,-1.685812 -3.831852,-5.118901 -4.837904,-5.47238 -1.00605,-0.353477 -4.178738,-0.579247 -8.882707,1.242521 -4.703968,1.821771 -7.117435,7.149394 -5.948242,10.548217 1.169196,3.39882 6.696105,10.056606 8.327538,12.293031 1.631436,2.236423 2.112673,4.911204 2.194242,5.604564 0.08156,0.69336 -0.278741,2.159511 -0.71379,2.458606 0,0 -0.621663,0.185057 -1.083903,0.185057 -0.462238,0 -4.005599,-1.364903 -5.419506,-1.71838 C 21.162034,47.275322 12.862245,41.642375 10.415094,33.485202 7.9679431,25.328031 11.971426,15.933347 18.76907,12.045097 22.592744,9.8579534 26.337607,8.7582044 30.37475,8.634772 z m 5.445946,16.417146 -3.093087,1.216084 c 0,0 0.949481,-0.652622 1.506887,-0.951719 0.557408,-0.299096 1.5862,-0.264365 1.5862,-0.264365 z"
       id="path3060"
       style="fill:#f87338;fill-opacity:1;stroke:none" />
  </g>
</svg>
