<?xml version="1.0" encoding="UTF-8" standalone="no"?>
<!DOCTYPE svg PUBLIC "-//W3C//DTD SVG 1.1//EN" "http://www.w3.org/Graphics/SVG/1.1/DTD/svg11.dtd">
<svg width="100%" height="100%" viewBox="0 0 1280 1280" version="1.1" xmlns="http://www.w3.org/2000/svg" xmlns:xlink="http://www.w3.org/1999/xlink" xml:space="preserve" xmlns:serif="http://www.serif.com/" style="fill-rule:evenodd;clip-rule:evenodd;stroke-linejoin:round;stroke-miterlimit:1.41421;">
    <g transform="matrix(0.825994,0.100054,-0.0943084,0.77856,171.721,77.6869)">
        <path d="M640,47.035C980.414,47.035 1256.79,312.734 1256.79,640C1256.79,967.266 980.414,1232.96 640,1232.96C299.586,1232.96 23.213,967.266 23.213,640C23.213,312.734 299.586,47.035 640,47.035ZM712.753,1105.95C715.852,1120.51 724.339,1133.13 736.304,1140.98C748.268,1148.83 762.705,1151.25 776.367,1147.69C987.143,1093.2 1200.05,890.296 1193.23,640C1185.23,346.569 945.334,108.142 640,108.142C334.666,108.142 86.774,346.46 86.774,640C86.774,881.643 254.761,1085.86 484.492,1150.52C497.987,1154.31 512.348,1152.19 524.364,1144.66C536.38,1137.12 545.048,1124.79 548.429,1110.42C549.874,1104.46 550.579,1098.27 550.312,1092C546.677,1006.43 533.911,953.757 494.235,905.343C448.944,850.076 301.443,766.893 278.892,635.083C260.32,526.538 322.945,388.351 441.642,340.775C560.34,293.2 635.092,317.917 673.613,336.783C702.053,350.712 785.534,415.494 782.368,468.798C779.719,513.387 729.719,541.818 742.069,565.961C754.419,590.104 800.492,611.191 906.84,598.409C1013.19,585.628 1064.46,554.481 1081.62,570.103C1098.77,585.725 1097.15,630.723 1066.27,685.399C1035.4,740.075 978.616,775.643 940.194,782.744C901.772,789.845 801.885,791.22 775.126,801.161C748.368,811.102 713.212,840.584 695.373,920.823C685.881,963.518 700.922,1050.06 712.753,1105.95ZM679.116,518.053C681.199,518.436 682.78,520.147 682.996,522.254C683.212,524.361 682.012,526.358 680.051,527.156C664.381,533.538 639.103,543.824 625.352,549.419C623.554,550.151 621.492,549.721 620.136,548.332C618.781,546.942 618.402,544.87 619.178,543.09C622.859,534.91 629.914,524.052 642.599,519.283C654.047,514.979 668.498,516.15 679.116,518.053Z"/>
    </g>
</svg>
