<?xml version="1.0" encoding="UTF-8" standalone="no"?>
<!-- Created with Inkscape (http://www.inkscape.org/) -->

<svg
   xmlns:dc="http://purl.org/dc/elements/1.1/"
   xmlns:cc="http://creativecommons.org/ns#"
   xmlns:rdf="http://www.w3.org/1999/02/22-rdf-syntax-ns#"
   xmlns:svg="http://www.w3.org/2000/svg"
   xmlns="http://www.w3.org/2000/svg"
   xmlns:sodipodi="http://sodipodi.sourceforge.net/DTD/sodipodi-0.dtd"
   xmlns:inkscape="http://www.inkscape.org/namespaces/inkscape"
   id="logo"
   version="1.1"
   inkscape:version="0.48.4 r9939"
   width="400"
   height="300"
   xml:space="preserve"
   sodipodi:docname="markosweb2.svg"><metadata
     id="metadata8"><rdf:RDF><cc:Work
         rdf:about=""><dc:format>image/svg+xml</dc:format><dc:type
           rdf:resource="http://purl.org/dc/dcmitype/StillImage" /><dc:title /></cc:Work></rdf:RDF></metadata><defs
     id="defs6" /><sodipodi:namedview
     pagecolor="#ffffff"
     bordercolor="#666666"
     borderopacity="1"
     objecttolerance="10"
     gridtolerance="10"
     guidetolerance="10"
     inkscape:pageopacity="0"
     inkscape:pageshadow="2"
     inkscape:window-width="1280"
     inkscape:window-height="969"
     id="namedview4"
     showgrid="false"
     inkscape:zoom="2.807435"
     inkscape:cx="98.410022"
     inkscape:cy="156.1617"
     inkscape:window-x="0"
     inkscape:window-y="30"
     inkscape:window-maximized="1"
     inkscape:current-layer="g10"
     showguides="true"
     inkscape:guide-bbox="true"><sodipodi:guide
       orientation="1,0"
       position="18.166048,104.00953"
       id="guide3765" /><sodipodi:guide
       orientation="1,0"
       position="383.34513,151.37347"
       id="guide3767" /></sodipodi:namedview><g
     id="g10"
     inkscape:groupmode="layer"
     inkscape:label="ink_ext_XXXXXX"
     transform="matrix(1.25,0,0,-1.25,0,300)"><g
       id="g12"
       transform="matrix(0.03560886,0,0,0.03560886,14.898243,38.437187)"
       style="fill:none;stroke:#000000;stroke-width:32;stroke-miterlimit:4;stroke-opacity:1;stroke-dasharray:none;fill-opacity:1"><path
         d="m 3557.5,2143.8 c -24.22,-5.23 -54.96,-4.41 -80,-4.18 -92.15,1.13 -156.72,56.48 -209.92,128.01 -134.06,180.31 -134.38,449.53 -134.06,663.98 l 7.26,96.02 c 12.81,183.04 48.32,340.62 179.02,479.26 136.92,145.23 460,240.27 591.61,40.74 52.65,-79.85 61.95,-186.88 62.11,-280 l 8,-136.02 c 0.24,-143.36 -3.28,-274.37 29.18,-415.97 10.47,-45.55 32.31,-124.18 82.82,-139.93 49.76,-15.47 98.32,63.99 117.42,99.93 55.78,104.68 85.86,296.56 97.19,415.97 3.12,32.42 5.23,84.03 -12.54,111.84 -25.28,39.76 -71.68,52.97 -105.75,82.81 -45.31,39.61 -55.62,83.59 -56.32,141.37 -0.75,65.51 5.11,124.22 34.96,183.98 65.27,130.51 220.7,227.38 365.04,163.79 111.6,-49.14 153.59,-160 255.97,-216.99 52.97,-29.42 139.46,-48.95 200,-50.7 40.9,-1.14 120.16,-1.68 147.93,-33.91 33.83,-39.3 28.17,-124.65 28.09,-174.18 -0.31,-206.41 -110.31,-316.88 -119.3,-471.99 -2.54,-44.57 19.53,-145.2 79.3,-139.53 36.72,3.51 94.65,65.04 119.26,91.52 118.16,126.95 194.02,281.76 239.53,448.01 55.62,203.12 83.28,414.41 97.93,623.98 l 7.26,96.02 0,255.97 -23.98,344.03 0,128.01 c 0.31,224.72 136.4,449.41 311.99,582.93 75.51,57.46 148.98,108.67 248.01,104.72 140.39,-5.51 274.8,-111.91 327.26,-239.69 37.15,-90.46 41.84,-199.18 40.75,-295.97 -0.82,-67.03 -17.31,-187.93 -28.72,-256.02 -58.24,-346.4 -181.87,-573.59 -419.29,-831.99 38.87,6.09 76.09,5.66 111.68,-14.06 80.7,-44.96 127.26,-194.18 128.32,-281.96 l 0,-63.98 c -0.24,-165.35 -95.67,-414.57 -288.01,-423.98 83.13,-129.07 70.31,-315.32 71.99,-464.03 l 7.7,-80 0,-95.97 7.77,-80 c 13.99,-151.68 47.89,-242.66 184.53,-327.54 35.71,-22.07 79.22,-40.94 120,-51.21 34.81,-8.72 76.49,-10.16 95.86,-45.75 28.95,-53.28 -21.68,-153.12 -49.53,-199.53 -89.1,-148.94 -238.24,-247.19 -414.3,-248.01 l -64.02,0 c -48.09,0.08 -65.35,1.22 -111.99,16.25 -206.1,66.25 -271.68,335.28 -271.99,527.78 l 0,103.98 15.35,184.03 20,191.99 c 9.92,74.14 29.37,211.13 12.65,280 L 5492.15,2499.7 c -42.66,-46.17 -179.85,-143.83 -238.63,-169.1 -88.25,-37.86 -146.49,-40 -240,-38.99 -100.16,1.21 -213.87,33.52 -285.63,106.33 -78.79,79.92 -121.09,255.35 -122.38,365.66 -0.39,33.95 -1.84,79.69 5.43,112.04 l 50.58,151.99 -96.01,55.97 -16.02,-207.96 c -0.15,-93.21 1.76,-207.54 -29.57,-296.02 -72.58,-205.12 -260.43,-328.32 -474.41,-328.01 -121.37,0.16 -146.25,30.98 -240,96.02 -38.4,-90.08 -151.6,-183.28 -248.01,-203.83 z m 2536.02,2523.83 c -0.43,27.77 -4.65,80.62 -41.45,84.49 -42.97,4.45 -68.4,-59.69 -77.27,-92.5 -15.31,-56.41 -9.37,-183.91 -9.29,-248.01 0.08,-35.97 -2.66,-55.82 16.01,-88.01 89.03,142.35 114.3,169.69 112,344.03 z m -4650.16,-1880 68.4,-511.99 37.73,-352.04 0,-111.99 c -0.31,-194.37 -73.59,-411.37 -174.45,-575.97 -47.93,-78.25 -107.15,-158.99 -177.54,-218.01 C 1115.66,949.148 1032.62,897.781 933.52,858.02 816.801,811.219 675.898,773.141 549.488,771.609 427.34,770.238 269.801,798.762 173.52,878.25 63.9102,968.641 26.7188,1083.6 12.2305,1219.62 c -3.75003,34.96 -7.39066,41.29 -6.57034,80 l 7.26954,71.99 c 7.8516,84.65 27.3789,173.13 83.1992,240 67.0311,80.24 160.9801,115.86 261.3711,130.16 43.199,6.17 89.219,10.23 127.699,-15.9 66.871,-45.63 35.821,-143.28 144.289,-144.8 139.692,-1.92 237.543,87.69 297.934,206.56 66.719,131.21 94.878,270.31 109.768,415.97 l 0,80 8.32,80 0,112.04 8.01,127.96 0,624.03 -8.01,103.98 -5.43,160 5.43,64.03 0,80 c 0.15,100.31 25.19,246.21 70.08,335.97 23.43,46.88 50.31,90.74 97.93,116.72 34.45,18.75 65.82,20.08 103.98,19.22 55.27,-1.37 99.22,-22.73 143.98,-53.67 193.72,-134.1 178.09,-386.1 210.2,-594.26 8.48,-54.88 28.12,-134.41 52.15,-183.98 9.1,-18.99 27.65,-60.36 55.19,-47.62 16.1,7.54 32.39,39.84 39.93,55.58 28.16,59.14 40.97,112.5 53.75,176.02 45.19,224.65 28.78,447.34 131.05,663.98 55.9,118.52 161.13,269.46 281.76,327 126.79,60.39 237.42,4.88 231.68,-142.97 -3.44,-87.85 -80.31,-281.68 -106.64,-384.03 -47.54,-184.96 -73.6,-338.04 -92.74,-527.96 l 0,-80 -8.32,-128.01 7.31,-96.02 c 16.72,-244.37 56.36,-454.88 288.71,-588.55 54.41,-31.37 120.62,-61.21 183.98,-65.98 52.89,-4.02 117.23,23.16 160,52.7 23.79,16.48 62.74,51.91 88.01,59.92 39.45,12.42 62.73,-16.88 75.51,-50.08 5.86,-15.2 10.9,-39.61 14.1,-56.02 6.72,-35.03 6.33,-45.03 6.41,-80 0.15,-114.84 1.09,-177.65 -43.6,-287.96 -82.26,-203.05 -272.81,-338.56 -492.42,-336.02 -87.85,1.05 -175.2,31.84 -248.01,80 -226.13,149.84 -304.53,434.88 -345.97,688.01 -9.93,60.7 -21.92,155.51 -22.04,215.97 -0.07,60.2 6.65,188.32 -7.96,240 -76.49,-144.96 -285.79,-232.69 -424.03,-117.34 -90.39,75.43 -113.36,174.18 -151.99,277.34 z m 6125.9,951.99 c 5.27,-22.23 4.49,-56.56 4.26,-80 -1.53,-126.33 -65.36,-196.02 -184.03,-230.86 -34.14,-10 -51.76,-16.17 -87.97,-16.48 l -40,0 c -41.05,6.87 -63.04,39.1 -50.43,79.33 l 106.96,191.99 c 26.99,68.75 5.23,139.3 87.46,171.37 74.06,10 146.48,-42.85 163.75,-115.35 z m -667.74,-106.64 c 163.01,-76.95 249.11,-348.01 255.67,-517.34 1.36,-35.12 -2.58,-47.31 -6.49,-80 -22.89,-191.68 -113.12,-359.93 -249.18,-496.02 -95.47,-95.43 -190,-153.52 -328,-151.99 -242,2.81 -327.7,287.93 -328.01,488.01 -0.08,71.32 -1.21,137.18 11.68,207.96 27.85,153.29 131.76,385.16 252.3,484.26 62.5,51.37 121.68,73.6 200,88.24 65.31,8.4 131.6,5.43 192.03,-23.12 z m 1244.96,-285.35 c 59.57,-74.81 70.71,-213.52 -13.28,-275.94 -75.78,-56.21 -114.65,26.17 -231.68,56.09 -24.96,6.41 -85.23,18.4 -91.05,-21.05 -3.83,-25.74 48.87,-67.97 67.03,-83.75 64.96,-56.33 110.16,-104.81 139.61,-187.34 21.21,-59.22 21.13,-98.75 20.39,-160 -3.12,-261.61 -297.27,-432.97 -535.98,-423.72 -150.58,5.86 -269.84,61.88 -331.05,207.7 -19.3,45.86 -28.32,78.09 -28.95,128.01 -1.13,96.79 10.63,180.94 81.41,255.27 34.88,36.49 91.13,63.91 141.87,42.81 54.3,-22.65 51.1,-116.09 113.52,-176.64 38.48,-37.3 91.52,-67.54 142.85,-37.22 11.29,6.72 24.57,16.99 30.08,29.22 12.42,27.77 -15.35,58.78 -32.15,78.55 -48.55,57.11 -92.54,89.92 -131.13,160 -86.52,157.27 -47.27,382.73 101.52,489.69 67.23,48.32 115.31,47.85 192.03,58.94 136.8,16.64 277.97,-31.44 364.96,-140.62 z m -2274.72,-31.84 c 0.08,-29.45 16.79,-46.17 46.56,-31.83 47.58,23.9 78.48,144.14 0,138.39 -30.9,-20.66 -46.72,-68.98 -46.56,-106.56 z m 725.9,-320.15 c 0.82,-43.44 11.68,-114.73 71.83,-104.11 75.94,13.36 136.17,153.68 129.69,224.11 -4.49,49.25 -27.5,97.65 -81.68,100 -90.31,-25.2 -121.52,-135.63 -119.84,-220 z M 3461.52,2827.63 c 0.08,-51.37 14.22,-179.46 95.82,-152.58 40.16,13.2 55.75,58.83 62.97,96.56 16.14,108.63 6.25,144.96 0,248.01 -1.29,51.52 -4.26,111.6 -70.82,99.22 -87.03,-46.64 -88.16,-203.36 -87.97,-291.21 z"
         style="fill:none;stroke:#ffffff;stroke-width:32;stroke-miterlimit:4;stroke-opacity:1;stroke-dasharray:none"
         id="path14"
         inkscape:connector-curvature="0"
         sodipodi:nodetypes="cccccccccccccccccccccccccccccccccccccccccccccccccccccccccccccccccccccccccccccccccccccccccccccccccccccccccccccccccccccccccccccccscccccccccccccccccccccccccccccccccccccccccccccccccccccccccccccc" /></g><text
       xml:space="preserve"
       style="font-size:33.96220016000000186px;font-style:normal;font-variant:normal;font-stretch:normal;text-align:center;line-height:129.99999522999999613%;letter-spacing:0px;word-spacing:0px;writing-mode:lr-tb;text-anchor:middle;fill:none;fill-opacity:1;stroke:#ffffff;font-family:Roboto;-inkscape-font-specification:Roboto Semi-Light;stroke-opacity:1"
       x="162.91934"
       y="-20.108015"
       id="text2996"
       sodipodi:linespacing="130%"
       transform="scale(1,-1)"><tspan
         sodipodi:role="line"
         id="tspan2998"
         x="162.91934"
         y="-20.108015"
         style="font-size:33.96220016000000186px;font-style:normal;font-variant:normal;font-weight:bold;font-stretch:normal;text-align:center;line-height:129.99999522999999613%;writing-mode:lr-tb;text-anchor:middle;fill:none;font-family:League Spartan;-inkscape-font-specification:League Spartan Bold;stroke:#ffffff;stroke-opacity:1">WEBSITE</tspan></text>
</g></svg>