<?xml version="1.0" encoding="UTF-8" standalone="no"?>
<!-- Created with Inkscape (http://www.inkscape.org/) -->

<svg
   xmlns:dc="http://purl.org/dc/elements/1.1/"
   xmlns:cc="http://creativecommons.org/ns#"
   xmlns:rdf="http://www.w3.org/1999/02/22-rdf-syntax-ns#"
   xmlns:svg="http://www.w3.org/2000/svg"
   xmlns="http://www.w3.org/2000/svg"
   xmlns:sodipodi="http://sodipodi.sourceforge.net/DTD/sodipodi-0.dtd"
   xmlns:inkscape="http://www.inkscape.org/namespaces/inkscape"
   width="1578.54"
   height="1052.3622"
   id="svg2"
   version="1.1"
   inkscape:version="0.48.4 r9939"
   sodipodi:docname="aleetflo-small.svg">
  <defs
     id="defs4" />
  <sodipodi:namedview
     id="base"
     pagecolor="#ffffff"
     bordercolor="#666666"
     borderopacity="1.0"
     inkscape:pageopacity="0.0"
     inkscape:pageshadow="2"
     inkscape:zoom="0.7"
     inkscape:cx="459.55392"
     inkscape:cy="705.87406"
     inkscape:document-units="px"
     inkscape:current-layer="layer1"
     showgrid="false"
     width="1052.36px"
     showguides="true"
     inkscape:guide-bbox="true"
     inkscape:window-width="1280"
     inkscape:window-height="969"
     inkscape:window-x="0"
     inkscape:window-y="30"
     inkscape:window-maximized="1">
    <sodipodi:guide
       position="0,0"
       orientation="0,1578.54"
       id="guide2985" />
    <sodipodi:guide
       position="1578.54,0"
       orientation="-1052.3622,0"
       id="guide2987" />
    <sodipodi:guide
       position="1578.54,1052.3622"
       orientation="0,-1578.54"
       id="guide2989" />
    <sodipodi:guide
       position="0,1052.3622"
       orientation="1052.3622,0"
       id="guide2991" />
    <sodipodi:guide
       orientation="0,1"
       position="39.464286,525.89286"
       id="guide3775" />
    <sodipodi:guide
       orientation="1,0"
       position="789.28572,993.21429"
       id="guide3796" />
  </sodipodi:namedview>
  <metadata
     id="metadata7">
    <rdf:RDF>
      <cc:Work
         rdf:about="">
        <dc:format>image/svg+xml</dc:format>
        <dc:type
           rdf:resource="http://purl.org/dc/dcmitype/StillImage" />
        <dc:title />
      </cc:Work>
    </rdf:RDF>
  </metadata>
  <g
     inkscape:label="Calque 1"
     inkscape:groupmode="layer"
     id="layer1"
     transform="translate(0,6.5938854e-5)">
    <path
       transform="matrix(0.85702718,0,0,0.85702718,112.84416,92.258891)"
       d="m 1578.54,526.18109 c 0,290.60179 -353.3682,526.18111 -789.26998,526.18111 C 353.36822,1052.3622 0,816.78288 0,526.18109 0,235.5793 353.36822,0 789.27002,0 1225.1718,0 1578.54,235.5793 1578.54,526.18109 z"
       sodipodi:ry="526.18109"
       sodipodi:rx="789.27002"
       sodipodi:cy="526.18109"
       sodipodi:cx="789.27002"
       id="path3767"
       style="fill:#000000;fill-opacity:1;stroke:none"
       sodipodi:type="arc" />
    <path
       sodipodi:type="arc"
       style="fill:#ffffff;fill-opacity:1;stroke:none"
       id="path2993"
       sodipodi:cx="789.27002"
       sodipodi:cy="526.18109"
       sodipodi:rx="789.27002"
       sodipodi:ry="526.18109"
       d="m 1578.54,526.18109 c 0,290.60179 -353.3682,526.18111 -789.26998,526.18111 C 353.36822,1052.3622 0,816.78288 0,526.18109 0,235.5793 353.36822,0 789.27002,0 1225.1718,0 1578.54,235.5793 1578.54,526.18109 z"
       transform="matrix(0.85702718,0,0,0.85702718,112.84416,76.342672)" />
    <path
       transform="matrix(0.85702718,0,0,0.85702718,112.84416,76.342672)"
       d="m 1578.54,526.18109 c 0,290.60179 -353.3682,526.18111 -789.26998,526.18111 C 353.36822,1052.3622 0,816.78288 0,526.18109 0,235.5793 353.36822,0 789.27002,0 1225.1718,0 1578.54,235.5793 1578.54,526.18109 z"
       sodipodi:ry="526.18109"
       sodipodi:rx="789.27002"
       sodipodi:cy="526.18109"
       sodipodi:cx="789.27002"
       id="path2995"
       style="fill:none;stroke:#000000;stroke-width:6;stroke-miterlimit:4;stroke-opacity:1;stroke-dasharray:none"
       sodipodi:type="arc" />
    <path
       sodipodi:type="arc"
       style="fill:none;stroke:#000000;stroke-width:4.13285637;stroke-miterlimit:4;stroke-opacity:1;stroke-dasharray:none"
       id="path3769"
       sodipodi:cx="789.27002"
       sodipodi:cy="526.18109"
       sodipodi:rx="789.27002"
       sodipodi:ry="526.18109"
       d="m 1578.54,526.18109 c 0,290.60179 -353.3682,526.18111 -789.26998,526.18111 C 353.36822,1052.3622 0,816.78288 0,526.18109 0,235.5793 353.36822,0 789.27002,0 1225.1718,0 1578.54,235.5793 1578.54,526.18109 z"
       transform="matrix(0.83470828,0,0,0.82427817,130.4598,93.574585)" />
    <text
       xml:space="preserve"
       style="font-size:58.60665512px;font-style:normal;font-weight:normal;line-height:125%;letter-spacing:0px;word-spacing:0px;fill:#000000;fill-opacity:1;stroke:none;font-family:Sans"
       x="359.35025"
       y="586.64166"
       id="text3771"
       sodipodi:linespacing="125%"><tspan
         sodipodi:role="line"
         id="tspan3773"
         x="359.35025"
         y="586.64166"
         style="font-size:210.98394775px;font-style:normal;font-variant:normal;font-weight:normal;font-stretch:normal;text-align:start;line-height:125%;writing-mode:lr-tb;text-anchor:start;font-family:Andada SC;-inkscape-font-specification:Andada SC">Ale &amp; Flo</tspan></text>
    <rect
       style="fill:#000000;fill-opacity:1;stroke:#000000;stroke-width:0.80756193;stroke-miterlimit:4;stroke-opacity:1;stroke-dasharray:none"
       id="rect3798"
       width="172.40523"
       height="1.1463881"
       x="703.64099"
       y="367.17023"
       ry="0" />
    <rect
       ry="0"
       y="682.43671"
       x="703.58777"
       height="0.86349899"
       width="172.51169"
       id="rect3800"
       style="fill:#000000;fill-opacity:1;stroke:#000000;stroke-width:0.70109195;stroke-miterlimit:4;stroke-opacity:1;stroke-dasharray:none" />
    <g
       style="font-size:32.61226273px;font-style:normal;font-weight:normal;line-height:125%;letter-spacing:0px;word-spacing:0px;fill:#000000;fill-opacity:1;stroke:none;font-family:Sans"
       id="text3802"
       transform="matrix(1.3972718,0,0,1.3972718,-312.5332,-92.684326)">
      <path
         d="m 710.62952,234.58531 -11.19727,0 0,8.10352 12.99024,0 0,3.41015 -17.26172,0 0,-25.59375 17.13867,0 0,3.42774 -12.86719,0 0,7.22461 11.19727,0 0,3.42773"
         style="font-size:36px;font-variant:normal;font-weight:bold;font-stretch:normal;text-align:start;line-height:125%;writing-mode:lr-tb;text-anchor:start;font-family:Roboto;-inkscape-font-specification:Roboto Bold"
         id="path3017"
         inkscape:connector-curvature="0" />
      <path
         d="m 729.91272,239.52477 c -2e-5,-1.0664 -0.39845,-1.93945 -1.19531,-2.61915 -0.78517,-0.67967 -2.1797,-1.28905 -4.1836,-1.82812 -2.85938,-0.74999 -5.0625,-1.74022 -6.60937,-2.9707 -1.53516,-1.24218 -2.30274,-2.86522 -2.30274,-4.86914 0,-2.06248 0.84961,-3.7617 2.54883,-5.09766 1.71093,-1.33591 3.91406,-2.00388 6.60938,-2.00391 2.81248,3e-5 5.06834,0.75589 6.76758,2.26758 1.71091,1.51174 2.53708,3.32815 2.47851,5.44922 l -0.0352,0.10547 -4.0957,0 c -2e-5,-1.31248 -0.44533,-2.37303 -1.33594,-3.18164 -0.89064,-0.82029 -2.16212,-1.23045 -3.81445,-1.23047 -1.5586,2e-5 -2.75977,0.33987 -3.60351,1.01953 -0.83204,0.67971 -1.24806,1.55861 -1.24805,2.63672 -10e-6,0.97267 0.45116,1.78127 1.35351,2.42578 0.91406,0.64455 2.41992,1.25392 4.51758,1.82813 2.75389,0.73829 4.84569,1.75782 6.27539,3.05859 1.42967,1.30079 2.14451,2.95899 2.14453,4.97461 -2e-5,2.13282 -0.85548,3.83203 -2.5664,5.09766 -1.69924,1.2539 -3.93752,1.88085 -6.71485,1.88085 -2.67188,0 -5.01563,-0.70312 -7.03125,-2.10937 -2.01562,-1.41797 -2.99414,-3.35742 -2.93554,-5.81836 l 0.0352,-0.10547 4.11328,0 c 0,1.5586 0.53906,2.72462 1.61719,3.49805 1.07812,0.76172 2.47851,1.14258 4.20117,1.14258 1.58202,0 2.81249,-0.31641 3.69141,-0.94922 0.87889,-0.64453 1.31834,-1.51172 1.31836,-2.60156"
         style="font-size:36px;font-variant:normal;font-weight:bold;font-stretch:normal;text-align:start;line-height:125%;writing-mode:lr-tb;text-anchor:start;font-family:Roboto;-inkscape-font-specification:Roboto Bold"
         id="path3019"
         inkscape:connector-curvature="0" />
      <path
         d="m 756.17444,223.93297 -7.73438,0 0,22.16601 -4.27148,0 0,-22.16601 -7.73438,0 0,-3.42774 19.74024,0 0,3.42774"
         style="font-size:36px;font-variant:normal;font-weight:bold;font-stretch:normal;text-align:start;line-height:125%;writing-mode:lr-tb;text-anchor:start;font-family:Roboto;-inkscape-font-specification:Roboto Bold"
         id="path3021"
         inkscape:connector-curvature="0" />
      <path
         d="m 759.4967,246.09898 0,-25.59375 8.29688,0 c 3.24608,3e-5 5.88279,1.0137 7.91016,3.04102 2.03904,2.02736 3.05857,4.63478 3.05859,7.82227 l 0,3.88476 c -2e-5,3.19923 -1.01955,5.80665 -3.05859,7.82227 -2.02737,2.01562 -4.66408,3.02343 -7.91016,3.02343 l -8.29688,0 m 4.27149,-22.16601 0,18.75586 3.90234,0 c 2.12108,0 3.78514,-0.6914 4.99219,-2.07422 1.21873,-1.38281 1.82811,-3.16991 1.82812,-5.36133 l 0,-3.91992 c -1e-5,-2.16795 -0.60939,-3.94334 -1.82812,-5.32617 -1.20705,-1.38279 -2.87111,-2.0742 -4.99219,-2.07422 l -3.90234,0"
         style="font-size:36px;font-variant:normal;font-weight:bold;font-stretch:normal;text-align:start;line-height:125%;writing-mode:lr-tb;text-anchor:start;font-family:Roboto;-inkscape-font-specification:Roboto Bold"
         id="path3023"
         inkscape:connector-curvature="0" />
      <path
         d="m 785.51233,246.09898 -4.25391,0 0,-4.0957 4.25391,0 0,4.0957"
         style="font-size:36px;font-variant:normal;font-weight:bold;font-stretch:normal;text-align:start;line-height:125%;writing-mode:lr-tb;text-anchor:start;font-family:Roboto;-inkscape-font-specification:Roboto Bold"
         id="path3025"
         inkscape:connector-curvature="0" />
      <path
         d="m 816.53772,246.09898 -16.99805,0 0,-2.93554 8.33203,-9.08789 c 1.35937,-1.48827 2.29687,-2.70702 2.8125,-3.65625 0.51562,-0.96092 0.77343,-1.89842 0.77344,-2.8125 -10e-6,-1.14842 -0.334,-2.10936 -1.00195,-2.88282 -0.66798,-0.77341 -1.57033,-1.16013 -2.70703,-1.16015 -1.50001,2e-5 -2.61329,0.42189 -3.33985,1.26562 -0.72657,0.84377 -1.08985,2.00393 -1.08984,3.48047 l -4.13086,0 -0.0352,-0.10547 c -0.0586,-2.27341 0.68555,-4.18357 2.23243,-5.73047 1.54687,-1.55856 3.66796,-2.33786 6.36328,-2.33789 2.46092,3e-5 4.40623,0.67972 5.83593,2.03907 1.42967,1.35939 2.14452,3.13478 2.14454,5.32617 -2e-5,1.46486 -0.41604,2.86525 -1.24805,4.20117 -0.82033,1.33595 -2.09767,2.959 -3.83203,4.86914 l -5.69531,6.01172 0.0527,0.10547 11.53125,0 0,3.41015"
         style="font-size:36px;font-variant:normal;font-weight:bold;font-stretch:normal;text-align:start;line-height:125%;writing-mode:lr-tb;text-anchor:start;font-family:Roboto;-inkscape-font-specification:Roboto Bold"
         id="path3027"
         inkscape:connector-curvature="0" />
      <path
         d="m 836.69983,236.23766 c -2e-5,3.32813 -0.75002,5.86523 -2.25,7.61132 -1.50002,1.7461 -3.53908,2.61914 -6.11719,2.61914 -2.58985,0 -4.64063,-0.87304 -6.15234,-2.61914 -1.51172,-1.74609 -2.26758,-4.28319 -2.26758,-7.61132 l 0,-5.85352 c 0,-3.31639 0.75,-5.85349 2.25,-7.61133 1.49999,-1.75779 3.54491,-2.63669 6.13477,-2.63672 2.57811,3e-5 4.62303,0.87893 6.13476,2.63672 1.5117,1.75784 2.26756,4.29494 2.26758,7.61133 l 0,5.85352 m -4.27149,-6.50391 c -1e-5,-2.09764 -0.35157,-3.65037 -1.05468,-4.6582 -0.70314,-1.00779 -1.72853,-1.5117 -3.07617,-1.51172 -1.34767,2e-5 -2.37306,0.50393 -3.07618,1.51172 -0.69141,1.00783 -1.03711,2.56056 -1.03711,4.6582 l 0,7.11914 c 0,2.10938 0.35156,3.67383 1.05469,4.69336 0.71484,1.00782 1.74609,1.51172 3.09375,1.51172 1.34765,0 2.36718,-0.5039 3.0586,-1.51172 0.69139,-1.00781 1.03709,-2.57226 1.0371,-4.69336 l 0,-7.11914"
         style="font-size:36px;font-variant:normal;font-weight:bold;font-stretch:normal;text-align:start;line-height:125%;writing-mode:lr-tb;text-anchor:start;font-family:Roboto;-inkscape-font-specification:Roboto Bold"
         id="path3029"
         inkscape:connector-curvature="0" />
      <path
         d="m 851.16663,246.09898 -4.27149,0 0,-21.5332 -5.20312,0 0,-3.14648 9.47461,-0.91407 0,25.59375"
         style="font-size:36px;font-variant:normal;font-weight:bold;font-stretch:normal;text-align:start;line-height:125%;writing-mode:lr-tb;text-anchor:start;font-family:Roboto;-inkscape-font-specification:Roboto Bold"
         id="path3031"
         inkscape:connector-curvature="0" />
      <path
         d="m 870.95959,220.13609 c 0.91405,3e-5 1.79296,0.0996 2.63672,0.29883 0.84374,0.18753 1.5996,0.43948 2.26758,0.75586 l -0.80859,3.30469 c -0.65627,-0.28123 -1.29494,-0.49803 -1.91602,-0.65039 -0.62111,-0.16404 -1.34181,-0.24607 -2.16211,-0.2461 -1.71094,3e-5 -3.0879,0.66213 -4.13086,1.98633 -1.03125,1.31252 -1.54688,3.08791 -1.54687,5.32617 l 0,0.12305 c 0.70312,-0.64451 1.51757,-1.14256 2.44336,-1.49414 0.93749,-0.35155 1.96288,-0.52733 3.07617,-0.52734 2.28514,1e-5 4.08983,0.80275 5.41406,2.4082 1.33592,1.59376 2.00389,3.62696 2.00391,6.09961 -2e-5,2.61329 -0.76174,4.75782 -2.28516,6.43359 -1.52345,1.67578 -3.5215,2.51367 -5.99414,2.51367 -2.60157,0 -4.74024,-0.91406 -6.41601,-2.74218 -1.66407,-1.82812 -2.4961,-4.38281 -2.4961,-7.66407 l 0,-4.88671 c 0,-3.32811 0.9375,-5.99998 2.8125,-8.01563 1.88671,-2.0156 4.2539,-3.02341 7.10156,-3.02344 m -1.19531,12.19922 c -1.07813,2e-5 -1.99219,0.19337 -2.74219,0.58008 -0.75,0.37501 -1.32422,0.89064 -1.72265,1.54688 l 0,1.82812 c -10e-6,2.16798 0.43359,3.8379 1.30078,5.00977 0.8789,1.17187 1.99804,1.75781 3.35742,1.75781 1.24218,0 2.22069,-0.5332 2.93555,-1.59961 0.71483,-1.0664 1.07225,-2.3789 1.07226,-3.9375 -1e-5,-1.53515 -0.37501,-2.78319 -1.125,-3.74414 -0.75001,-0.96093 -1.7754,-1.44139 -3.07617,-1.44141"
         style="font-size:36px;font-variant:normal;font-weight:bold;font-stretch:normal;text-align:start;line-height:125%;writing-mode:lr-tb;text-anchor:start;font-family:Roboto;-inkscape-font-specification:Roboto Bold"
         id="path3033"
         inkscape:connector-curvature="0" />
    </g>
    <g
       style="font-size:32.61226273px;font-style:normal;font-weight:normal;line-height:125%;letter-spacing:0px;word-spacing:0px;fill:#000000;fill-opacity:1;stroke:none;font-family:Sans"
       id="text3806"
       transform="matrix(1.3756579,0,0,1.3756579,-183.2723,-295.01811)">
      <path
         d="m 538.47876,786.55994 c -2e-5,-1.0664 -0.39845,-1.93945 -1.19531,-2.61914 -0.78517,-0.67968 -2.1797,-1.28906 -4.1836,-1.82813 -2.85938,-0.74999 -5.0625,-1.74022 -6.60937,-2.9707 -1.53516,-1.24217 -2.30274,-2.86522 -2.30274,-4.86914 0,-2.06248 0.84961,-3.7617 2.54883,-5.09766 1.71093,-1.33591 3.91406,-2.00388 6.60938,-2.00391 2.81248,3e-5 5.06834,0.75589 6.76758,2.26758 1.71091,1.51174 2.53708,3.32815 2.47851,5.44922 l -0.0352,0.10547 -4.0957,0 c -2e-5,-1.31248 -0.44533,-2.37303 -1.33594,-3.18164 -0.89064,-0.82029 -2.16212,-1.23045 -3.81445,-1.23047 -1.5586,2e-5 -2.75977,0.33987 -3.60351,1.01953 -0.83204,0.67971 -1.24806,1.55862 -1.24805,2.63672 -1e-5,0.97268 0.45116,1.78127 1.35351,2.42578 0.91406,0.64455 2.41992,1.25392 4.51758,1.82813 2.75389,0.73829 4.84569,1.75782 6.27539,3.05859 1.42967,1.30079 2.14451,2.95899 2.14453,4.97461 -2e-5,2.13282 -0.85548,3.83203 -2.5664,5.09766 -1.69924,1.2539 -3.93752,1.88086 -6.71485,1.88086 -2.67188,0 -5.01563,-0.70313 -7.03125,-2.10938 -2.01562,-1.41796 -2.99414,-3.35742 -2.93554,-5.81836 l 0.0351,-0.10547 4.11328,0 c 0,1.5586 0.53906,2.72462 1.61719,3.49805 1.07812,0.76172 2.47851,1.14258 4.20117,1.14258 1.58202,0 2.81249,-0.31641 3.69141,-0.94922 0.87889,-0.64453 1.31834,-1.51171 1.31836,-2.60156"
         style="font-size:36px;font-variant:normal;font-weight:bold;font-stretch:normal;text-align:center;line-height:125%;writing-mode:lr-tb;text-anchor:middle;font-family:Roboto;-inkscape-font-specification:Roboto Bold"
         id="path3036"
         inkscape:connector-curvature="0" />
      <path
         d="m 561.11938,787.15759 -10.01953,0 -2.03906,5.97657 -4.32422,0 9.4043,-25.59375 4.04297,0 9.29883,25.59375 -4.3418,0 -2.02149,-5.97657 m -8.78906,-3.56836 7.57617,0 -3.70898,-10.93359 -0.10547,0 -3.76172,10.93359"
         style="font-size:36px;font-variant:normal;font-weight:bold;font-stretch:normal;text-align:center;line-height:125%;writing-mode:lr-tb;text-anchor:middle;font-family:Roboto;-inkscape-font-specification:Roboto Bold"
         id="path3038"
         inkscape:connector-curvature="0" />
      <path
         d="m 578.57446,786.43689 0.45703,1.77539 0.10547,0 0.43946,-1.74023 6.11718,-18.93164 4.55274,0 -9.14063,25.59375 -4.06054,0 -9.12305,-25.59375 4.55273,0 6.09961,18.89648"
         style="font-size:36px;font-variant:normal;font-weight:bold;font-stretch:normal;text-align:center;line-height:125%;writing-mode:lr-tb;text-anchor:middle;font-family:Roboto;-inkscape-font-specification:Roboto Bold"
         id="path3040"
         inkscape:connector-curvature="0" />
      <path
         d="m 612.90454,782.64001 c -2e-5,3.12892 -0.9844,5.72462 -2.95312,7.78711 -1.95705,2.05079 -4.50002,3.07618 -7.62891,3.07618 -3.07032,0 -5.56641,-1.02539 -7.48828,-3.07618 -1.91016,-2.06249 -2.86524,-4.65819 -2.86524,-7.78711 l 0,-4.60546 c 0,-3.11717 0.95508,-5.70701 2.86524,-7.76954 1.92187,-2.06247 4.4121,-3.09372 7.4707,-3.09375 3.12889,3e-5 5.67772,1.03128 7.64649,3.09375 1.96872,2.06253 2.9531,4.65237 2.95312,7.76954 l 0,4.60546 m -4.25391,-4.64062 c -10e-6,-2.1328 -0.57423,-3.88475 -1.72265,-5.25586 -1.13674,-1.37107 -2.67775,-2.05662 -4.62305,-2.05664 -1.87501,2e-5 -3.35743,0.68557 -4.44726,2.05664 -1.08985,1.37111 -1.63478,3.12306 -1.63477,5.25586 l 0,4.64062 c -10e-6,2.15626 0.54492,3.92579 1.63477,5.3086 1.08983,1.3711 2.57811,2.05664 4.46484,2.05664 1.95702,0 3.49803,-0.68554 4.62305,-2.05664 1.1367,-1.37109 1.70506,-3.14062 1.70507,-5.3086 l 0,-4.64062"
         style="font-size:36px;font-variant:normal;font-weight:bold;font-stretch:normal;text-align:center;line-height:125%;writing-mode:lr-tb;text-anchor:middle;font-family:Roboto;-inkscape-font-specification:Roboto Bold"
         id="path3042"
         inkscape:connector-curvature="0" />
      <path
         d="m 637.54907,793.13416 -4.2539,0 -11.35547,-18.68555 -0.10547,0.0351 0,18.6504 -4.27149,0 0,-25.59375 4.27149,0 11.35547,18.66796 0.10547,-0.0351 0,-18.63281 4.2539,0 0,25.59375"
         style="font-size:36px;font-variant:normal;font-weight:bold;font-stretch:normal;text-align:center;line-height:125%;writing-mode:lr-tb;text-anchor:middle;font-family:Roboto;-inkscape-font-specification:Roboto Bold"
         id="path3044"
         inkscape:connector-curvature="0" />
      <path
         d="m 657.02563,786.55994 c -10e-6,-1.0664 -0.39845,-1.93945 -1.19531,-2.61914 -0.78517,-0.67968 -2.1797,-1.28906 -4.18359,-1.82813 -2.85938,-0.74999 -5.06251,-1.74022 -6.60938,-2.9707 -1.53516,-1.24217 -2.30273,-2.86522 -2.30273,-4.86914 0,-2.06248 0.84961,-3.7617 2.54883,-5.09766 1.71093,-1.33591 3.91405,-2.00388 6.60937,-2.00391 2.81249,3e-5 5.06835,0.75589 6.76758,2.26758 1.71092,1.51174 2.53709,3.32815 2.47852,5.44922 l -0.0352,0.10547 -4.0957,0 c -2e-5,-1.31248 -0.44533,-2.37303 -1.33594,-3.18164 -0.89064,-0.82029 -2.16212,-1.23045 -3.81445,-1.23047 -1.55861,2e-5 -2.75978,0.33987 -3.60352,1.01953 -0.83204,0.67971 -1.24805,1.55862 -1.24805,2.63672 0,0.97268 0.45117,1.78127 1.35352,2.42578 0.91405,0.64455 2.41991,1.25392 4.51758,1.82813 2.75389,0.73829 4.84568,1.75782 6.27539,3.05859 1.42967,1.30079 2.14451,2.95899 2.14453,4.97461 -2e-5,2.13282 -0.85549,3.83203 -2.56641,5.09766 -1.69923,1.2539 -3.93751,1.88086 -6.71484,1.88086 -2.67188,0 -5.01563,-0.70313 -7.03125,-2.10938 -2.01563,-1.41796 -2.99414,-3.35742 -2.93555,-5.81836 l 0.0352,-0.10547 4.11328,0 c -10e-6,1.5586 0.53906,2.72462 1.61719,3.49805 1.07811,0.76172 2.4785,1.14258 4.20117,1.14258 1.58202,0 2.81248,-0.31641 3.69141,-0.94922 0.87889,-0.64453 1.31834,-1.51171 1.31835,-2.60156"
         style="font-size:36px;font-variant:normal;font-weight:bold;font-stretch:normal;text-align:center;line-height:125%;writing-mode:lr-tb;text-anchor:middle;font-family:Roboto;-inkscape-font-specification:Roboto Bold"
         id="path3046"
         inkscape:connector-curvature="0" />
      <path
         d="m 688.66626,787.15759 -10.01953,0 -2.03906,5.97657 -4.32422,0 9.40429,-25.59375 4.04297,0 9.29883,25.59375 -4.3418,0 -2.02148,-5.97657 m -8.78906,-3.56836 7.57617,0 -3.70899,-10.93359 -0.10546,0 -3.76172,10.93359"
         style="font-size:36px;font-variant:normal;font-weight:bold;font-stretch:normal;text-align:center;line-height:125%;writing-mode:lr-tb;text-anchor:middle;font-family:Roboto;-inkscape-font-specification:Roboto Bold"
         id="path3048"
         inkscape:connector-curvature="0" />
      <path
         d="m 702.27173,782.51697 0,10.61719 -4.27149,0 0,-25.59375 9.45704,0 c 2.85936,2e-5 5.06834,0.64455 6.62695,1.93359 1.55857,1.28908 2.33787,3.12893 2.33789,5.51953 -2e-5,1.32424 -0.34572,2.46681 -1.03711,3.42773 -0.67971,0.94924 -1.6758,1.71096 -2.98828,2.28516 1.44139,0.45704 2.47849,1.20704 3.11133,2.25 0.63279,1.03126 0.94919,2.30274 0.94922,3.81445 l 0,2.12696 c -3e-5,0.75 0.0937,1.48242 0.28125,2.19726 0.18747,0.71485 0.50388,1.25977 0.94921,1.63477 l 0,0.4043 -4.39453,0 c -0.46876,-0.38672 -0.77345,-0.9961 -0.91406,-1.82813 -0.12892,-0.83203 -0.19338,-1.64648 -0.19336,-2.44336 l 0,-2.05664 c -2e-5,-1.31249 -0.37502,-2.35546 -1.125,-3.12891 -0.75001,-0.77342 -1.78126,-1.16014 -3.09375,-1.16015 l -5.69531,0 m 0,-3.42774 4.95703,0 c 1.71092,2e-5 2.95897,-0.32811 3.74414,-0.98437 0.78514,-0.65624 1.17772,-1.65819 1.17773,-3.00586 -10e-6,-1.28904 -0.38673,-2.29686 -1.16015,-3.02344 -0.77345,-0.73826 -1.95119,-1.1074 -3.5332,-1.10742 l -5.18555,0 0,8.12109"
         style="font-size:36px;font-variant:normal;font-weight:bold;font-stretch:normal;text-align:center;line-height:125%;writing-mode:lr-tb;text-anchor:middle;font-family:Roboto;-inkscape-font-specification:Roboto Bold"
         id="path3050"
         inkscape:connector-curvature="0" />
      <path
         d="m 738.62329,770.96814 -7.73437,0 0,22.16602 -4.27149,0 0,-22.16602 -7.73437,0 0,-3.42773 19.74023,0 0,3.42773"
         style="font-size:36px;font-variant:normal;font-weight:bold;font-stretch:normal;text-align:center;line-height:125%;writing-mode:lr-tb;text-anchor:middle;font-family:Roboto;-inkscape-font-specification:Roboto Bold"
         id="path3052"
         inkscape:connector-curvature="0" />
      <path
         d="m 746.46313,793.13416 -4.27148,0 0,-25.59375 4.27148,0 0,25.59375"
         style="font-size:36px;font-variant:normal;font-weight:bold;font-stretch:normal;text-align:center;line-height:125%;writing-mode:lr-tb;text-anchor:middle;font-family:Roboto;-inkscape-font-specification:Roboto Bold"
         id="path3054"
         inkscape:connector-curvature="0" />
      <path
         d="m 766.15063,786.55994 c -10e-6,-1.0664 -0.39845,-1.93945 -1.19531,-2.61914 -0.78517,-0.67968 -2.1797,-1.28906 -4.18359,-1.82813 -2.85938,-0.74999 -5.06251,-1.74022 -6.60938,-2.9707 -1.53516,-1.24217 -2.30273,-2.86522 -2.30273,-4.86914 0,-2.06248 0.84961,-3.7617 2.54883,-5.09766 1.71093,-1.33591 3.91405,-2.00388 6.60937,-2.00391 2.81249,3e-5 5.06835,0.75589 6.76758,2.26758 1.71092,1.51174 2.53709,3.32815 2.47852,5.44922 l -0.0352,0.10547 -4.0957,0 c -2e-5,-1.31248 -0.44533,-2.37303 -1.33594,-3.18164 -0.89064,-0.82029 -2.16212,-1.23045 -3.81445,-1.23047 -1.55861,2e-5 -2.75978,0.33987 -3.60352,1.01953 -0.83204,0.67971 -1.24805,1.55862 -1.24805,2.63672 0,0.97268 0.45117,1.78127 1.35352,2.42578 0.91405,0.64455 2.41991,1.25392 4.51758,1.82813 2.75389,0.73829 4.84568,1.75782 6.27539,3.05859 1.42967,1.30079 2.14451,2.95899 2.14453,4.97461 -2e-5,2.13282 -0.85549,3.83203 -2.56641,5.09766 -1.69923,1.2539 -3.93751,1.88086 -6.71484,1.88086 -2.67188,0 -5.01563,-0.70313 -7.03125,-2.10938 -2.01563,-1.41796 -2.99414,-3.35742 -2.93555,-5.81836 l 0.0352,-0.10547 4.11328,0 c -10e-6,1.5586 0.53906,2.72462 1.61719,3.49805 1.07811,0.76172 2.4785,1.14258 4.20117,1.14258 1.58202,0 2.81248,-0.31641 3.69141,-0.94922 0.87889,-0.64453 1.31834,-1.51171 1.31835,-2.60156"
         style="font-size:36px;font-variant:normal;font-weight:bold;font-stretch:normal;text-align:center;line-height:125%;writing-mode:lr-tb;text-anchor:middle;font-family:Roboto;-inkscape-font-specification:Roboto Bold"
         id="path3056"
         inkscape:connector-curvature="0" />
      <path
         d="m 788.79126,787.15759 -10.01953,0 -2.03906,5.97657 -4.32422,0 9.40429,-25.59375 4.04297,0 9.29883,25.59375 -4.3418,0 -2.02148,-5.97657 m -8.78906,-3.56836 7.57617,0 -3.70899,-10.93359 -0.10546,0 -3.76172,10.93359"
         style="font-size:36px;font-variant:normal;font-weight:bold;font-stretch:normal;text-align:center;line-height:125%;writing-mode:lr-tb;text-anchor:middle;font-family:Roboto;-inkscape-font-specification:Roboto Bold"
         id="path3058"
         inkscape:connector-curvature="0" />
      <path
         d="m 818.11157,793.13416 -4.2539,0 -11.35547,-18.68555 -0.10547,0.0351 0,18.6504 -4.27149,0 0,-25.59375 4.27149,0 11.35547,18.66796 0.10547,-0.0351 0,-18.63281 4.2539,0 0,25.59375"
         style="font-size:36px;font-variant:normal;font-weight:bold;font-stretch:normal;text-align:center;line-height:125%;writing-mode:lr-tb;text-anchor:middle;font-family:Roboto;-inkscape-font-specification:Roboto Bold"
         id="path3060"
         inkscape:connector-curvature="0" />
      <path
         d="m 837.58813,787.15759 -10.01953,0 -2.03906,5.97657 -4.32422,0 9.4043,-25.59375 4.04297,0 9.29883,25.59375 -4.3418,0 -2.02149,-5.97657 m -8.78906,-3.56836 7.57617,0 -3.70898,-10.93359 -0.10547,0 -3.76172,10.93359"
         style="font-size:36px;font-variant:normal;font-weight:bold;font-stretch:normal;text-align:center;line-height:125%;writing-mode:lr-tb;text-anchor:middle;font-family:Roboto;-inkscape-font-specification:Roboto Bold"
         id="path3062"
         inkscape:connector-curvature="0" />
      <path
         d="m 866.36353,767.54041 0,17.15625 c -3e-5,2.83594 -0.92581,5.01562 -2.77735,6.53906 -1.85158,1.51172 -4.2715,2.26758 -7.25976,2.26758 -2.9297,0 -5.30275,-0.76172 -7.11914,-2.28516 -1.81641,-1.52343 -2.72462,-3.69726 -2.72461,-6.52148 l 0,-17.15625 4.27148,0 0,17.15625 c -10e-6,1.79297 0.5039,3.14063 1.51172,4.04296 1.0078,0.90235 2.36132,1.35352 4.06055,1.35352 1.75779,0 3.15818,-0.45117 4.20117,-1.35352 1.04295,-0.90233 1.56443,-2.24999 1.56445,-4.04296 l 0,-17.15625 4.27149,0"
         style="font-size:36px;font-variant:normal;font-weight:bold;font-stretch:normal;text-align:center;line-height:125%;writing-mode:lr-tb;text-anchor:middle;font-family:Roboto;-inkscape-font-specification:Roboto Bold"
         id="path3064"
         inkscape:connector-curvature="0" />
      <path
         d="m 880.09204,776.99744 5.39649,-9.45703 5.0625,0 -7.875,12.6914 8.17382,12.90235 -5.13281,0 -5.55469,-9.61524 -5.55468,9.61524 -5.0625,0 8.05078,-12.90235 -7.875,-12.6914 5.02734,0 5.34375,9.45703"
         style="font-size:36px;font-variant:normal;font-weight:bold;font-stretch:normal;text-align:center;line-height:125%;writing-mode:lr-tb;text-anchor:middle;font-family:Roboto;-inkscape-font-specification:Roboto Bold"
         id="path3066"
         inkscape:connector-curvature="0" />
    </g>
    <flowRoot
       xml:space="preserve"
       id="flowRoot3812"
       style="font-size:40px;font-style:normal;font-weight:normal;line-height:125%;letter-spacing:0px;word-spacing:0px;fill:#000000;fill-opacity:1;stroke:none;font-family:Sans"
       transform="matrix(0.85702718,0,0,0.85702718,112.84416,76.342728)"><flowRegion
         id="flowRegion3814"><rect
           id="rect3816"
           width="163.64471"
           height="55.558392"
           x="761.65503"
           y="813.96619" /></flowRegion><flowPara
         id="flowPara3818" /></flowRoot>    <text
       xml:space="preserve"
       style="font-size:38.05277634px;font-style:normal;font-variant:normal;font-stretch:normal;text-align:center;line-height:129.99999523%;letter-spacing:0px;word-spacing:0px;writing-mode:lr-tb;text-anchor:middle;fill:#000000;fill-opacity:1;stroke:none;font-family:Roboto;-inkscape-font-specification:Roboto Semi-Light"
       x="789.28571"
       y="852.42328"
       id="text3082"
       sodipodi:linespacing="130%"><tspan
         sodipodi:role="line"
         id="tspan3084"
         x="789.28571"
         y="852.42328"
         style="font-size:40px;font-style:normal;font-variant:normal;font-weight:bold;font-stretch:normal;text-align:center;line-height:129.99999523%;writing-mode:lr-tb;text-anchor:middle;font-family:Roboto;-inkscape-font-specification:Roboto Bold">GENÈVE</tspan></text>
  </g>
</svg>
