<?xml version="1.0" encoding="UTF-8" standalone="no"?>
<!-- Created with Inkscape (http://www.inkscape.org/) -->

<svg
   xmlns:dc="http://purl.org/dc/elements/1.1/"
   xmlns:cc="http://creativecommons.org/ns#"
   xmlns:rdf="http://www.w3.org/1999/02/22-rdf-syntax-ns#"
   xmlns:svg="http://www.w3.org/2000/svg"
   xmlns="http://www.w3.org/2000/svg"
   xmlns:sodipodi="http://sodipodi.sourceforge.net/DTD/sodipodi-0.dtd"
   xmlns:inkscape="http://www.inkscape.org/namespaces/inkscape"
   width="1578.54"
   height="1052.3622"
   id="svg2"
   version="1.1"
   inkscape:version="0.48.4 r9939"
   sodipodi:docname="dessin.svg">
  <defs
     id="defs4" />
  <sodipodi:namedview
     id="base"
     pagecolor="#ffffff"
     bordercolor="#666666"
     borderopacity="1.0"
     inkscape:pageopacity="0.0"
     inkscape:pageshadow="2"
     inkscape:zoom="0.7"
     inkscape:cx="710.00357"
     inkscape:cy="504.56772"
     inkscape:document-units="px"
     inkscape:current-layer="layer1"
     showgrid="false"
     width="1052.36px"
     showguides="true"
     inkscape:guide-bbox="true"
     inkscape:window-width="1280"
     inkscape:window-height="969"
     inkscape:window-x="0"
     inkscape:window-y="30"
     inkscape:window-maximized="1">
    <sodipodi:guide
       position="0,0"
       orientation="0,1578.54"
       id="guide2985" />
    <sodipodi:guide
       position="1578.54,0"
       orientation="-1052.3622,0"
       id="guide2987" />
    <sodipodi:guide
       position="1578.54,1052.3622"
       orientation="0,-1578.54"
       id="guide2989" />
    <sodipodi:guide
       position="0,1052.3622"
       orientation="1052.3622,0"
       id="guide2991" />
    <sodipodi:guide
       orientation="0,1"
       position="39.464286,525.89286"
       id="guide3775" />
    <sodipodi:guide
       orientation="1,0"
       position="789.28572,993.21429"
       id="guide3796" />
  </sodipodi:namedview>
  <metadata
     id="metadata7">
    <rdf:RDF>
      <cc:Work
         rdf:about="">
        <dc:format>image/svg+xml</dc:format>
        <dc:type
           rdf:resource="http://purl.org/dc/dcmitype/StillImage" />
        <dc:title />
      </cc:Work>
    </rdf:RDF>
  </metadata>
  <g
     inkscape:label="Calque 1"
     inkscape:groupmode="layer"
     id="layer1"
     transform="translate(0,6.5938854e-5)">
    <path
       transform="matrix(0.85702718,0,0,0.85702718,112.84416,92.258891)"
       d="m 1578.54,526.18109 c 0,290.60179 -353.3682,526.18111 -789.26998,526.18111 C 353.36822,1052.3622 0,816.78288 0,526.18109 0,235.5793 353.36822,0 789.27002,0 1225.1718,0 1578.54,235.5793 1578.54,526.18109 z"
       sodipodi:ry="526.18109"
       sodipodi:rx="789.27002"
       sodipodi:cy="526.18109"
       sodipodi:cx="789.27002"
       id="path3767"
       style="fill:#000000;fill-opacity:1;stroke:none"
       sodipodi:type="arc" />
    <path
       sodipodi:type="arc"
       style="fill:#ffffff;fill-opacity:1;stroke:none"
       id="path2993"
       sodipodi:cx="789.27002"
       sodipodi:cy="526.18109"
       sodipodi:rx="789.27002"
       sodipodi:ry="526.18109"
       d="m 1578.54,526.18109 c 0,290.60179 -353.3682,526.18111 -789.26998,526.18111 C 353.36822,1052.3622 0,816.78288 0,526.18109 0,235.5793 353.36822,0 789.27002,0 1225.1718,0 1578.54,235.5793 1578.54,526.18109 z"
       transform="matrix(0.85702718,0,0,0.85702718,112.84416,76.342672)" />
    <path
       style="fill:#000000;stroke:#000000;stroke-width:5.14216328000000011;stroke-miterlimit:4;stroke-opacity:1;stroke-dasharray:none"
       d="M 789.28125 76.34375 C 415.70156 76.34375 112.84375 278.22762 112.84375 527.28125 C 112.84375 776.33488 415.70156 978.25 789.28125 978.25 C 1162.8609 978.25 1465.6875 776.33488 1465.6875 527.28125 C 1465.6875 278.22762 1162.8609 76.34375 789.28125 76.34375 z M 789.28125 93.5625 C 1153.1321 93.5625 1448.0937 287.74454 1448.0938 527.28125 C 1448.0938 766.81796 1153.1321 961 789.28125 961 C 425.43041 961 130.46875 766.81796 130.46875 527.28125 C 130.46875 287.74454 425.43041 93.5625 789.28125 93.5625 z "
       transform="translate(0,-6.5938854e-5)"
       id="path2995" />
    <g
       style="font-size:142.73124695px;font-style:normal;font-weight:normal;line-height:125%;letter-spacing:0px;word-spacing:0px;fill:#000000;fill-opacity:1;stroke:none;font-family:Sans"
       id="text3771">
      <path
         d="m 654.26956,665.95172 -31.85761,-5.13833 -20.03947,-43.67576 -105.84949,-290.82917 -29.80228,5.13833 -91.97601,280.03869 -22.09479,50.86941 -32.37145,8.73515 2.05533,25.17779 c 0,0 50.3556,-2.56916 69.36738,-2.56916 l 44.18959,0 2.56917,-27.74695 -35.96828,-5.13833 5.13833,-32.37144 16.44264,-53.95241 113.04314,0 10.79048,30.82995 13.87348,55.4939 -37.50977,10.27665 2.05533,25.17779 c 0,0 57.54925,-2.56916 73.47804,-2.56916 l 51.89708,0 2.56916,-27.74695 m -175.7307,-258.45773 48.30025,139.2486 -93.51751,2.05533 45.21726,-141.30393"
         style="font-size:513.8324585px;font-variant:normal;font-stretch:normal;text-align:start;line-height:125%;writing-mode:lr-tb;text-anchor:start;font-family:Andada SC;-inkscape-font-specification:Andada SC"
         id="path2998" />
      <path
         d="m 796.63326,415.20148 c -45.21722,0 -83.75469,17.98418 -83.75469,60.63223 0,19.52561 8.22133,37.50979 23.63629,57.54923 -34.94057,20.03945 -54.46624,46.24496 -54.46624,81.69936 0,53.43853 44.70348,82.72703 99.68349,82.72703 37.50974,0 69.36741,-11.81817 93.00368,-30.82995 l 17.4703,17.47031 3.59683,8.73515 8.73515,0 c 38.5374,0 63.20139,2.56916 63.20139,2.56916 l 2.56917,-26.71929 -31.85762,-3.08299 c -8.73514,-5.65215 -24.15012,-17.47031 -26.71928,-20.03947 l -12.33198,-10.79048 c 7.70748,-15.92879 12.84581,-33.39913 13.35964,-53.95241 0.51383,-15.92879 1.5415,-24.66396 2.05533,-28.26078 l 32.37145,-5.65216 -2.05533,-24.15013 -50.86942,1.5415 -42.64809,0 -2.56916,25.69162 27.74695,2.56917 c 1.02766,4.62448 4.11066,17.98414 4.11066,25.17779 0,13.35963 -2.05533,24.66397 -5.65216,35.45444 -62.6875,-56.52152 -115.09847,-101.22503 -115.09847,-137.7071 0,-21.06711 14.38733,-34.94061 38.0236,-34.94061 15.41496,0 28.26079,5.13833 33.39911,8.73515 0,0 5.13833,16.95648 5.13833,19.52564 0,3.59682 -1.02767,16.44264 -1.02767,17.98413 l 24.66396,1.5415 4.62449,-60.1184 c -12.33196,-4.62449 -44.70344,-13.35964 -68.33971,-13.35964 m -40.59277,143.35925 c 26.71926,28.77459 62.68759,58.0631 96.08667,87.86535 -16.44262,13.35963 -37.50979,20.5533 -64.22906,20.5533 -33.9129,0 -59.60456,-21.581 -59.60456,-56.00774 0,-20.03944 7.70751,-36.99595 27.74695,-52.41091"
         style="font-size:513.8324585px;font-variant:normal;font-stretch:normal;text-align:start;line-height:125%;writing-mode:lr-tb;text-anchor:start;font-family:Andada SC;-inkscape-font-specification:Andada SC"
         id="path3000" />
      <path
         d="m 1243.9886,326.30846 c 0,0 -48.3003,5.13833 -58.5769,5.13833 l -115.0985,0 c -10.2766,0 -59.6045,-2.56917 -59.6045,-2.56917 l -2.5692,27.74696 39.5651,6.16599 c 1.0277,6.67981 4.6245,30.31612 4.6245,39.05126 l 0,221.46179 c 0,8.73515 -3.5968,32.37145 -4.6245,39.05127 l -40.5928,8.22132 2.5692,25.69162 c 0,0 50.3556,-2.56916 60.6322,-2.56916 41.1066,0 80.1579,2.56916 80.1579,2.56916 l 3.5968,-30.31611 -51.3832,-3.59683 c -1.0277,-7.19365 -3.5968,-32.8853 -3.5968,-54.46624 l 0,-82.21319 c 8.7351,-1.02767 17.4703,-1.5415 22.0948,-1.5415 l 27.2331,0 c 10.2766,0 41.1066,3.08299 41.1066,3.08299 l 4.6245,34.42678 24.6639,-3.083 c 0,0 -1.5415,-30.31614 -1.5415,-56.00774 0,-10.27663 0.5139,-43.16192 0.5139,-43.16192 l -23.6363,-2.56916 -4.6245,33.91294 c 0,0 -20.5533,4.62449 -30.83,4.62449 l -37.5097,0 c -4.1107,0 -13.3597,-0.51383 -22.0948,-1.02766 l 0,-77.07487 c 0,-20.03945 2.5691,-46.24494 3.5968,-57.03541 l 67.312,0 c 14.3873,0 30.3162,1.5415 41.6205,2.56917 5.1383,6.67981 9.7628,13.87348 10.2766,17.4703 2.0553,7.70748 4.6245,19.52564 5.6522,27.74695 l 29.8023,-2.56916 -3.5969,-69.88121 -9.7628,-9.24899"
         style="font-size:513.8324585px;font-variant:normal;font-stretch:normal;text-align:start;line-height:125%;writing-mode:lr-tb;text-anchor:start;font-family:Andada SC;-inkscape-font-specification:Andada SC"
         id="path3002" />
    </g>
    <flowRoot
       xml:space="preserve"
       id="flowRoot3812"
       style="font-size:40px;font-style:normal;font-weight:normal;line-height:125%;letter-spacing:0px;word-spacing:0px;fill:#000000;fill-opacity:1;stroke:none;font-family:Sans"
       transform="matrix(0.85702718,0,0,0.85702718,112.84416,76.342728)"><flowRegion
         id="flowRegion3814"><rect
           id="rect3816"
           width="163.64471"
           height="55.558392"
           x="761.65503"
           y="813.96619" /></flowRegion><flowPara
         id="flowPara3818" /></flowRoot>  </g>
</svg>
