<?xml version="1.0" encoding="UTF-8" standalone="no"?>
<!-- Created with Inkscape (http://www.inkscape.org/) -->

<svg
   xmlns:dc="http://purl.org/dc/elements/1.1/"
   xmlns:cc="http://creativecommons.org/ns#"
   xmlns:rdf="http://www.w3.org/1999/02/22-rdf-syntax-ns#"
   xmlns:svg="http://www.w3.org/2000/svg"
   xmlns="http://www.w3.org/2000/svg"
   xmlns:sodipodi="http://sodipodi.sourceforge.net/DTD/sodipodi-0.dtd"
   xmlns:inkscape="http://www.inkscape.org/namespaces/inkscape"
   width="1578.54"
   height="1052.3622"
   id="svg2"
   version="1.1"
   inkscape:version="0.48.4 r9939"
   sodipodi:docname="dessin.svg">
  <defs
     id="defs4" />
  <sodipodi:namedview
     id="base"
     pagecolor="#ffffff"
     bordercolor="#666666"
     borderopacity="1.0"
     inkscape:pageopacity="0.0"
     inkscape:pageshadow="2"
     inkscape:zoom="0.35"
     inkscape:cx="553.98179"
     inkscape:cy="436.01526"
     inkscape:document-units="px"
     inkscape:current-layer="layer1"
     showgrid="false"
     width="1052.36px"
     showguides="true"
     inkscape:guide-bbox="true"
     inkscape:window-width="1280"
     inkscape:window-height="969"
     inkscape:window-x="0"
     inkscape:window-y="30"
     inkscape:window-maximized="1">
    <sodipodi:guide
       position="0,0"
       orientation="0,1578.54"
       id="guide2985" />
    <sodipodi:guide
       position="1578.54,0"
       orientation="-1052.3622,0"
       id="guide2987" />
    <sodipodi:guide
       position="1578.54,1052.3622"
       orientation="0,-1578.54"
       id="guide2989" />
    <sodipodi:guide
       position="0,1052.3622"
       orientation="1052.3622,0"
       id="guide2991" />
    <sodipodi:guide
       orientation="0,1"
       position="39.464286,525.89286"
       id="guide3775" />
    <sodipodi:guide
       orientation="1,0"
       position="789.28572,993.21429"
       id="guide3796" />
  </sodipodi:namedview>
  <metadata
     id="metadata7">
    <rdf:RDF>
      <cc:Work
         rdf:about="">
        <dc:format>image/svg+xml</dc:format>
        <dc:type
           rdf:resource="http://purl.org/dc/dcmitype/StillImage" />
        <dc:title />
      </cc:Work>
    </rdf:RDF>
  </metadata>
  <g
     inkscape:label="Calque 1"
     inkscape:groupmode="layer"
     id="layer1"
     transform="translate(0,6.5938854e-5)">
    <path
       transform="matrix(0.85702718,0,0,0.85702718,112.84416,92.258891)"
       d="m 1578.54,526.18109 c 0,290.60179 -353.3682,526.18111 -789.26998,526.18111 C 353.36822,1052.3622 0,816.78288 0,526.18109 0,235.5793 353.36822,0 789.27002,0 1225.1718,0 1578.54,235.5793 1578.54,526.18109 z"
       sodipodi:ry="526.18109"
       sodipodi:rx="789.27002"
       sodipodi:cy="526.18109"
       sodipodi:cx="789.27002"
       id="path3767"
       style="fill:#000000;fill-opacity:1;stroke:none"
       sodipodi:type="arc" />
    <path
       sodipodi:type="arc"
       style="fill:#ffffff;fill-opacity:1;stroke:none"
       id="path2993"
       sodipodi:cx="789.27002"
       sodipodi:cy="526.18109"
       sodipodi:rx="789.27002"
       sodipodi:ry="526.18109"
       d="m 1578.54,526.18109 c 0,290.60179 -353.3682,526.18111 -789.26998,526.18111 C 353.36822,1052.3622 0,816.78288 0,526.18109 0,235.5793 353.36822,0 789.27002,0 1225.1718,0 1578.54,235.5793 1578.54,526.18109 z"
       transform="matrix(0.85702718,0,0,0.85702718,112.84416,76.342672)" />
    <path
       style="fill:#000000;stroke:#000000;stroke-width:5.14216328000000011;stroke-miterlimit:4;stroke-opacity:1;stroke-dasharray:none"
       d="M 789.28125 76.34375 C 415.70156 76.34375 112.84375 278.22762 112.84375 527.28125 C 112.84375 776.33488 415.70156 978.25 789.28125 978.25 C 1162.8609 978.25 1465.6875 776.33488 1465.6875 527.28125 C 1465.6875 278.22762 1162.8609 76.34375 789.28125 76.34375 z M 789.28125 93.5625 C 1153.1321 93.5625 1448.0937 287.74454 1448.0938 527.28125 C 1448.0938 766.81796 1153.1321 961 789.28125 961 C 425.43041 961 130.46875 766.81796 130.46875 527.28125 C 130.46875 287.74454 425.43041 93.5625 789.28125 93.5625 z "
       transform="translate(0,-6.5938854e-5)"
       id="path2995" />
    <text
       xml:space="preserve"
       style="font-size:142.73124695px;font-style:normal;font-weight:normal;line-height:125%;letter-spacing:0px;word-spacing:0px;fill:#000000;fill-opacity:1;stroke:none;font-family:Sans"
       x="315.14014"
       y="693.69867"
       id="text3771"
       sodipodi:linespacing="125%"><tspan
         sodipodi:role="line"
         id="tspan3773"
         x="315.14014"
         y="693.69867"
         style="font-size:513.8324585px;font-style:normal;font-variant:normal;font-weight:normal;font-stretch:normal;text-align:start;line-height:125%;writing-mode:lr-tb;text-anchor:start;font-family:Andada SC;-inkscape-font-specification:Andada SC">A&amp;F</tspan></text>
    <flowRoot
       xml:space="preserve"
       id="flowRoot3812"
       style="font-size:40px;font-style:normal;font-weight:normal;line-height:125%;letter-spacing:0px;word-spacing:0px;fill:#000000;fill-opacity:1;stroke:none;font-family:Sans"
       transform="matrix(0.85702718,0,0,0.85702718,112.84416,76.342728)"><flowRegion
         id="flowRegion3814"><rect
           id="rect3816"
           width="163.64471"
           height="55.558392"
           x="761.65503"
           y="813.96619" /></flowRegion><flowPara
         id="flowPara3818" /></flowRoot>  </g>
</svg>
