<?xml version="1.0" encoding="UTF-8" standalone="no"?>
<!DOCTYPE svg PUBLIC "-//W3C//DTD SVG 1.1//EN" "http://www.w3.org/Graphics/SVG/1.1/DTD/svg11.dtd">
<svg width="100%" height="100%" viewBox="0 0 4489 1772" version="1.1" xmlns="http://www.w3.org/2000/svg" xmlns:xlink="http://www.w3.org/1999/xlink" xml:space="preserve" xmlns:serif="http://www.serif.com/" style="fill-rule:evenodd;clip-rule:evenodd;stroke-linejoin:round;stroke-miterlimit:2;">
    <g transform="matrix(3.19984,0,0,1.06837,2416.48,-315.464)">
        <rect x="78.174" y="295.276" width="569.521" height="781.565" style="fill:rgb(162,208,255);"/>
    </g>
    <g transform="matrix(4.49996,0,0,2.26725,-351.78,-669.463)">
        <rect x="78.174" y="295.276" width="569.521" height="781.565" style="fill:rgb(185,232,155);"/>
    </g>
    <g transform="matrix(3.19767,0,0,1.06837,2417.89,619.334)">
        <rect x="78.174" y="295.276" width="569.521" height="781.565" style="fill:rgb(255,237,160);"/>
        <path d="M647.695,295.276L647.695,1076.84L78.174,1076.84L78.174,295.276L647.695,295.276ZM644.631,304.447L81.238,304.447L81.238,1067.67L644.631,1067.67L644.631,304.447Z" style="fill:rgb(254,178,76);"/>
    </g>
    <g transform="matrix(1,0,0,1,-80.0095,43.3695)">
        <text x="620.942px" y="585.718px" style="font-family:'FiraSans-Bold', 'Fira Sans', sans-serif;font-weight:700;font-size:160px;">P<tspan x="712.142px " y="585.718px ">e</tspan>destrianiz<tspan x="1527.02px " y="585.718px ">e</tspan> R<tspan x="1750.54px 1842.7px " y="585.718px 585.718px ">oa</tspan>ds</text>
    </g>
    <g transform="matrix(1,0,0,1,300.243,277.576)">
        <text x="92.833px" y="536.278px" style="font-family:'FiraSans-Regular', 'Fira Sans', sans-serif;font-size:96px;">One cl<tspan x="366.145px " y="536.278px ">o</tspan>sed t<tspan x="634.561px " y="536.278px ">o</tspan> c<tspan x="761.473px 813.217px 848.545px " y="536.278px 536.278px 536.278px ">ars</tspan>, r<tspan x="976.705px 1032.29px " y="536.278px 536.278px ">oa</tspan>ds c<tspan x="1256.35px " y="536.278px ">a</tspan>n e<tspan x="1440.87px " y="536.278px ">a</tspan>sil<tspan x="1591.2px " y="536.278px ">y</tspan> f<tspan x="1695.07px " y="536.278px ">o</tspan>rm</text>
        <text x="174.385px" y="632.278px" style="font-family:'FiraSans-Regular', 'Fira Sans', sans-serif;font-size:96px;">a sp<tspan x="352.177px " y="632.278px ">a</tspan>cious e<tspan x="709.585px 756.145px 789.361px " y="632.278px 632.278px 632.278px ">xte</tspan>nsion of the sidewa<tspan x="1687.44px 1715.66px 1764.91px " y="632.278px 632.278px 632.278px ">lk.</tspan></text>
        <text x="99.457px" y="848.278px" style="font-family:'FiraSans-Regular', 'Fira Sans', sans-serif;font-size:96px;">Howe<tspan x="341.377px 388.225px 440.449px 469.537px " y="848.278px 848.278px 848.278px 848.278px ">ver,</tspan> a l<tspan x="622.945px " y="848.278px ">o</tspan>t of Gene<tspan x="1072.9px 1119.65px " y="848.278px 848.278px ">va</tspan> r<tspan x="1231.68px 1287.27px " y="848.278px 848.278px ">oa</tspan>ds a<tspan x="1517.18px " y="848.278px ">l</tspan>so host</text>
        <text x="102.385px" y="944.278px" style="font-family:'FiraSans-Regular', 'Fira Sans', sans-serif;font-size:96px;">important public tr<tspan x="924.913px " y="944.278px ">a</tspan>nsport lines that ar<tspan x="1807.73px " y="944.278px ">e</tspan></text>
        <text x="326.257px" y="1040.28px" style="font-family:'FiraSans-Regular', 'Fira Sans', sans-serif;font-size:96px;">es<tspan x="422.353px " y="1040.28px ">s</tspan>entia<tspan x="687.409px " y="1040.28px ">l</tspan> t<tspan x="774.289px " y="1040.28px ">o</tspan> es<tspan x="951.889px " y="1040.28px ">s</tspan>entia<tspan x="1216.94px " y="1040.28px ">l</tspan> work<tspan x="1480.66px 1532.88px 1568.21px " y="1040.28px 1040.28px 1040.28px ">ers</tspan>.</text>
    </g>
    <g transform="matrix(1,0,0,1,2587.85,-264.343)">
        <text x="494.283px" y="573.574px" style="font-family:'FiraSans-Bold', 'Fira Sans', sans-serif;font-weight:700;font-size:144px;">P<tspan x="574.347px " y="573.574px ">a</tspan>rking Sp<tspan x="1192.54px 1271.16px 1337.98px " y="573.574px 573.574px 573.574px ">ace</tspan>s</text>
    </g>
    <g transform="matrix(1,0,0,1,2858.06,-88.6371)">
        <text x="142.596px" y="536.278px" style="font-family:'FiraSans-Regular', 'Fira Sans', sans-serif;font-size:96px;">The<tspan x="299.556px " y="536.278px ">y</tspan> ar<tspan x="458.82px " y="536.278px ">e</tspan> not wher<tspan x="919.716px " y="536.278px ">e</tspan> peopl<tspan x="1245.92px " y="536.278px ">e</tspan></text>
        <text x="349.716px" y="632.278px" style="font-family:'FiraSans-Regular', 'Fira Sans', sans-serif;font-size:96px;">need mor<tspan x="764.34px " y="632.278px ">e</tspan> sp<tspan x="942.612px 994.356px 1038.8px " y="632.278px 632.278px 632.278px ">ace</tspan></text>
    </g>
    <g transform="matrix(1,0,0,1,2587.85,605.858)">
        <text x="638.931px" y="573.574px" style="font-family:'FiraSans-Bold', 'Fira Sans', sans-serif;font-weight:700;font-size:144px;">Bik<tspan x="845.859px " y="573.574px ">e</tspan> L<tspan x="1032.19px " y="573.574px ">a</tspan>nes</text>
    </g>
    <g transform="matrix(1,0,0,1,2775.51,781.565)">
        <text x="136.486px" y="536.278px" style="font-family:'FiraSans-Regular', 'Fira Sans', sans-serif;font-size:96px;">The<tspan x="293.446px " y="536.278px ">y</tspan> c<tspan x="411.526px " y="536.278px ">a</tspan>n obstruct pedestrians,</text>
        <text x="135.526px" y="632.278px" style="font-family:'FiraSans-Regular', 'Fira Sans', sans-serif;font-size:96px;">but the<tspan x="449.062px " y="632.278px ">y</tspan> a<tspan x="572.998px " y="632.278px ">l</tspan>so pr<tspan x="818.662px 874.246px 921.094px " y="632.278px 632.278px 632.278px ">ove</tspan> t<tspan x="1031.97px " y="632.278px ">o</tspan> be gr<tspan x="1332.17px 1383.91px " y="632.278px 632.278px ">ea</tspan>t</text>
        <text x="89.35px" y="728.278px" style="font-family:'FiraSans-Regular', 'Fira Sans', sans-serif;font-size:96px;">tr<tspan x="158.854px " y="728.278px ">a</tspan>nsport during C<tspan x="878.086px 944.038px " y="728.278px 728.278px ">OV</tspan>ID<tspan x="1085.64px " y="728.278px ">.</tspan> The<tspan x="1291.08px " y="728.278px ">y</tspan> c<tspan x="1409.16px " y="728.278px ">a</tspan>n</text>
        <text x="313.414px" y="824.278px" style="font-family:'FiraSans-Regular', 'Fira Sans', sans-serif;font-size:96px;">be t<tspan x="480.55px " y="824.278px ">e</tspan>mpor<tspan x="761.542px " y="824.278px ">a</tspan>ril<tspan x="903.814px " y="824.278px ">y</tspan> mo<tspan x="1113.67px 1160.52px " y="824.278px 824.278px ">ve</tspan>d.</text>
    </g>
</svg>
