<?xml version="1.0" encoding="UTF-8" standalone="no"?>
<!DOCTYPE svg PUBLIC "-//W3C//DTD SVG 1.1//EN" "http://www.w3.org/Graphics/SVG/1.1/DTD/svg11.dtd">
<svg width="100%" height="100%" viewBox="0 0 4489 945" version="1.1" xmlns="http://www.w3.org/2000/svg" xmlns:xlink="http://www.w3.org/1999/xlink" xml:space="preserve" xmlns:serif="http://www.serif.com/" style="fill-rule:evenodd;clip-rule:evenodd;stroke-linejoin:round;stroke-miterlimit:2;">
    <g transform="matrix(0.167352,0,0,0.429568,73.173,137.845)">
        <rect x="0" y="312.865" width="4448.81" height="382.952" style="fill:rgb(140,45,4);"/>
    </g>
    <g transform="matrix(0.167352,0,0,0.429568,817.689,137.845)">
        <rect x="0" y="312.865" width="4448.81" height="382.952" style="fill:rgb(241,105,19);"/>
    </g>
    <g transform="matrix(0.167352,0,0,0.429568,1562.2,137.845)">
        <rect x="0" y="312.865" width="4448.81" height="382.952" style="fill:rgb(253,141,60);"/>
    </g>
    <g transform="matrix(0.167352,0,0,0.429568,2306.72,137.845)">
        <rect x="0" y="312.865" width="4448.81" height="382.952" style="fill:rgb(253,174,107);"/>
    </g>
    <g transform="matrix(0.167352,0,0,0.429568,3051.24,137.845)">
        <rect x="0" y="312.865" width="4448.81" height="382.952" style="fill:rgb(254,237,222);"/>
    </g>
    <g transform="matrix(0.167352,0,0,0.429568,3795.75,137.845)">
        <rect x="0" y="312.865" width="4448.81" height="382.952" style="fill:white;"/>
    </g>
    <g transform="matrix(1,0,0,1,73.173,0)">
        <text x="0px" y="173.752px" style="font-family:'Arial-BoldMT', 'Arial', sans-serif;font-weight:700;font-size:125.197px;">A<tspan x="85.767px 155.396px " y="173.752px 173.752px ">va</tspan>ilable vs. Needed queuing places per shop*</text>
    </g>
    <g transform="matrix(0.206443,0,0,0.69874,83.2336,20.6311)">
        <rect x="-48.733" y="339.547" width="77.19" height="341.114"/>
    </g>
    <g transform="matrix(0.206443,0,0,0.69874,827.749,20.6311)">
        <rect x="-48.733" y="339.547" width="77.19" height="341.114"/>
    </g>
    <g transform="matrix(0.206443,0,0,0.69874,1572.26,20.6311)">
        <rect x="-48.733" y="339.547" width="77.19" height="341.114"/>
    </g>
    <g transform="matrix(0.206443,0,0,0.69874,2316.78,20.6311)">
        <rect x="-48.733" y="339.547" width="77.19" height="341.114"/>
    </g>
    <g transform="matrix(0.206443,0,0,0.69874,3061.3,20.6311)">
        <rect x="-48.733" y="339.547" width="77.19" height="341.114"/>
    </g>
    <g transform="matrix(0.206443,0,0,0.69874,3805.81,20.6311)">
        <rect x="-48.733" y="339.547" width="77.19" height="341.114"/>
    </g>
    <g transform="matrix(1,0,0,1,73.173,689.452)">
        <text x="0px" y="114.742px" style="font-family:'ArialMT', 'Arial', sans-serif;font-size:89.764px;">*A<tspan x="93.183px 138.064px " y="114.742px 114.742px ">va</tspan>ilable places inside public space, keeping a distance of</text>
        <text x="2388.6px" y="114.742px" style="font-family:'Arial-BoldMT', 'Arial', sans-serif;font-weight:700;font-size:89.764px;">2 metres</text>
        <text x="0px" y="207.442px" style="font-family:'ArialMT', 'Arial', sans-serif;font-size:89.764px;">and removing half of places dedicated to movement.</text>
    </g>
    <g transform="matrix(1,0,0,1,-43.2558,-246.222)">
        <text x="41.89px" y="883.906px" style="font-family:'ArialMT', 'Arial', sans-serif;font-size:125.197px;">-10</text>
    </g>
    <g transform="matrix(1,0,0,1,701.26,-246.222)">
        <text x="76.704px" y="883.906px" style="font-family:'ArialMT', 'Arial', sans-serif;font-size:125.197px;">-5</text>
    </g>
    <g transform="matrix(1,0,0,1,1490.7,-246.222)">
        <text x="44.658px" y="883.906px" style="font-family:'ArialMT', 'Arial', sans-serif;font-size:125.197px;">0</text>
    </g>
    <g transform="matrix(1,0,0,1,2947.03,-246.222)">
        <text x="42.547px" y="883.906px" style="font-family:'ArialMT', 'Arial', sans-serif;font-size:125.197px;">10</text>
    </g>
    <g transform="matrix(1,0,0,1,2206.78,-246.222)">
        <text x="77.361px" y="883.906px" style="font-family:'ArialMT', 'Arial', sans-serif;font-size:125.197px;">5</text>
    </g>
    <g transform="matrix(1,0,0,1,3714.08,-246.222)">
        <text x="37.319px" y="883.906px" style="font-family:'ArialMT', 'Arial', sans-serif;font-size:125.197px;">15+</text>
    </g>
</svg>
