<?xml version="1.0" encoding="UTF-8" standalone="no"?>
<!DOCTYPE svg PUBLIC "-//W3C//DTD SVG 1.1//EN" "http://www.w3.org/Graphics/SVG/1.1/DTD/svg11.dtd">
<svg width="100%" height="100%" viewBox="0 0 4489 473" version="1.1" xmlns="http://www.w3.org/2000/svg" xmlns:xlink="http://www.w3.org/1999/xlink" xml:space="preserve" xmlns:serif="http://www.serif.com/" style="fill-rule:evenodd;clip-rule:evenodd;stroke-linejoin:round;stroke-miterlimit:2;">
    <g transform="matrix(0.168142,0,0,0.429568,-5.94993,-92.4253)">
        <rect x="0" y="312.865" width="4448.81" height="382.952" style="fill:rgb(165,15,21);"/>
    </g>
    <g transform="matrix(0.168142,0,0,0.429568,742.082,-92.4253)">
        <rect x="0" y="312.865" width="4448.81" height="382.952" style="fill:rgb(203,24,29);"/>
    </g>
    <g transform="matrix(0.168142,0,0,0.429568,1490.11,-92.4253)">
        <rect x="0" y="312.865" width="4448.81" height="382.952" style="fill:rgb(252,146,114);"/>
    </g>
    <g transform="matrix(0.168142,0,0,0.429568,2238.14,-92.4253)">
        <rect x="0" y="312.865" width="4448.81" height="382.952" style="fill:rgb(252,187,161);"/>
    </g>
    <g transform="matrix(0.168142,0,0,0.429568,2986.18,-92.4253)">
        <rect x="0" y="312.865" width="4448.81" height="382.952" style="fill:rgb(254,229,217);"/>
    </g>
    <g transform="matrix(0.168142,0,0,0.429568,3734.21,-92.4253)">
        <rect x="0" y="312.865" width="4448.81" height="382.952" style="fill:white;"/>
    </g>
    <g transform="matrix(0.160518,0,0,0.69874,747.712,-209.639)">
        <rect x="-48.733" y="339.547" width="77.19" height="341.114"/>
    </g>
    <g transform="matrix(0.247279,0,0,0.69874,1501.59,-209.639)">
        <rect x="-48.733" y="339.547" width="77.19" height="341.114"/>
    </g>
    <g transform="matrix(0.170874,0,0,0.69874,2243.88,-209.639)">
        <rect x="-48.733" y="339.547" width="77.19" height="341.114"/>
    </g>
    <g transform="matrix(0.103709,0,0,0.69874,2991.23,-209.639)">
        <rect x="-48.733" y="339.547" width="77.19" height="341.114"/>
    </g>
    <g transform="matrix(0.103709,0,0,0.69874,3739.26,-209.639)">
        <rect x="-48.733" y="339.547" width="77.19" height="341.114"/>
    </g>
    <g transform="matrix(1,0,0,1,688.378,401.729)">
        <text x="0px" y="0px" style="font-family:'FiraSans-Regular', 'Fira Sans', sans-serif;font-size:125.197px;">-<tspan x="49.202px " y="0px ">5</tspan></text>
    </g>
    <g transform="matrix(1,0,0,1,1463.31,401.431)">
        <text x="0px" y="0px" style="font-family:'FiraSans-Regular', 'Fira Sans', sans-serif;font-size:125.197px;">0</text>
    </g>
    <g transform="matrix(1,0,0,1,2896,407.414)">
        <text x="0px" y="0px" style="font-family:'FiraSans-Regular', 'Fira Sans', sans-serif;font-size:125.197px;">+<tspan x="53.71px " y="0px ">1</tspan>0</text>
    </g>
    <g transform="matrix(1,0,0,1,2173.34,405.744)">
        <text x="0px" y="0px" style="font-family:'FiraSans-Regular', 'Fira Sans', sans-serif;font-size:125.197px;">+<tspan x="61.221px " y="0px ">5</tspan></text>
    </g>
    <g transform="matrix(1,0,0,1,3645.09,407.414)">
        <text x="0px" y="0px" style="font-family:'FiraSans-Regular', 'Fira Sans', sans-serif;font-size:125.197px;">+<tspan x="53.71px " y="0px ">1</tspan>5</text>
    </g>
</svg>
