<?xml version="1.0" encoding="UTF-8" standalone="no"?>
<!-- Created with Inkscape (http://www.inkscape.org/) -->

<svg
   xmlns:dc="http://purl.org/dc/elements/1.1/"
   xmlns:cc="http://creativecommons.org/ns#"
   xmlns:rdf="http://www.w3.org/1999/02/22-rdf-syntax-ns#"
   xmlns:svg="http://www.w3.org/2000/svg"
   xmlns="http://www.w3.org/2000/svg"
   version="1.1"
   width="403.09"
   height="158"
   id="svg2">
  <defs
     id="defs4" />
  <metadata
     id="metadata7">
    <rdf:RDF>
      <cc:Work
         rdf:about="">
        <dc:format>image/svg+xml</dc:format>
        <dc:type
           rdf:resource="http://purl.org/dc/dcmitype/StillImage" />
        <dc:title></dc:title>
      </cc:Work>
    </rdf:RDF>
  </metadata>
  <g
     transform="matrix(0.9810134,0,0,0.9810134,3.8290634,-875.87244)"
     id="layer1">
    <g
       id="g3061">
      <path
         d="m 145.8125,893.78125 a 1.2541717,1.2541717 0 0 0 -0.21875,0.0625 l -11.375,3.5625 a 1.2541717,1.2541717 0 0 0 -0.75,0.65625 1.2541717,1.2541717 0 0 0 -0.0312,0.0937 l -0.0625,0.0937 -61.84375,125.9688 a 1.2541717,1.2541717 0 0 0 0.6875,1.75 L 82.875,1030 a 1.2541717,1.2541717 0 0 0 1.5625,-0.625 l 27.375,-55.75 21.53125,0 0,74.6875 a 1.2541717,1.2541717 0 0 0 0.8125,1.1875 l 11.375,4.3125 a 1.2541717,1.2541717 0 0 0 1.6875,-1.1875 l 0,-146.21875 0,-5.15625 0,-6.21875 a 1.2541717,1.2541717 0 0 0 -1.40625,-1.25 z m -12.46875,36.03125 0,29.9375 -14.71875,0 14.71875,-29.9375 z"
         id="path2993"
         style="fill:#fff;fill-opacity:1;stroke:none" />
      <path
         d="m 157.4375,893.6875 a 1.3315521,1.3315521 0 0 0 -1.34375,1.34375 l 0,157.59375 a 1.3315521,1.3315521 0 0 0 1.34375,1.3438 l 11.375,0 a 1.3315521,1.3315521 0 0 0 1.34375,-1.3438 l 0,-78.90625 25.65625,0 37.625,79.46875 a 1.3315521,1.3315521 0 0 0 1.21875,0.7813 l 12.59375,0 a 1.3315521,1.3315521 0 0 0 1.21875,-1.9063 l -37.09375,-78.34375 3.6875,0 a 1.3315521,1.3315521 0 0 0 0.125,-0.0312 c 0.0439,-7e-5 0.0856,8e-5 0.125,0 a 1.3315521,1.3315521 0 0 0 0.15625,-0.0312 c 19.56531,-0.0796 35.28125,-18.0317 35.28125,-39.96875 0,-21.98578 -15.78031,-40 -35.40625,-40 -0.3507,0 -0.63249,0.0233 -0.875,0.0312 l -0.0312,0 -45.40625,0 -0.125,0 a 1.3315521,1.3315521 0 0 0 -0.0937,-0.0312 l -11.375,0 z m 58.46875,14 a 1.3315521,1.3315521 0 0 0 0.0625,0 c 0.0312,0.002 0.0626,-0.002 0.0937,0 11.86628,0.79026 21.4375,12.0403 21.4375,26 0,14.21079 -9.91941,25.60784 -22.09375,26.03125 a 1.3315521,1.3315521 0 0 0 -0.0312,0 1.3315521,1.3315521 0 0 0 -0.3125,-0.0625 l -2.125,0 0,0.0312 c -0.0886,-0.007 -0.19322,-0.0255 -0.25,-0.0312 a 1.3315521,1.3315521 0 0 0 -0.125,-0.0312 l -8.71875,0 -12.59375,0 a 1.3315521,1.3315521 0 0 0 -0.125,0.0312 l -0.125,0 -20.84375,0 0,-51.90625 45.34375,0 a 1.3315521,1.3315521 0 0 0 0.40625,-0.0625 z"
         id="path2991"
         style="fill:#fff;fill-opacity:1;stroke:none" />
      <path
         d="m 258.71875,893.65625 a 1.3643288,1.3643288 0 0 0 -1.375,1.375 l 0,104.75 0,19.49995 0,33.3438 a 1.3643288,1.3643288 0 0 0 1.875,1.2812 l 11.15625,-4.2812 a 1.3643288,1.3643288 0 0 0 0.875,-1.2812 l 0,-44.2188 21.09375,-29.3125 26.0625,55.0313 a 1.3643288,1.3643288 0 0 0 1.71875,0.6874 l 10.4375,-4 a 1.3643288,1.3643288 0 0 0 0.75,-1.875 L 301.75,961.71875 332.40625,919.0625 a 1.3643288,1.3643288 0 0 0 -0.6875,-2.09375 l -11.375,-3.625 a 1.3643288,1.3643288 0 0 0 -1.5,0.53125 l -25.3125,35.1875 -7.59375,10.5625 -14.6875,20.4375 0,-81.46875 a 1.3643288,1.3643288 0 0 0 -0.96875,-1.3125 l -11.15625,-3.5625 a 1.3643288,1.3643288 0 0 0 -0.40625,-0.0625 z"
         id="path2995"
         style="fill:#fff;fill-opacity:1;stroke:none" />
      <path
         d="m 336.25,918.71875 a 1.1798565,1.1798565 0 0 0 -1.09375,1.1875 l 0,102.93755 a 1.1798565,1.1798565 0 0 0 1.625,1.0937 l 66.875,-25.65625 a 1.1798565,1.1798565 0 0 0 0.75,-1.09375 l 0,-12.125 0,-31.65625 0,-11.9375 0,-0.125 a 1.1798565,1.1798565 0 0 0 -0.8125,-1.125 L 393.5625,937 a 1.1798565,1.1798565 0 0 0 -0.375,-0.0625 l -0.125,0 -39.65625,-12.8125 -5.34375,-1.71875 a 1.1798565,1.1798565 0 0 0 -0.0312,0 l -11.34375,-3.625 a 1.1798565,1.1798565 0 0 0 -0.4375,-0.0625 z m 12.625,18.375 41.65625,13.46875 0,38.125 -41.65625,16.0937 0,-67.68745 z"
         id="path2997"
         style="fill:#fff;fill-opacity:1;stroke:none" />
      <path
         d="m 65.0625,919.65625 a 0.79925756,0.79925756 0 0 0 -0.25,0.0625 l -9.5625,3 a 0.79925756,0.79925756 0 0 0 -0.375,0.25 l -0.96875,1.1875 a 0.79925756,0.79925756 0 0 0 0,0.0312 0.79925756,0.79925756 0 0 0 -0.125,0.15625 L 27.25,956.65625 11.71875,941.09375 8.8125,938.1875 8.5,937.875 A 0.79925756,0.79925756 0 0 0 7.6875,937.6875 L -0.5,940.25 A 0.79925756,0.79925756 0 0 0 -1.0625,941 l 0,5.375 a 0.79925756,0.79925756 0 0 0 0.03125,0.0312 0.79925756,0.79925756 0 0 0 0,0.125 l 0,50.53125 a 0.79925756,0.79925756 0 0 0 0.53125,0.75 l 10.15625,3.875 a 0.79925756,0.79925756 0 0 0 0.28125,0.062 l 1.21875,0 a 0.79925756,0.79925756 0 0 0 0.8125,-0.8125 l 0,-41.21875 13.8125,13.78125 0.8125,0.8125 a 0.79925756,0.79925756 0 0 0 0.03125,0.0312 l 1,0.9375 a 0.79925756,0.79925756 0 0 0 1.15625,-0.0937 l 0.53125,-0.65625 a 0.79925756,0.79925756 0 0 0 0.21875,-0.1875 l 1.40625,-1.71875 22.78125,-27.78125 0,73.03125 a 0.79925756,0.79925756 0 0 0 0.53125,0.75 l 10.34375,3.9375 a 0.79925756,0.79925756 0 0 0 0.28125,0.062 l 1.03125,0 a 0.79925756,0.79925756 0 0 0 0.8125,-0.8125 l 0,-93.09375 0,-4.96875 0,-3.28125 a 0.79925756,0.79925756 0 0 0 -0.8125,-0.8125 l -0.84375,0 z"
         id="path2999"
         style="fill:#fff;fill-opacity:1;stroke:none" />
    </g>
  </g>
</svg>
