<?xml version="1.0" encoding="UTF-8" standalone="no"?>
<!-- Created with Inkscape (http://www.inkscape.org/) -->

<svg
   xmlns:dc="http://purl.org/dc/elements/1.1/"
   xmlns:cc="http://creativecommons.org/ns#"
   xmlns:rdf="http://www.w3.org/1999/02/22-rdf-syntax-ns#"
   xmlns:svg="http://www.w3.org/2000/svg"
   xmlns="http://www.w3.org/2000/svg"
   xmlns:sodipodi="http://sodipodi.sourceforge.net/DTD/sodipodi-0.dtd"
   xmlns:inkscape="http://www.inkscape.org/namespaces/inkscape"
   width="395.09"
   height="158"
   id="svg2"
   version="1.1"
   inkscape:version="0.48.4 r9939"
   sodipodi:docname="logo_bw_simpl.svg">
  <defs
     id="defs4" />
  <sodipodi:namedview
     id="base"
     pagecolor="#ffffff"
     bordercolor="#666666"
     borderopacity="1.0"
     inkscape:pageopacity="0.0"
     inkscape:pageshadow="2"
     inkscape:zoom="2.8"
     inkscape:cx="417.78772"
     inkscape:cy="48.233464"
     inkscape:document-units="px"
     inkscape:current-layer="layer1"
     showgrid="false"
     showguides="true"
     inkscape:guide-bbox="true"
     inkscape:window-width="1920"
     inkscape:window-height="1025"
     inkscape:window-x="0"
     inkscape:window-y="30"
     inkscape:window-maximized="1">
    <sodipodi:guide
       orientation="0,1"
       position="379.31228,246.9823"
       id="guide3764" />
    <sodipodi:guide
       orientation="0,1"
       position="328.30915,89.397322"
       id="guide3766" />
    <sodipodi:guide
       orientation="1,0"
       position="327.7945,154.55334"
       id="guide3768" />
    <sodipodi:guide
       orientation="1,0"
       position="424.76915,160.36172"
       id="guide3772" />
    <sodipodi:guide
       orientation="1,0"
       position="320.97597,166.42263"
       id="guide3774" />
    <sodipodi:guide
       orientation="1,0"
       position="245,163.57143"
       id="guide3776" />
    <sodipodi:guide
       orientation="1,0"
       position="497.85714,132.85714"
       id="guide3778" />
    <sodipodi:guide
       orientation="1,0"
       position="240.89286,193.57143"
       id="guide3780" />
    <sodipodi:guide
       orientation="1,0"
       position="502.42462,158.84649"
       id="guide3782" />
    <sodipodi:guide
       orientation="1,0"
       position="569.28572,164.28571"
       id="guide3784" />
    <sodipodi:guide
       orientation="1,0"
       position="174.75639,170.96832"
       id="guide3786" />
    <sodipodi:guide
       orientation="0,1"
       position="601.04077,175.38774"
       id="guide3788" />
    <sodipodi:guide
       orientation="1,0"
       position="98.571429,135.71429"
       id="guide3790" />
    <sodipodi:guide
       orientation="1,0"
       position="648.57143,75"
       id="guide3792" />
    <sodipodi:guide
       orientation="1,0"
       position="311.8846,169.45309"
       id="guide3796" />
    <sodipodi:guide
       orientation="1,0"
       position="339.15872,150.26019"
       id="guide3798" />
    <sodipodi:guide
       orientation="0,1"
       position="348.11593,235.6023"
       id="guide3841" />
    <sodipodi:guide
       orientation="0,1"
       position="374.35268,181.04911"
       id="guide3843" />
    <sodipodi:guide
       orientation="0,1"
       position="569.28572,201.02036"
       id="guide4013" />
    <sodipodi:guide
       orientation="0,1"
       position="569.28572,144.95689"
       id="guide4015" />
    <sodipodi:guide
       orientation="1,0"
       position="160.10918,201.02036"
       id="guide4041" />
    <sodipodi:guide
       orientation="0,1"
       position="359.28571,261.78571"
       id="guide4043" />
    <sodipodi:guide
       orientation="0,1"
       position="385,75"
       id="guide4045" />
    <sodipodi:guide
       orientation="1,0"
       position="426.91964,260.89286"
       id="guide4047" />
    <sodipodi:guide
       orientation="1,0"
       position="320.97597,261.78571"
       id="guide4049" />
    <sodipodi:guide
       orientation="1,0"
       position="318.54911,261.78571"
       id="guide4051" />
    <sodipodi:guide
       orientation="0,1"
       position="185.35714,212.67857"
       id="guide4053" />
    <sodipodi:guide
       orientation="0,1"
       position="197.85714,133.03571"
       id="guide4055" />
    <sodipodi:guide
       orientation="1,0"
       position="584.64286,196.42857"
       id="guide4057" />
    <sodipodi:guide
       orientation="1,0"
       position="428.84132,265.22818"
       id="guide4063" />
    <sodipodi:guide
       orientation="1,0"
       position="591.19178,221.72848"
       id="guide4065" />
    <sodipodi:guide
       orientation="0,1"
       position="593.03572,216.96429"
       id="guide4067" />
    <sodipodi:guide
       orientation="0,1"
       position="592.77014,127.84743"
       id="guide4071" />
    <sodipodi:guide
       orientation="0,1"
       position="306.83384,69.06918"
       id="guide4073" />
    <sodipodi:guide
       orientation="1,0"
       position="316.20536,66.607143"
       id="guide4077" />
    <sodipodi:guide
       orientation="1,0"
       position="154.15179,123.16964"
       id="guide4079" />
    <sodipodi:guide
       position="0,0"
       orientation="0,744.09448"
       id="guide3019" />
    <sodipodi:guide
       position="744.09448,0"
       orientation="-332,0"
       id="guide3021" />
    <sodipodi:guide
       position="744.09448,332"
       orientation="0,-744.09448"
       id="guide3023" />
    <sodipodi:guide
       position="0,332"
       orientation="332,0"
       id="guide3025" />
  </sodipodi:namedview>
  <metadata
     id="metadata7">
    <rdf:RDF>
      <cc:Work
         rdf:about="">
        <dc:format>image/svg+xml</dc:format>
        <dc:type
           rdf:resource="http://purl.org/dc/dcmitype/StillImage" />
        <dc:title></dc:title>
      </cc:Work>
    </rdf:RDF>
  </metadata>
  <g
     inkscape:label="Layer 1"
     inkscape:groupmode="layer"
     id="layer1"
     transform="translate(0,-894.36218)">
    <path
       style="fill:#ffffff;fill-opacity:1;stroke:none"
       d="m 146.68304,895.01786 -11.375,3.5625 0,0.0312 -61.9375,126.15634 10.65625,4.0312 27.71875,-56.43754 23.5625,0 0,75.93754 11.375,4.3125 0,-146.21879 0,-5.15625 0,-6.21875 z m 6.8125,0 0,157.59384 11.375,0 0,-80.25009 27.84375,0 38,80.25009 12.59375,0 -38,-80.25009 5.8125,0 0,-0.0312 c 0.0945,8.7e-4 0.18661,0 0.28125,0 18.80934,0 34.0625,-17.30455 34.0625,-38.65625 0,-21.35169 -15.25316,-38.65625 -34.0625,-38.65625 -0.2939,0 -0.58289,0.0228 -0.875,0.0312 l -45.65625,0 0,-0.0312 -11.375,0 z m 97,0 0,104.75 0,19.50004 0,33.3438 11.15625,-4.2813 0,-44.5937 22.71875,-31.59384 27.03125,57.09384 10.4375,-4 -29.90625,-63.62509 31.15625,-43.34375 -11.375,-3.625 -25.3125,35.1875 -7.59375,10.5625 -17.15625,23.875 0,-85.6875 -11.15625,-3.5625 z m -38.9375,11.3125 c 0.15656,0.005 0.31473,-0.009 0.46875,0 l 0.0937,0 c 12.69665,0.78586 22.78125,12.73467 22.78125,27.34375 0,14.98764 -10.62174,27.19782 -23.78125,27.40625 l 0,-0.0937 -2.125,0 c -0.12233,-0.011 -0.25342,-0.019 -0.375,-0.0312 l -8.71875,0 -12.59375,0 c 0.005,0.005 -0.005,0.0257 0,0.0312 l -22.4375,0 0,-54.59375 46.6875,0 0,-0.0625 z m 116.5625,13.5625 0,102.93754 66.875,-25.65629 0,-12.125 0,-31.65625 0,-11.9375 0,-0.125 -10.03125,-3.21875 -0.3125,0 -39.84375,-12.875 -5.34375,-1.71875 -11.34375,-3.625 z m -262.34375,0.5625 -9.5625,3 -0.96875,1.1875 0,0.0312 -27.218754,33.1563 -16.15625,-16.1875 -2.9062496,-2.90625 -0.3125004,-0.3125 -8.18749997,2.5625 0,5.375 0.0312,0.0312 0,50.65625 10.15624997,3.87504 1.21875,0 0,-43.15629 15.1875,15.15625 0.8125,0.8125 1,0.9375 0.71875,-0.875 0.0312,0.0312 1.40625,-1.71875 24.218754,-29.53125 0,75.28134 10.34375,3.9375 1.03125,0 0,-93.09384 0,-4.96875 0,-3.28125 -0.84375,0 z m 69.53125,3.9375 0,36.59375 -17.96875,0 17.96875,-36.59375 z m 204.15625,11.0625 44.03125,14.21875 0,39.8125 -44.03125,17.00009 0,-71.03134 z"
       id="path4009"
       inkscape:connector-curvature="0" />
  </g>
</svg>
