<?xml version="1.0" encoding="UTF-8" standalone="no"?><!DOCTYPE svg PUBLIC "-//W3C//DTD SVG 1.1//EN" "http://www.w3.org/Graphics/SVG/1.1/DTD/svg11.dtd"><svg width="100%" height="100%" viewBox="0 0 450 50" version="1.1" xmlns="http://www.w3.org/2000/svg" xmlns:xlink="http://www.w3.org/1999/xlink" xml:space="preserve" style="fill-rule:evenodd;clip-rule:evenodd;stroke-linecap:round;stroke-linejoin:round;stroke-miterlimit:1.5;"><rect x="10" y="7" width="430" height="36" style="fill:none;stroke:#5b2d2d;stroke-width:5px;"/><rect x="10" y="7" width="430" height="36" style="fill:#5b2d2d;"/><g><path d="M88,34.992l7.67,-19.971l2.847,0l8.174,19.971l-3.011,0l-2.33,-6.048l-8.35,0l-2.194,6.048l-2.806,0Zm5.762,-8.201l6.771,0l-2.084,-5.53c-0.636,-1.681 -1.108,-3.061 -1.417,-4.142c-0.254,1.281 -0.613,2.552 -1.076,3.815l-2.194,5.857Z" style="fill:#e6e6e6;fill-rule:nonzero;stroke:#e6e6e6;stroke-width:2px;stroke-linecap:butt;stroke-miterlimit:1.41421;"/><path d="M114.273,34.992l0,-19.971l7.493,0c1.525,0 2.749,0.202 3.671,0.606c0.922,0.405 1.644,1.027 2.166,1.867c0.522,0.84 0.783,1.719 0.783,2.636c0,0.854 -0.231,1.657 -0.694,2.411c-0.464,0.754 -1.163,1.362 -2.098,1.826c1.208,0.354 2.136,0.958 2.786,1.811c0.649,0.854 0.974,1.862 0.974,3.025c0,0.935 -0.198,1.805 -0.593,2.608c-0.395,0.804 -0.883,1.424 -1.464,1.86c-0.582,0.436 -1.31,0.765 -2.187,0.988c-0.876,0.222 -1.95,0.333 -3.222,0.333l-7.615,0Zm2.643,-11.579l4.318,0c1.172,0 2.012,-0.077 2.521,-0.232c0.672,-0.199 1.178,-0.531 1.519,-0.994c0.34,-0.463 0.51,-1.045 0.51,-1.744c0,-0.663 -0.158,-1.246 -0.476,-1.75c-0.318,-0.504 -0.772,-0.85 -1.363,-1.036c-0.59,-0.186 -1.603,-0.279 -3.038,-0.279l-3.991,0l0,6.035Zm0,9.223l4.972,0c0.854,0 1.453,-0.032 1.799,-0.096c0.608,-0.109 1.117,-0.29 1.525,-0.545c0.409,-0.254 0.745,-0.624 1.008,-1.11c0.264,-0.486 0.395,-1.047 0.395,-1.682c0,-0.745 -0.19,-1.392 -0.572,-1.942c-0.381,-0.549 -0.91,-0.935 -1.587,-1.158c-0.676,-0.222 -1.65,-0.333 -2.922,-0.333l-4.618,0l0,6.866Z" style="fill:#e6e6e6;fill-rule:nonzero;stroke:#e6e6e6;stroke-width:2px;stroke-linecap:butt;stroke-miterlimit:1.41421;"/><path d="M137.767,25.266c0,-3.315 0.89,-5.91 2.67,-7.786c1.78,-1.875 4.078,-2.813 6.893,-2.813c1.844,0 3.506,0.441 4.986,1.321c1.481,0.881 2.609,2.11 3.386,3.685c0.776,1.576 1.164,3.363 1.164,5.361c0,2.025 -0.408,3.837 -1.226,5.436c-0.817,1.598 -1.975,2.808 -3.473,3.63c-1.499,0.822 -3.116,1.233 -4.85,1.233c-1.88,0 -3.56,-0.454 -5.041,-1.362c-1.48,-0.909 -2.602,-2.148 -3.365,-3.719c-0.762,-1.572 -1.144,-3.234 -1.144,-4.986Zm2.725,0.041c0,2.406 0.647,4.302 1.941,5.687c1.294,1.385 2.918,2.078 4.87,2.078c1.989,0 3.626,-0.7 4.911,-2.098c1.285,-1.399 1.928,-3.383 1.928,-5.954c0,-1.625 -0.275,-3.044 -0.824,-4.257c-0.55,-1.212 -1.354,-2.152 -2.412,-2.82c-1.058,-0.667 -2.245,-1.001 -3.562,-1.001c-1.871,0 -3.481,0.643 -4.829,1.928c-1.349,1.285 -2.023,3.43 -2.023,6.437Z" style="fill:#e6e6e6;fill-rule:nonzero;stroke:#e6e6e6;stroke-width:2px;stroke-linecap:butt;stroke-miterlimit:1.41421;"/><path d="M178.957,15.021l2.643,0l0,11.539c0,2.007 -0.227,3.601 -0.681,4.781c-0.454,1.181 -1.274,2.142 -2.459,2.882c-1.185,0.74 -2.74,1.11 -4.666,1.11c-1.871,0 -3.401,-0.322 -4.591,-0.967c-1.189,-0.645 -2.039,-1.578 -2.547,-2.8c-0.509,-1.221 -0.763,-2.89 -0.763,-5.006l0,-11.539l2.643,0l0,11.525c0,1.735 0.161,3.013 0.483,3.835c0.323,0.822 0.877,1.455 1.662,1.9c0.786,0.445 1.746,0.668 2.882,0.668c1.943,0 3.328,-0.441 4.155,-1.321c0.826,-0.881 1.239,-2.575 1.239,-5.082l0,-11.525Z" style="fill:#e6e6e6;fill-rule:nonzero;stroke:#e6e6e6;stroke-width:2px;stroke-linecap:butt;stroke-miterlimit:1.41421;"/><path d="M196.662,34.992l0,-17.614l-6.58,0l0,-2.357l15.83,0l0,2.357l-6.608,0l0,17.614l-2.642,0Z" style="fill:#e6e6e6;fill-rule:nonzero;stroke:#e6e6e6;stroke-width:2px;stroke-linecap:butt;stroke-miterlimit:1.41421;"/><path d="M226.948,34.992l0,-19.971l3.978,0l4.727,14.141c0.436,1.317 0.754,2.302 0.954,2.956c0.227,-0.727 0.581,-1.794 1.062,-3.201l4.782,-13.896l3.556,0l0,19.971l-2.548,0l0,-16.715l-5.803,16.715l-2.384,0l-5.776,-17.001l0,17.001l-2.548,0Z" style="fill:#e6e6e6;fill-rule:nonzero;stroke:#e6e6e6;stroke-width:2px;stroke-linecap:butt;stroke-miterlimit:1.41421;"/><path d="M255.905,34.992l0,-19.971l14.44,0l0,2.357l-11.797,0l0,6.117l11.048,0l0,2.343l-11.048,0l0,6.798l12.26,0l0,2.356l-14.903,0Z" style="fill:#e6e6e6;fill-rule:nonzero;stroke:#e6e6e6;stroke-width:2px;stroke-linecap:butt;stroke-miterlimit:1.41421;"/><path d="M291.218,35.333l5.79,-20.652l1.962,0l-5.777,20.652l-1.975,0Z" style="fill:#e6e6e6;fill-rule:nonzero;stroke:#e6e6e6;stroke-width:2px;stroke-linecap:butt;stroke-miterlimit:1.41421;"/><path d="M334.283,27.99l2.643,0.668c-0.554,2.17 -1.551,3.826 -2.991,4.965c-1.439,1.14 -3.199,1.71 -5.278,1.71c-2.153,0 -3.903,-0.438 -5.252,-1.315c-1.349,-0.876 -2.375,-2.145 -3.079,-3.807c-0.704,-1.662 -1.056,-3.447 -1.056,-5.354c0,-2.08 0.398,-3.894 1.192,-5.442c0.795,-1.549 1.926,-2.725 3.393,-3.529c1.466,-0.803 3.081,-1.205 4.842,-1.205c1.998,0 3.679,0.508 5.041,1.525c1.362,1.018 2.311,2.448 2.847,4.292l-2.602,0.613c-0.463,-1.453 -1.135,-2.511 -2.016,-3.174c-0.881,-0.663 -1.989,-0.995 -3.324,-0.995c-1.535,0 -2.818,0.368 -3.848,1.104c-1.031,0.735 -1.756,1.723 -2.173,2.962c-0.418,1.24 -0.627,2.518 -0.627,3.835c0,1.699 0.247,3.181 0.742,4.448c0.495,1.267 1.265,2.214 2.31,2.841c1.044,0.626 2.175,0.94 3.392,0.94c1.48,0 2.733,-0.427 3.76,-1.281c1.026,-0.854 1.721,-2.121 2.084,-3.801Z" style="fill:#e6e6e6;fill-rule:nonzero;stroke:#e6e6e6;stroke-width:2px;stroke-linecap:butt;stroke-miterlimit:1.41421;"/><path d="M351.47,34.992l-7.738,-19.971l2.861,0l5.19,14.509c0.418,1.162 0.767,2.252 1.049,3.269c0.309,-1.09 0.667,-2.18 1.076,-3.269l5.395,-14.509l2.697,0l-7.82,19.971l-2.71,0Z" style="fill:#e6e6e6;fill-rule:nonzero;stroke:#e6e6e6;stroke-width:2px;stroke-linecap:butt;stroke-miterlimit:1.41421;"/></g></svg>