<?xml version="1.0" encoding="UTF-8" standalone="no"?><!DOCTYPE svg PUBLIC "-//W3C//DTD SVG 1.1//EN" "http://www.w3.org/Graphics/SVG/1.1/DTD/svg11.dtd"><svg width="100%" height="100%" viewBox="0 0 450 55" version="1.1" xmlns="http://www.w3.org/2000/svg" xmlns:xlink="http://www.w3.org/1999/xlink" xml:space="preserve" style="fill-rule:evenodd;clip-rule:evenodd;stroke-linejoin:round;stroke-miterlimit:1.41421;"><path id="path2993" d="M211.223,7.758c-0.018,0.003 -0.036,0.008 -0.054,0.015l-2.805,0.879c-0.081,0.026 -0.148,0.084 -0.185,0.161c-0.003,0.008 -0.005,0.016 -0.008,0.024l-0.015,0.023l-15.252,31.067c-0.023,0.044 -0.034,0.092 -0.034,0.141c0,0.13 0.081,0.246 0.203,0.291l2.628,0.994c0.148,0.055 0.316,-0.012 0.386,-0.154l6.751,-13.75l5.31,0l0,18.42c-0.001,0.13 0.079,0.247 0.201,0.293l2.805,1.064c0.034,0.012 0.07,0.019 0.107,0.019c0.17,0 0.309,-0.14 0.309,-0.31c0,0 0,-0.001 0,-0.002l0,-36.062l0,-1.271l0,-1.534c0,0 0,-0.001 0,-0.001c0,-0.17 -0.139,-0.31 -0.309,-0.31c-0.013,0 -0.025,0.001 -0.038,0.003l0,0Zm-3.075,8.886l0,7.383l-3.63,0l3.63,-7.383Z" style="fill:#5b2d2d;fill-rule:nonzero;"/><path id="path2991" d="M214.09,7.734c-0.001,0 -0.002,0 -0.003,0c-0.18,0 -0.328,0.149 -0.328,0.329l0,38.873c0,0.18 0.148,0.328 0.328,0.328l2.812,0c0.18,0 0.328,-0.148 0.328,-0.328c0,-0.001 0,-0.002 0,-0.003l0,-19.461l6.328,0l9.279,19.6c0.054,0.117 0.172,0.193 0.301,0.192l3.11,0c0.18,0 0.329,-0.148 0.329,-0.328c0,-0.049 -0.011,-0.098 -0.033,-0.142l-9.148,-19.322l0.909,0c0.011,-0.002 0.021,-0.004 0.031,-0.007c0.011,0 0.021,0 0.031,0c0.013,-0.002 0.026,-0.005 0.039,-0.008c4.825,-0.02 8.701,-4.447 8.701,-9.857c0,-5.423 -3.892,-9.866 -8.732,-9.866c-0.087,0 -0.156,0.006 -0.216,0.008l-0.008,0l-11.198,0l-0.031,0c-0.008,-0.003 -0.015,-0.005 -0.023,-0.008l-2.806,0l0,0Zm14.421,3.453c0.005,0 0.01,0 0.015,0c0.008,0.001 0.015,0 0.023,0c2.927,0.195 5.287,2.97 5.287,6.413c0,3.504 -2.446,6.315 -5.449,6.42c-0.002,-0.001 -0.005,-0.001 -0.007,0c-0.026,-0.009 -0.051,-0.014 -0.078,-0.016l-0.524,0l0,0.008c-0.021,-0.002 -0.047,-0.006 -0.061,-0.008c-0.01,-0.003 -0.021,-0.005 -0.031,-0.007l-2.15,0l-3.106,0c-0.011,0.002 -0.021,0.004 -0.031,0.007l-0.031,0l-5.141,0l0,-12.801l11.183,0c0.034,0 0.068,-0.006 0.101,-0.016l0,0Z" style="fill:#5b2d2d;fill-rule:nonzero;"/><path id="path2995" d="M239.069,7.727c-0.001,0 -0.001,0 -0.002,0c-0.185,0 -0.337,0.151 -0.337,0.336l0,38.874c0,0.185 0.152,0.336 0.337,0.336c0.043,0 0.086,-0.008 0.126,-0.024l2.751,-1.056c0.13,-0.05 0.217,-0.176 0.216,-0.316l0,-10.905l5.202,-7.23l6.428,13.572c0.075,0.158 0.261,0.232 0.424,0.17l2.574,-0.987c0.131,-0.048 0.219,-0.175 0.219,-0.315c0,-0.051 -0.012,-0.101 -0.034,-0.147l-7.291,-15.522l7.561,-10.52c0.041,-0.057 0.063,-0.126 0.063,-0.197c0,-0.145 -0.094,-0.275 -0.233,-0.32l-2.805,-0.894c-0.139,-0.04 -0.288,0.013 -0.37,0.131l-6.243,8.679l-1.873,2.605l-3.622,5.04l0,-20.093c0.001,-0.148 -0.097,-0.28 -0.239,-0.323l-2.752,-0.879c-0.032,-0.01 -0.066,-0.015 -0.1,-0.015l0,0Z" style="fill:#5b2d2d;fill-rule:nonzero;"/><path id="path2997" d="M258.191,13.908c-0.153,0.011 -0.271,0.14 -0.27,0.293l0,25.387c0,0.16 0.131,0.291 0.291,0.291c0.038,0 0.075,-0.007 0.11,-0.021l16.493,-6.328c0.111,-0.043 0.184,-0.15 0.185,-0.27l0,-2.99l0,-7.807l0,-2.944l0,-0.031c0.001,-0.126 -0.081,-0.238 -0.2,-0.278l-2.474,-0.794c-0.03,-0.01 -0.062,-0.015 -0.093,-0.015l-0.031,0l-9.78,-3.16l-1.318,-0.424c-0.002,0 -0.005,0 -0.008,0l-2.797,-0.894c-0.035,-0.012 -0.072,-0.017 -0.108,-0.015l0,0Zm3.113,4.532l10.274,3.321l0,9.403l-10.274,3.969l0,-16.693Z" style="fill:#5b2d2d;fill-rule:nonzero;"/><path id="path2999" d="M191.308,14.139c-0.021,0.002 -0.042,0.007 -0.061,0.015l-2.359,0.74c-0.036,0.012 -0.068,0.033 -0.092,0.062l-0.239,0.293c0,0.002 0,0.005 0,0.008c-0.012,0.011 -0.023,0.024 -0.031,0.038l-6.543,7.969l-3.831,-3.838l-0.717,-0.717l-0.077,-0.077c-0.052,-0.051 -0.13,-0.069 -0.2,-0.046l-2.019,0.632c-0.081,0.025 -0.138,0.1 -0.139,0.185l0,1.326c0.003,0.002 0.005,0.005 0.008,0.007c-0.001,0.011 -0.001,0.021 0,0.031l0,12.463c0,0.083 0.053,0.157 0.131,0.185l2.504,0.955c0.023,0.009 0.046,0.015 0.07,0.016l0.304,0c0.108,0 0.197,-0.089 0.197,-0.198c0,-0.001 0,-0.002 0,-0.003l0,-10.166l3.406,3.399l0.201,0.201c0.002,0.002 0.005,0.005 0.008,0.007l0.246,0.232c0.036,0.032 0.083,0.05 0.132,0.05c0.059,0 0.116,-0.027 0.153,-0.074l0.131,-0.161c0.021,-0.012 0.039,-0.028 0.054,-0.047l0.347,-0.424l5.619,-6.851l0,18.011c0,0.083 0.052,0.158 0.131,0.185l2.551,0.972c0.022,0.009 0.045,0.014 0.069,0.015l0.258,0c0.108,0 0.197,-0.089 0.197,-0.197c0,-0.001 0,-0.002 0,-0.004l0,-22.959l0,-1.225l0,-0.81c0,-0.001 0,-0.002 0,-0.003c0,-0.108 -0.089,-0.197 -0.197,-0.197c-0.001,0 -0.003,0 -0.004,0l-0.208,0l0,0Z" style="fill:#5b2d2d;fill-rule:nonzero;"/><g><path d="M12.67,28.837c0,-0.301 -0.107,-0.535 -0.319,-0.703c-0.213,-0.168 -0.587,-0.342 -1.122,-0.521c-0.536,-0.18 -0.973,-0.354 -1.313,-0.522c-1.105,-0.543 -1.658,-1.289 -1.658,-2.238c0,-0.473 0.138,-0.89 0.413,-1.251c0.275,-0.361 0.665,-0.643 1.169,-0.844c0.504,-0.201 1.07,-0.302 1.699,-0.302c0.613,0 1.163,0.11 1.649,0.329c0.487,0.218 0.865,0.53 1.134,0.934c0.27,0.404 0.405,0.866 0.405,1.386l-2.051,0c0,-0.348 -0.107,-0.617 -0.32,-0.809c-0.212,-0.191 -0.501,-0.287 -0.864,-0.287c-0.367,0 -0.657,0.081 -0.87,0.243c-0.213,0.162 -0.319,0.368 -0.319,0.618c0,0.219 0.117,0.417 0.351,0.595c0.235,0.178 0.647,0.362 1.237,0.551c0.589,0.189 1.074,0.394 1.453,0.612c0.922,0.532 1.383,1.264 1.383,2.198c0,0.746 -0.282,1.332 -0.844,1.757c-0.563,0.426 -1.334,0.639 -2.315,0.639c-0.691,0 -1.317,-0.124 -1.878,-0.372c-0.56,-0.248 -0.982,-0.588 -1.265,-1.02c-0.283,-0.431 -0.425,-0.928 -0.425,-1.491l2.063,0c0,0.457 0.118,0.794 0.354,1.011c0.236,0.217 0.62,0.325 1.151,0.325c0.34,0 0.609,-0.073 0.806,-0.22c0.197,-0.146 0.296,-0.352 0.296,-0.618Z" style="fill:#5b2d2d;fill-rule:nonzero;"/><path d="M21.912,27.49l-3.234,0l0,2.033l3.82,0l0,1.582l-5.877,0l0,-8.531l5.889,0l0,1.587l-3.832,0l0,1.799l3.234,0l0,1.53Z" style="fill:#5b2d2d;fill-rule:nonzero;"/><path d="M26.233,29.523l3.58,0l0,1.582l-5.637,0l0,-8.531l2.057,0l0,6.949Z" style="fill:#5b2d2d;fill-rule:nonzero;"/><path d="M36.893,27.706l-3.316,0l0,3.399l-2.057,0l0,-8.531l5.707,0l0,1.587l-3.65,0l0,1.963l3.316,0l0,1.582Z" style="fill:#5b2d2d;fill-rule:nonzero;"/><path d="M49.096,24.161l-2.56,0l0,6.944l-2.057,0l0,-6.944l-2.513,0l0,-1.587l7.13,0l0,1.587Z" style="fill:#5b2d2d;fill-rule:nonzero;"/><path d="M54.946,29.511l-2.818,0l-0.492,1.594l-2.198,0l3.129,-8.531l1.934,0l3.152,8.531l-2.209,0l-0.498,-1.594Zm-2.326,-1.588l1.834,0l-0.92,-2.959l-0.914,2.959Z" style="fill:#5b2d2d;fill-rule:nonzero;"/><path d="M65.706,22.574l0,5.584c0,0.632 -0.135,1.18 -0.404,1.643c-0.27,0.463 -0.656,0.816 -1.16,1.058c-0.504,0.242 -1.1,0.363 -1.787,0.363c-1.039,0 -1.858,-0.269 -2.455,-0.809c-0.598,-0.539 -0.903,-1.277 -0.915,-2.214l0,-5.625l2.069,0l0,5.666c0.023,0.933 0.457,1.4 1.301,1.4c0.425,0 0.748,-0.117 0.966,-0.352c0.219,-0.234 0.329,-0.615 0.329,-1.142l0,-5.572l2.056,0Z" style="fill:#5b2d2d;fill-rule:nonzero;"/><path d="M74.814,30.05c-0.317,0.352 -0.78,0.635 -1.389,0.85c-0.609,0.215 -1.277,0.322 -2.004,0.322c-1.117,0 -2.01,-0.342 -2.678,-1.025c-0.668,-0.684 -1.025,-1.635 -1.072,-2.854l-0.006,-0.738c0,-0.84 0.149,-1.573 0.446,-2.2c0.297,-0.627 0.721,-1.11 1.274,-1.448c0.553,-0.337 1.192,-0.506 1.919,-0.506c1.062,0 1.888,0.243 2.476,0.729c0.587,0.486 0.93,1.212 1.028,2.177l-1.981,0c-0.07,-0.477 -0.222,-0.817 -0.457,-1.02c-0.234,-0.203 -0.566,-0.304 -0.996,-0.304c-0.515,0 -0.914,0.218 -1.195,0.656c-0.281,0.437 -0.424,1.062 -0.428,1.875l0,0.515c0,0.852 0.146,1.492 0.437,1.919c0.291,0.428 0.749,0.642 1.374,0.642c0.535,0 0.933,-0.119 1.195,-0.357l0,-1.325l-1.43,0l0,-1.412l3.487,0l0,3.504Z" style="fill:#5b2d2d;fill-rule:nonzero;"/><path d="M83.98,31.105l-2.045,0l0,-3.563l-3.029,0l0,3.563l-2.057,0l0,-8.531l2.057,0l0,3.386l3.029,0l0,-3.386l2.045,0l0,8.531Z" style="fill:#5b2d2d;fill-rule:nonzero;"/><path d="M92.648,24.161l-2.56,0l0,6.944l-2.057,0l0,-6.944l-2.514,0l0,-1.587l7.131,0l0,1.587Z" style="fill:#5b2d2d;fill-rule:nonzero;"/><path d="M99.514,26.013l0.931,0c0.739,0 1.108,-0.361 1.108,-1.084c0,-0.281 -0.088,-0.511 -0.264,-0.688c-0.176,-0.178 -0.424,-0.267 -0.744,-0.267c-0.262,0 -0.489,0.076 -0.683,0.229c-0.193,0.152 -0.29,0.341 -0.29,0.568l-1.974,0c0,-0.449 0.125,-0.85 0.375,-1.201c0.25,-0.352 0.596,-0.626 1.04,-0.824c0.443,-0.197 0.93,-0.295 1.462,-0.295c0.949,0 1.695,0.216 2.238,0.65c0.543,0.434 0.814,1.029 0.814,1.787c0,0.367 -0.112,0.714 -0.337,1.04c-0.224,0.326 -0.551,0.591 -0.981,0.794c0.453,0.164 0.809,0.413 1.066,0.747c0.258,0.334 0.387,0.747 0.387,1.239c0,0.762 -0.293,1.371 -0.879,1.828c-0.586,0.458 -1.355,0.686 -2.308,0.686c-0.559,0 -1.078,-0.106 -1.556,-0.319c-0.479,-0.213 -0.841,-0.508 -1.087,-0.885c-0.246,-0.377 -0.369,-0.806 -0.369,-1.286l1.986,0c0,0.262 0.106,0.488 0.317,0.679c0.21,0.192 0.47,0.288 0.779,0.288c0.348,0 0.625,-0.097 0.832,-0.29c0.207,-0.194 0.31,-0.441 0.31,-0.742c0,-0.429 -0.107,-0.734 -0.322,-0.914c-0.215,-0.179 -0.512,-0.269 -0.89,-0.269l-0.961,0l0,-1.471Z" style="fill:#5b2d2d;fill-rule:nonzero;"/><path d="M105.621,31.105l0,-8.531l2.748,0c0.754,0 1.432,0.171 2.033,0.512c0.602,0.342 1.072,0.825 1.41,1.448c0.337,0.623 0.508,1.321 0.512,2.094l0,0.393c0,0.781 -0.165,1.481 -0.495,2.1c-0.33,0.62 -0.795,1.104 -1.394,1.454c-0.6,0.349 -1.269,0.526 -2.007,0.53l-2.807,0Zm2.057,-6.944l0,5.362l0.715,0c0.59,0 1.043,-0.21 1.359,-0.63c0.316,-0.42 0.475,-1.044 0.475,-1.872l0,-0.369c0,-0.824 -0.159,-1.446 -0.475,-1.864c-0.316,-0.418 -0.777,-0.627 -1.383,-0.627l-0.691,0Z" style="fill:#5b2d2d;fill-rule:nonzero;"/><path d="M122.893,29.511l-2.818,0l-0.493,1.594l-2.197,0l3.129,-8.531l1.934,0l3.152,8.531l-2.209,0l-0.498,-1.594Zm-2.326,-1.588l1.834,0l-0.92,-2.959l-0.914,2.959Z" style="fill:#5b2d2d;fill-rule:nonzero;"/><path d="M130.231,28.093l-1.113,0l0,3.012l-2.057,0l0,-8.531l3.358,0c1.011,0 1.802,0.224 2.373,0.673c0.57,0.45 0.855,1.084 0.855,1.905c0,0.593 -0.12,1.086 -0.36,1.476c-0.241,0.391 -0.617,0.707 -1.128,0.95l1.781,3.439l0,0.088l-2.203,0l-1.506,-3.012Zm-1.113,-1.588l1.301,0c0.39,0 0.684,-0.102 0.881,-0.307c0.198,-0.205 0.296,-0.492 0.296,-0.859c0,-0.367 -0.099,-0.655 -0.299,-0.864c-0.199,-0.209 -0.492,-0.314 -0.878,-0.314l-1.301,0l0,2.344Z" style="fill:#5b2d2d;fill-rule:nonzero;"/><path d="M142.134,24.161l-2.561,0l0,6.944l-2.057,0l0,-6.944l-2.513,0l0,-1.587l7.131,0l0,1.587Z" style="fill:#5b2d2d;fill-rule:nonzero;"/><rect x="143.981" y="22.574" width="2.051" height="8.531" style="fill:#5b2d2d;fill-rule:nonzero;"/><path d="M152.702,28.837c0,-0.301 -0.106,-0.535 -0.319,-0.703c-0.213,-0.168 -0.587,-0.342 -1.122,-0.521c-0.535,-0.18 -0.973,-0.354 -1.313,-0.522c-1.105,-0.543 -1.658,-1.289 -1.658,-2.238c0,-0.473 0.138,-0.89 0.413,-1.251c0.276,-0.361 0.665,-0.643 1.169,-0.844c0.504,-0.201 1.07,-0.302 1.699,-0.302c0.614,0 1.163,0.11 1.65,0.329c0.486,0.218 0.864,0.53 1.134,0.934c0.269,0.404 0.404,0.866 0.404,1.386l-2.051,0c0,-0.348 -0.106,-0.617 -0.319,-0.809c-0.213,-0.191 -0.501,-0.287 -0.865,-0.287c-0.367,0 -0.657,0.081 -0.87,0.243c-0.213,0.162 -0.319,0.368 -0.319,0.618c0,0.219 0.117,0.417 0.352,0.595c0.234,0.178 0.646,0.362 1.236,0.551c0.59,0.189 1.074,0.394 1.453,0.612c0.922,0.532 1.383,1.264 1.383,2.198c0,0.746 -0.281,1.332 -0.844,1.757c-0.562,0.426 -1.334,0.639 -2.314,0.639c-0.692,0 -1.318,-0.124 -1.878,-0.372c-0.561,-0.248 -0.983,-0.588 -1.266,-1.02c-0.283,-0.431 -0.425,-0.928 -0.425,-1.491l2.063,0c0,0.457 0.118,0.794 0.354,1.011c0.237,0.217 0.62,0.325 1.152,0.325c0.339,0 0.608,-0.073 0.805,-0.22c0.198,-0.146 0.296,-0.352 0.296,-0.618Z" style="fill:#5b2d2d;fill-rule:nonzero;"/><path d="M163.351,24.161l-2.561,0l0,6.944l-2.056,0l0,-6.944l-2.514,0l0,-1.587l7.131,0l0,1.587Z" style="fill:#5b2d2d;fill-rule:nonzero;"/></g><g><path d="M288,31.105l0,-8.531l3.064,0c1.098,0 1.933,0.201 2.505,0.603c0.573,0.402 0.859,0.986 0.859,1.752c0,0.441 -0.102,0.818 -0.305,1.131c-0.203,0.312 -0.502,0.543 -0.896,0.691c0.445,0.118 0.787,0.336 1.025,0.657c0.238,0.32 0.357,0.711 0.357,1.171c0,0.836 -0.264,1.464 -0.794,1.884c-0.529,0.42 -1.313,0.634 -2.352,0.642l-3.463,0Zm2.057,-3.627l0,2.045l1.347,0c0.371,0 0.657,-0.085 0.856,-0.255c0.199,-0.17 0.299,-0.409 0.299,-0.718c0,-0.711 -0.354,-1.068 -1.061,-1.072l-1.441,0Zm0,-1.348l1.072,0c0.449,-0.004 0.769,-0.086 0.961,-0.246c0.191,-0.16 0.287,-0.396 0.287,-0.709c0,-0.359 -0.104,-0.618 -0.311,-0.776c-0.207,-0.158 -0.541,-0.238 -1.002,-0.238l-1.007,0l0,1.969Z" style="fill:#5b2d2d;fill-rule:nonzero;"/><path d="M301.426,29.511l-2.818,0l-0.493,1.594l-2.197,0l3.129,-8.531l1.934,0l3.152,8.531l-2.209,0l-0.498,-1.594Zm-2.326,-1.588l1.834,0l-0.92,-2.959l-0.914,2.959Z" style="fill:#5b2d2d;fill-rule:nonzero;"/><path d="M309.994,28.837c0,-0.301 -0.106,-0.535 -0.319,-0.703c-0.213,-0.168 -0.587,-0.342 -1.122,-0.521c-0.535,-0.18 -0.973,-0.354 -1.312,-0.522c-1.106,-0.543 -1.659,-1.289 -1.659,-2.238c0,-0.473 0.138,-0.89 0.413,-1.251c0.276,-0.361 0.665,-0.643 1.169,-0.844c0.504,-0.201 1.071,-0.302 1.7,-0.302c0.613,0 1.163,0.11 1.649,0.329c0.486,0.218 0.864,0.53 1.134,0.934c0.269,0.404 0.404,0.866 0.404,1.386l-2.051,0c0,-0.348 -0.106,-0.617 -0.319,-0.809c-0.213,-0.191 -0.501,-0.287 -0.864,-0.287c-0.367,0 -0.658,0.081 -0.87,0.243c-0.213,0.162 -0.32,0.368 -0.32,0.618c0,0.219 0.117,0.417 0.352,0.595c0.234,0.178 0.646,0.362 1.236,0.551c0.59,0.189 1.074,0.394 1.453,0.612c0.922,0.532 1.383,1.264 1.383,2.198c0,0.746 -0.281,1.332 -0.844,1.757c-0.562,0.426 -1.334,0.639 -2.314,0.639c-0.692,0 -1.317,-0.124 -1.878,-0.372c-0.561,-0.248 -0.982,-0.588 -1.266,-1.02c-0.283,-0.431 -0.424,-0.928 -0.424,-1.491l2.062,0c0,0.457 0.118,0.794 0.355,1.011c0.236,0.217 0.62,0.325 1.151,0.325c0.34,0 0.608,-0.073 0.806,-0.22c0.197,-0.146 0.295,-0.352 0.295,-0.618Z" style="fill:#5b2d2d;fill-rule:nonzero;"/><path d="M319.237,27.49l-3.235,0l0,2.033l3.821,0l0,1.582l-5.877,0l0,-8.531l5.888,0l0,1.587l-3.832,0l0,1.799l3.235,0l0,1.53Z" style="fill:#5b2d2d;fill-rule:nonzero;"/><path d="M321.501,31.105l0,-8.531l2.748,0c0.754,0 1.431,0.171 2.033,0.512c0.601,0.342 1.071,0.825 1.409,1.448c0.338,0.623 0.509,1.321 0.513,2.094l0,0.393c0,0.781 -0.165,1.481 -0.495,2.1c-0.33,0.62 -0.795,1.104 -1.395,1.454c-0.6,0.349 -1.268,0.526 -2.007,0.53l-2.806,0Zm2.056,-6.944l0,5.362l0.715,0c0.59,0 1.043,-0.21 1.359,-0.63c0.317,-0.42 0.475,-1.044 0.475,-1.872l0,-0.369c0,-0.824 -0.158,-1.446 -0.475,-1.864c-0.316,-0.418 -0.777,-0.627 -1.382,-0.627l-0.692,0Z" style="fill:#5b2d2d;fill-rule:nonzero;"/><rect x="334.067" y="22.574" width="2.051" height="8.531" style="fill:#5b2d2d;fill-rule:nonzero;"/><path d="M345.513,31.105l-2.045,0l-3.024,-5.309l0,5.309l-2.056,0l0,-8.531l2.056,0l3.018,5.308l0,-5.308l2.051,0l0,8.531Z" style="fill:#5b2d2d;fill-rule:nonzero;"/><path d="M358.466,30.05c-0.316,0.352 -0.779,0.635 -1.388,0.85c-0.61,0.215 -1.278,0.322 -2.004,0.322c-1.118,0 -2.01,-0.342 -2.678,-1.025c-0.668,-0.684 -1.025,-1.635 -1.072,-2.854l-0.006,-0.738c0,-0.84 0.148,-1.573 0.445,-2.2c0.297,-0.627 0.722,-1.11 1.275,-1.448c0.552,-0.337 1.192,-0.506 1.918,-0.506c1.063,0 1.888,0.243 2.476,0.729c0.588,0.486 0.931,1.212 1.028,2.177l-1.98,0c-0.07,-0.477 -0.223,-0.817 -0.457,-1.02c-0.234,-0.203 -0.567,-0.304 -0.996,-0.304c-0.516,0 -0.914,0.218 -1.196,0.656c-0.281,0.437 -0.423,1.062 -0.427,1.875l0,0.515c0,0.852 0.145,1.492 0.436,1.919c0.291,0.428 0.749,0.642 1.374,0.642c0.535,0 0.934,-0.119 1.196,-0.357l0,-1.325l-1.43,0l0,-1.412l3.486,0l0,3.504Z" style="fill:#5b2d2d;fill-rule:nonzero;"/><path d="M365.793,27.49l-3.235,0l0,2.033l3.821,0l0,1.582l-5.877,0l0,-8.531l5.888,0l0,1.587l-3.832,0l0,1.799l3.235,0l0,1.53Z" style="fill:#5b2d2d;fill-rule:nonzero;"/><path d="M375.181,31.105l-2.045,0l-3.023,-5.309l0,5.309l-2.057,0l0,-8.531l2.057,0l3.018,5.308l0,-5.308l2.05,0l0,8.531Z" style="fill:#5b2d2d;fill-rule:nonzero;"/><path d="M382.613,27.49l-3.234,0l0,2.033l3.82,0l0,1.582l-5.877,0l0,-8.531l5.889,0l0,1.587l-3.832,0l0,1.799l3.234,0l0,1.53Z" style="fill:#5b2d2d;fill-rule:nonzero;"/><path d="M388.188,28.785l1.699,-6.211l2.297,0l-2.871,8.531l-2.25,0l-2.848,-8.531l2.279,0l1.694,6.211Z" style="fill:#5b2d2d;fill-rule:nonzero;"/><path d="M398.051,29.511l-2.818,0l-0.493,1.594l-2.197,0l3.129,-8.531l1.934,0l3.152,8.531l-2.209,0l-0.498,-1.594Zm-2.326,-1.588l1.834,0l-0.92,-2.959l-0.914,2.959Z" style="fill:#5b2d2d;fill-rule:nonzero;"/></g><path d="M439.908,28.984l-0.151,-0.133l-0.312,-0.034l-0.131,-0.158l-0.061,-0.209l0.033,-0.103l0.079,-0.078l0.07,-0.128l0.017,-0.156l-0.007,-0.124l0.029,-0.1l0.125,-0.082l0.087,-0.138l-0.017,-0.151l-0.054,-0.158l-0.012,-0.163l0.16,-0.197l0.042,-0.07l0.026,-0.099l0.038,-0.351l-0.016,-0.235l0.09,-0.372l-0.039,-0.185l-0.064,-0.08l-0.25,-0.203l-0.151,-0.253l-0.077,-0.082l0,-0.003l-0.039,-0.025l-0.04,-0.009l-0.04,0.009l-0.212,0.125l-0.185,0.217l-0.127,0.251l-0.004,0.206l-0.182,0.008l-0.141,-0.038l-0.119,0.023l-0.112,0.192l-0.034,0.139l-0.005,0.092l-0.021,0.084l-0.075,0.112l-0.318,0.166l-0.19,0.055l-0.151,-0.005l-0.314,-0.104l-0.166,-0.099l-0.281,-0.275l-0.783,-0.26l-0.18,-0.142l-0.093,-0.136l-0.013,-0.103l0.024,-0.118l0.018,-0.257l0.03,-0.105l0,-0.065l-0.027,-0.034l-0.045,0.004l-0.032,-0.028l0.013,-0.124l-1.381,-0.448l-0.122,-0.019l-0.382,0.048l-0.138,-0.037l-0.15,0.05l-0.446,-0.077l-0.166,-0.05l-0.008,-0.102l0.085,-0.118l0.113,-0.119l0.069,-0.146l-0.003,-0.235l-0.061,-0.176l-0.079,-0.159l-0.058,-0.182l0.019,-0.371l0.126,-0.372l0.12,-0.21l0.236,-0.409l0.247,-0.309l0.029,-0.077l0.039,-0.194l0.033,-0.098l0.283,-0.369l0.073,-0.168l0.004,-0.469l-0.209,-0.189l-0.271,-0.128l-0.217,-0.334l-0.054,-0.262l0,-0.001l-2.004,-1.283l-0.285,-0.068l-0.272,0l-0.1,-0.158l-0.405,0l-0.812,-0.094l-0.14,0.056l-0.115,0.13l-0.267,0.087l-0.286,0.028l-0.178,-0.049l-0.212,-0.162l-0.109,-0.111l0,-0.078l0.133,-0.032l-0.188,-0.184l-0.239,-0.143l-0.197,-0.009l-0.065,0.218l0.06,0.068l-0.387,0.006l-0.013,-0.072l-0.019,-0.085l-0.058,-0.073l-0.031,-0.092l0.024,-0.073l0.097,-0.15l0.021,-0.042l-0.05,-0.113l-0.071,-0.014l-0.08,0.017l-0.077,-0.017l-0.053,-0.088l-0.058,-0.129l-0.069,-0.11l-0.096,-0.033l-0.066,0.072l-0.037,0.242l-0.09,0.062l-0.074,-0.056l-0.026,-0.134l-0.006,-0.145l-0.01,-0.081l-0.136,-0.062l-0.182,-0.011l-0.115,0.068l0.067,0.176l-0.111,0.058l-0.393,0.08l-0.08,-0.002l-0.058,0.035l-0.099,0.15l-0.036,0.081l-0.055,0.222l-0.077,0.075l-0.184,0.105l-0.073,0.084l-0.008,0.083l0.031,0.081l0.019,0.094l-0.048,0.121l0.116,0.043l0.035,0.006l0.188,0.147l0.151,0.088l0.13,-0.006l0.109,-0.057l0.1,-0.075l0.109,-0.055l0.356,-0.063l0.102,0.018l0.117,0.049l0.065,0.007l-0.04,0.263l-0.048,-0.024l-0.005,-0.069l-0.008,-0.017l-0.03,0.001l-0.039,0.015l-0.027,0.023l-0.016,0.061l0.013,0.051l0.016,0.043l0.003,0.039l-0.008,0.076l0.003,0.079l-0.008,0.082l-0.048,0.086l-0.098,0.035l-0.08,-0.103l-0.088,-0.15l-0.113,-0.109l-0.218,0.023l-0.224,0.152l-0.084,0.19l-0.01,0.054l-0.225,0.038l-0.467,-0.003l-0.278,-0.076l-0.071,-0.048l-0.051,-0.107l-0.039,-0.107l-0.04,-0.048l-0.085,-0.009l-0.189,-0.06l-0.132,0l-0.395,0.069l-0.037,0.025l-0.037,0.055l-0.048,0.053l-0.135,0.042l-0.157,0.088l-0.061,0.047l-0.061,0.074l-0.029,0.056l-0.034,0.048l-0.071,0.05l-0.329,0.075l-0.95,0l-0.02,-0.047l-0.014,-0.104l-0.024,-0.104l-0.044,-0.048l-0.47,-0.029l-0.103,-0.054l-0.135,0.214l-0.115,0.143l-0.138,0.08l-0.607,0.131l-0.161,-0.023l-0.379,-0.205l0.191,0.001l0.079,-0.076l0.096,-0.279l-0.167,0.019l-0.363,0.112l-0.011,0.01l-0.258,0.093l-0.176,0.101l-0.319,0.268l0.018,0.008l0.122,0.095l0.024,0l0.003,0.111l-0.032,0.064l-0.058,0.019l-0.077,-0.016l-0.042,0.023l-0.009,0.036l0.016,0.044l0.051,0.075l0.008,0.027l-0.002,0.03l-0.009,0.031l-0.013,0.019l-0.111,0.104l-0.094,-0.014l-0.097,-0.063l-0.112,-0.04l-0.085,0.025l0.001,0.069l0.036,0.067l0.025,0.028l0.036,0.052l0.012,0.062l-0.024,0.103l-0.144,0.194l-0.204,0.085l-0.507,-0.023l-0.193,0.042l-0.276,0.124l-0.049,0.01l-0.057,-0.025l-0.029,-0.04l-0.021,-0.039l-0.031,-0.026l-0.213,-0.069l-0.159,-0.098l-0.042,-0.18l0.132,-0.315l-0.198,0.021l-0.098,-0.016l-0.095,-0.057l-0.171,-0.037l-0.365,0.066l-0.188,-0.029l-0.067,-0.052l-0.068,-0.018l-0.064,0.018l-0.066,0.052l-0.136,0.043l0.019,0.124l0.074,0.153l0.037,0.131l-0.056,0.094l-0.108,0.095l-0.119,0.071l-0.191,0.043l-0.013,0.209l-0.186,0.114l-0.109,0.145l-0.09,0.173l-0.037,0.142l0.869,-0.089l0.135,-0.066l0.109,0.091l0.109,0.102l0.077,0.113l-0.058,0.121l-0.067,0.045l-0.075,0.021l-0.076,0.046l-0.108,0.148l-0.038,0.016l-0.066,0.009l-0.138,0.145l-0.048,0.226l0.03,0.274l-0.496,0.374l-0.212,0.225l-0.138,0.236l-0.479,0.455l-0.219,0.078l0.008,0.189l-0.105,0.056l-0.027,0.019l-0.027,0.07l-0.183,0.068l-0.069,0.069l-0.098,0.175l0.088,0.204l-0.167,0.247l-0.488,0.382l-0.787,0.254l-0.353,0.211l-0.109,0.384l0.03,0.1l0.098,0.191l0.022,0.121l-0.011,0.151l-0.04,0.105l-0.051,0.094l-0.116,0.356l-0.009,0.054l0.019,0.062l0.038,0.053l0.055,0.061l0.003,0.185l-0.027,0.091l-0.082,0.106l-0.077,0.059l-0.244,0.132l-0.191,0.223l-0.073,0.064l-0.523,0.295l-0.983,0.924l-0.098,0.132l0.023,0.144l0.176,0.203l-0.258,0.335l-0.254,0.449l-0.083,0.092l-0.029,0.066l0,0.056l0.016,0.051l0.017,0.045l0.005,0.034l0,0.082l0.016,0.074l-0.014,0.071l-0.084,0.083l0.394,0.249l0.107,0.119l0.089,0.164l0.011,0.12l-0.236,0.544l-0.026,0.084l-0.051,0.307l-0.003,0.117l0.006,0.1l-0.032,0.072l-0.161,0.052l-0.041,0.005l-0.045,-0.005l-0.058,-0.02l-0.013,-0.001l-0.013,0.001l-0.011,0.005l-0.438,0.22l-0.177,0.116l-0.029,0.13l0.077,0.149l0.129,0.165l-0.023,0.094l-0.054,0.109l-0.099,0.234l0.176,-0.107l0.332,-0.082l0.332,-0.013l0.249,0.114l0.236,-0.125l0.374,-0.449l0.468,-0.318l0.189,-0.205l-0.038,-0.25l-0.052,-0.022l-0.122,0.057l-0.077,-0.041l-0.03,-0.046l-0.069,-0.179l-0.005,-0.043l-0.068,-0.185l-0.03,-0.108l0.04,-0.148l0.152,-0.215l0.209,-0.283l0.238,-0.211l0.225,-0.076l0.241,-0.011l0.237,-0.062l0.623,-0.439l0.467,-0.096l0.487,0.016l1.089,0.291l0.11,0.055l0.068,0.108l0.016,0.206l-0.053,0.182l-0.193,0.232l-0.038,0.124l0.139,0.249l0.259,0.282l0.167,0.294l-0.26,0.517l-0.126,0.389l-0.067,0.37l0.064,0.181l0.582,0.132l0.11,0.112l-0.007,0.081l-0.052,0.083l-0.058,0.074l-0.033,0.056l0.02,-0.011l0.013,0.107l0.002,0.113l-0.011,0.01l0.003,0.084l-0.015,0.045l0.005,0.034l0.064,0.05l0.069,0.01l0.057,-0.044l0.051,-0.054l0.061,-0.026l0.167,0.074l0.495,0.575l0.035,0.024l0.026,0.115l0.083,0.224l0.051,0.197l0.041,0.108l0.049,0.087l0.328,0.378l0.17,0.104l0.225,0.047l0.239,-0.004l0.22,-0.042l0.45,-0.191l0.205,-0.131l0.097,-0.033l0.549,0.06l0.234,-0.085l0.432,-0.325l0.217,-0.097l0.154,-0.02l0.08,-0.107l0.071,-0.123l0.122,-0.064l0.745,0.191l0.114,0.068l0.111,0.104l0.136,0.206l0.012,0.027l0.09,0.032l0.061,-0.014l0.054,-0.028l0.071,-0.008l0.353,0.132l0.199,-0.004l0.132,0.041l0.042,0.002l0.091,-0.051l0.018,-0.036l-0.007,-0.056l0.023,-0.111l0.17,-0.333l0.194,-0.14l0.519,-0.12l0.069,-0.021l0.053,-0.045l0.09,-0.122l0.006,-0.024l0.071,-0.16l0.013,-0.022l0.038,-0.307l0.002,-0.121l0.014,-0.124l0.054,-0.112l0.072,-0.057l0.152,-0.017l0.079,-0.027l0.32,-0.285l0.158,-0.35l-0.019,-0.397l-0.218,-0.428l-0.17,-0.153l-0.026,-0.042l0.032,-0.091l0.072,-0.106l0.143,-0.149l0.158,-0.074l0.317,-0.074l0.151,-0.108l0.36,-0.487l0.206,-0.108l0.085,-0.066l0.072,-0.089l0.045,-0.1l-0.003,-0.109l-0.048,-0.038l-0.029,-0.046l0.061,-0.138l0.156,-0.17l0.197,-0.111l0.408,-0.09l0.21,0.038l0.101,0.15l0.029,0.245l0.003,0.327l-0.024,0.313l-0.119,0.562l-0.024,0.279l0.029,0.264l0.081,0.174l0.133,0.114l0.191,0.078l0.202,0.105l0.207,0.219l0.461,0.701l0.071,0.037l0.141,0.05l0.341,0.204l0.128,0.008l0.053,-0.031l0.114,-0.103l0.045,-0.022l0.06,0.023l0.054,0.101l0.056,0.039l0.116,0.017l0.225,-0.005l0.109,0.039l0.186,0.252l-0.107,0.253l-0.209,0.262l-0.128,0.302l-0.028,0.052l-0.013,0.03l0.125,0.007l0.113,0.041l0.418,0.231l0.051,0.04l0.046,0.069l0.073,0.171l0.125,0.233l0.061,0.14l0.042,0.141l0.012,0.186l-0.03,0.134l-0.043,0.127l-0.028,0.166l0.289,-0.091l0.24,0.11l0.219,0.042l0.233,-0.295l0.183,-0.364l0.028,-0.183l-0.082,-0.179l-0.071,-0.044l-0.157,-0.033l-0.072,-0.042l-0.066,-0.101l-0.061,-0.196l-0.079,-0.082l-0.016,-0.027l-0.005,-0.028l0.005,-0.028l0.016,-0.025l0.241,-0.229l-0.13,-0.375l0.032,-0.123l0.186,-0.148l0.161,-0.052l0.069,-0.042l0.058,-0.101l0.024,-0.133l-0.016,-0.243l0.029,-0.139l0.135,-0.209l0.529,-0.369l0.058,-0.112l0.035,-0.124l0.041,-0.108l0.078,-0.06l0.089,-0.043l0.085,-0.081l0.066,-0.109l0.109,-0.387l0.213,-0.46l0.045,-0.239l-0.009,-0.14l-0.098,-0.384l-0.002,-0.155l0.019,-0.138l-0.014,-0.108l-0.098,-0.07l-0.071,-0.146l0.058,-0.266l0.129,-0.262l0.138,-0.133l0.356,-0.045l0.144,0.039l0.007,0.135l0.186,0.183l0.055,0.024l0.08,-0.032l0.035,-0.066l0.026,-0.077l0.048,-0.069l0.119,-0.09l0.058,-0.013l0.023,0.068l0.044,1.042l-0.011,0.166l0.015,0.061l0.053,0.053l0.16,0.093l0.066,0.054l0.144,0.391l0.094,0.133l0.155,0.108l0.169,0.063l0.838,0.01l0.138,-0.057l0.111,-0.159l0.003,-0.085l-0.011,-0.123l0.014,-0.124l0.079,-0.092l0.081,0.002l0.176,0.11l0.093,0.022l0.153,-0.052l0.486,-0.257l0.318,-0.057l0.143,0.012l0.15,0.041l0.183,0.122l0.048,0.177l0.003,0.215l0.048,0.237l0.106,0.149l0.289,0.263l0.074,0.185l0.006,0.244l0.241,0.005l0.309,-0.121l0.205,-0.132l0.095,-0.206l-0.093,-0.193l-0.302,-0.316l-0.066,-0.121l-0.029,-0.092l0.003,-0.099l0.039,-0.147l0.055,-0.104l0.152,-0.142l0.053,-0.073l0.055,-0.237l-0.053,-0.12l-0.127,-0.052l-0.328,-0.066l-0.213,-0.086l-0.114,-0.147l0.128,-0.225l-0.064,-0.045l-0.035,-0.061l-0.017,-0.078l-0.009,-0.101l0.032,-0.116l0,-0.239l0.011,-0.078l0.063,-0.097l0.157,-0.162l0.061,-0.083l0.09,-0.355l0.032,-0.081l0.071,-0.039l0.691,-0.205l0.187,-0.002l0.117,0.098l0.013,0.123l-0.038,0.224l0.032,0.118l0.302,0.107l0.056,0.052l0.038,0.055l0.047,0.05l0.082,0.039l0.095,0.016l0.253,-0.025l0.524,0.141l0.131,-0.025l0.103,-0.174l0.058,-0.27l0.005,-0.282l-0.056,-0.209Z" style="fill:#5b2d2d;fill-rule:nonzero;"/></svg>