<?xml version="1.0" encoding="UTF-8" standalone="no"?><!DOCTYPE svg PUBLIC "-//W3C//DTD SVG 1.1//EN" "http://www.w3.org/Graphics/SVG/1.1/DTD/svg11.dtd"><svg width="100%" height="100%" viewBox="0 0 800 800" version="1.1" xmlns="http://www.w3.org/2000/svg" xmlns:xlink="http://www.w3.org/1999/xlink" xml:space="preserve" style="fill-rule:evenodd;clip-rule:evenodd;stroke-linejoin:round;stroke-miterlimit:1.41421;"><g><path d="M399.902,23.557c-84.678,0 -95.296,0.359 -128.552,1.877c-33.187,1.515 -55.852,6.785 -75.685,14.493c-20.503,7.968 -37.891,18.629 -55.225,35.962c-17.333,17.334 -27.994,34.722 -35.962,55.225c-7.709,19.832 -12.979,42.497 -14.493,75.684c-1.518,33.256 -1.876,43.874 -1.876,128.552c0,84.677 0.358,95.295 1.876,128.551c1.514,33.187 6.784,55.852 14.493,75.684c7.968,20.503 18.629,37.891 35.962,55.226c17.334,17.333 34.722,27.995 55.225,35.963c19.833,7.707 42.498,12.978 75.685,14.491c33.256,1.518 43.874,1.877 128.552,1.877c84.677,0 95.295,-0.359 128.551,-1.877c33.187,-1.513 55.852,-6.784 75.684,-14.491c20.503,-7.968 37.891,-18.63 55.226,-35.963c17.333,-17.335 27.995,-34.723 35.963,-55.226c7.707,-19.832 12.978,-42.497 14.491,-75.684c1.518,-33.256 1.877,-43.874 1.877,-128.551c0,-84.678 -0.359,-95.296 -1.877,-128.552c-1.513,-33.187 -6.784,-55.852 -14.491,-75.684c-7.968,-20.503 -18.63,-37.891 -35.963,-55.225c-17.335,-17.333 -34.723,-27.994 -55.226,-35.962c-19.832,-7.708 -42.497,-12.978 -75.684,-14.493c-33.256,-1.518 -43.874,-1.877 -128.551,-1.877Zm0,56.18c83.251,0 93.113,0.317 125.99,1.817c30.4,1.388 46.909,6.467 57.896,10.736c14.553,5.656 24.94,12.413 35.85,23.323c10.911,10.91 17.667,21.298 23.323,35.85c4.27,10.987 9.35,27.496 10.736,57.896c1.5,32.877 1.818,42.739 1.818,125.991c0,83.251 -0.318,93.113 -1.818,125.99c-1.386,30.4 -6.466,46.909 -10.736,57.896c-5.656,14.553 -12.412,24.94 -23.323,35.85c-10.91,10.911 -21.297,17.667 -35.85,23.323c-10.987,4.27 -27.496,9.35 -57.896,10.736c-32.872,1.5 -42.732,1.818 -125.99,1.818c-83.258,0 -93.118,-0.318 -125.991,-1.818c-30.4,-1.386 -46.909,-6.466 -57.895,-10.736c-14.554,-5.656 -24.941,-12.412 -35.852,-23.323c-10.91,-10.91 -17.667,-21.297 -23.322,-35.85c-4.27,-10.987 -9.35,-27.496 -10.737,-57.896c-1.5,-32.877 -1.817,-42.739 -1.817,-125.99c0,-83.252 0.317,-93.114 1.817,-125.991c1.387,-30.4 6.467,-46.909 10.737,-57.896c5.655,-14.552 12.412,-24.94 23.322,-35.85c10.911,-10.91 21.298,-17.667 35.852,-23.323c10.986,-4.269 27.495,-9.348 57.895,-10.736c32.877,-1.5 42.739,-1.817 125.991,-1.817Z" style="fill:#5b2d2d;fill-rule:nonzero;"/><path d="M399.902,439.28c-57.4,0 -103.931,-46.531 -103.931,-103.93c0,-57.4 46.531,-103.931 103.931,-103.931c57.399,0 103.93,46.531 103.93,103.931c0,57.399 -46.531,103.93 -103.93,103.93Zm0,-264.04c-88.427,0 -160.11,71.683 -160.11,160.11c0,88.426 71.683,160.109 160.11,160.109c88.426,0 160.109,-71.683 160.109,-160.109c0,-88.427 -71.683,-160.11 -160.109,-160.11Z" style="fill:#5d2d2d;fill-rule:nonzero;"/><path d="M603.752,168.914c0,20.664 -16.751,37.415 -37.415,37.415c-20.663,0 -37.415,-16.751 -37.415,-37.415c0,-20.664 16.752,-37.414 37.415,-37.414c20.664,0 37.415,16.75 37.415,37.414Z" style="fill:#5d2d2d;fill-rule:nonzero;"/></g><g><rect x="24" y="692.097" width="13.828" height="79.894" style="fill:#5b2d2d;fill-rule:nonzero;stroke:#5b2d2d;stroke-width:4px;"/><path d="M135.127,771.991l-13.883,0l-35.612,-56.683l0,56.683l-13.882,0l0,-79.894l13.882,0l35.722,56.903l0,-56.903l13.773,0l0,79.894Z" style="fill:#5b2d2d;fill-rule:nonzero;stroke:#5b2d2d;stroke-width:4px;"/><path d="M210.148,751.414c0,-3.512 -1.235,-6.219 -3.704,-8.121c-2.469,-1.902 -6.923,-3.823 -13.361,-5.761c-6.438,-1.939 -11.56,-4.098 -15.364,-6.475c-7.28,-4.573 -10.92,-10.536 -10.92,-17.889c0,-6.438 2.625,-11.742 7.874,-15.913c5.25,-4.17 12.063,-6.255 20.44,-6.255c5.56,0 10.517,1.024 14.87,3.073c4.354,2.048 7.774,4.966 10.262,8.752c2.487,3.786 3.731,7.984 3.731,12.593l-13.828,0c0,-4.17 -1.308,-7.435 -3.923,-9.795c-2.616,-2.359 -6.356,-3.539 -11.222,-3.539c-4.536,0 -8.057,0.97 -10.563,2.908c-2.505,1.939 -3.758,4.646 -3.758,8.121c0,2.927 1.353,5.369 4.06,7.326c2.707,1.957 7.17,3.859 13.389,5.707c6.219,1.847 11.212,3.95 14.98,6.31c3.768,2.359 6.53,5.066 8.286,8.121c1.756,3.054 2.634,6.63 2.634,10.727c0,6.658 -2.552,11.953 -7.655,15.886c-5.103,3.932 -12.026,5.899 -20.769,5.899c-5.78,0 -11.093,-1.07 -15.94,-3.21c-4.847,-2.14 -8.615,-5.094 -11.304,-8.862c-2.689,-3.768 -4.033,-8.158 -4.033,-13.17l13.883,0c0,4.537 1.499,8.048 4.499,10.536c3,2.487 7.298,3.731 12.895,3.731c4.829,0 8.459,-0.978 10.892,-2.935c2.433,-1.958 3.649,-4.546 3.649,-7.765Z" style="fill:#5b2d2d;fill-rule:nonzero;stroke:#5b2d2d;stroke-width:4px;"/><path d="M310.794,703.291l-24.911,0l0,68.7l-13.773,0l0,-68.7l-24.693,0l0,-11.194l63.377,0l0,11.194Z" style="fill:#5b2d2d;fill-rule:nonzero;stroke:#5b2d2d;stroke-width:4px;"/><path d="M376.268,753.39l-30.948,0l-6.475,18.601l-14.431,0l30.179,-79.894l12.456,0l30.235,79.894l-14.486,0l-6.53,-18.601Zm-27.052,-11.194l23.156,0l-11.578,-33.143l-11.578,33.143Z" style="fill:#5b2d2d;fill-rule:nonzero;stroke:#5b2d2d;stroke-width:4px;"/><path d="M483.279,761.62c-2.89,3.768 -6.895,6.622 -12.017,8.56c-5.121,1.939 -10.937,2.909 -17.449,2.909c-6.694,0 -12.621,-1.518 -17.779,-4.555c-5.157,-3.036 -9.136,-7.38 -11.934,-13.032c-2.799,-5.652 -4.253,-12.245 -4.363,-19.781l0,-6.256c0,-12.072 2.89,-21.5 8.67,-28.286c5.78,-6.786 13.846,-10.179 24.199,-10.179c8.889,0 15.949,2.195 21.18,6.585c5.232,4.389 8.378,10.718 9.438,18.985l-13.608,0c-1.536,-9.621 -7.115,-14.431 -16.736,-14.431c-6.219,0 -10.947,2.241 -14.184,6.722c-3.238,4.481 -4.911,11.057 -5.021,19.726l0,6.146c0,8.633 1.82,15.337 5.46,20.111c3.64,4.774 8.697,7.16 15.172,7.16c7.097,0 12.145,-1.609 15.145,-4.828l0,-15.639l-16.462,0l0,-10.535l30.289,0l0,30.618Z" style="fill:#5b2d2d;fill-rule:nonzero;stroke:#5b2d2d;stroke-width:4px;"/><path d="M544.747,741.208l-15.474,0l0,30.783l-13.882,0l0,-79.894l28.094,0c9.219,0 16.334,2.067 21.345,6.201c5.012,4.134 7.518,10.115 7.518,17.943c0,5.341 -1.29,9.813 -3.869,13.416c-2.579,3.604 -6.173,6.375 -10.782,8.314l17.943,33.307l0,0.713l-14.87,0l-16.023,-30.783Zm-15.474,-11.139l14.267,0c4.682,0 8.34,-1.18 10.974,-3.539c2.634,-2.36 3.951,-5.588 3.951,-9.685c0,-4.28 -1.216,-7.591 -3.649,-9.932c-2.433,-2.341 -6.063,-3.548 -10.892,-3.622l-14.651,0l0,26.778Z" style="fill:#5b2d2d;fill-rule:nonzero;stroke:#5b2d2d;stroke-width:4px;"/><path d="M647.094,753.39l-30.947,0l-6.475,18.601l-14.432,0l30.18,-79.894l12.456,0l30.235,79.894l-14.487,0l-6.53,-18.601Zm-27.051,-11.194l23.156,0l-11.578,-33.143l-11.578,33.143Z" style="fill:#5b2d2d;fill-rule:nonzero;stroke:#5b2d2d;stroke-width:4px;"/><path d="M712.019,692.097l23.046,61.238l22.992,-61.238l17.943,0l0,79.894l-13.828,0l0,-26.338l1.372,-35.228l-23.595,61.566l-9.932,0l-23.54,-61.511l1.372,35.173l0,26.338l-13.828,0l0,-79.894l17.998,0Z" style="fill:#5b2d2d;fill-rule:nonzero;stroke:#5b2d2d;stroke-width:4px;"/></g></svg>