<?xml version="1.0" encoding="UTF-8" standalone="no"?><!DOCTYPE svg PUBLIC "-//W3C//DTD SVG 1.1//EN" "http://www.w3.org/Graphics/SVG/1.1/DTD/svg11.dtd"><svg width="100%" height="100%" viewBox="0 0 800 800" version="1.1" xmlns="http://www.w3.org/2000/svg" xmlns:xlink="http://www.w3.org/1999/xlink" xml:space="preserve" style="fill-rule:evenodd;clip-rule:evenodd;stroke-linejoin:round;stroke-miterlimit:1.41421;"><g><path d="M56.694,94.667l34.282,0l0,15.149l-53.976,0l0,-81.694l19.694,0l0,66.545Z" style="fill:#5b2d2d;fill-rule:nonzero;stroke:#5b2d2d;stroke-width:4px;"/><path d="M169.73,94.555l-26.988,0l-4.713,15.261l-21.041,0l29.962,-81.694l18.516,0l30.187,81.694l-21.153,0l-4.77,-15.261Zm-22.275,-15.206l17.562,0l-8.809,-28.335l-8.753,28.335Z" style="fill:#5b2d2d;fill-rule:nonzero;stroke:#5b2d2d;stroke-width:4px;"/><path d="M281.981,43.328l-24.519,0l0,66.488l-19.694,0l0,-66.488l-24.071,0l0,-15.206l68.284,0l0,15.206Z" style="fill:#5b2d2d;fill-rule:nonzero;stroke:#5b2d2d;stroke-width:4px;"/><path d="M363.933,75.197l-30.972,0l0,19.47l36.583,0l0,15.149l-56.277,0l0,-81.694l56.389,0l0,15.206l-36.695,0l0,17.225l30.972,0l0,14.644Z" style="fill:#5b2d2d;fill-rule:nonzero;stroke:#5b2d2d;stroke-width:4px;"/><path d="M442.687,88.102c0,-2.88 -1.019,-5.124 -3.058,-6.733c-2.038,-1.608 -5.62,-3.273 -10.744,-4.993c-5.125,-1.721 -9.314,-3.386 -12.569,-4.994c-10.585,-5.2 -15.878,-12.344 -15.878,-21.434c0,-4.526 1.318,-8.519 3.955,-11.979c2.637,-3.46 6.369,-6.153 11.194,-8.079c4.825,-1.927 10.249,-2.89 16.271,-2.89c5.873,0 11.138,1.047 15.795,3.142c4.657,2.095 8.276,5.078 10.857,8.949c2.581,3.872 3.872,8.295 3.872,13.27l-19.638,0c0,-3.329 -1.02,-5.91 -3.058,-7.743c-2.039,-1.833 -4.798,-2.749 -8.276,-2.749c-3.517,0 -6.294,0.776 -8.333,2.328c-2.038,1.553 -3.057,3.526 -3.057,5.92c0,2.094 1.122,3.993 3.366,5.695c2.244,1.702 6.191,3.46 11.839,5.274c5.648,1.814 10.287,3.769 13.915,5.863c8.828,5.087 13.242,12.101 13.242,21.041c0,7.145 -2.694,12.755 -8.08,16.833c-5.387,4.077 -12.774,6.115 -22.163,6.115c-6.621,0 -12.615,-1.187 -17.983,-3.562c-5.368,-2.376 -9.407,-5.63 -12.119,-9.763c-2.712,-4.134 -4.068,-8.894 -4.068,-14.28l19.75,0c0,4.376 1.132,7.603 3.395,9.679c2.263,2.076 5.938,3.114 11.025,3.114c3.254,0 5.826,-0.702 7.715,-2.104c1.889,-1.403 2.833,-3.376 2.833,-5.92Z" style="fill:#5b2d2d;fill-rule:nonzero;stroke:#5b2d2d;stroke-width:4px;"/><path d="M559.595,43.328l-24.519,0l0,66.488l-19.694,0l0,-66.488l-24.071,0l0,-15.206l68.284,0l0,15.206Z" style="fill:#5b2d2d;fill-rule:nonzero;stroke:#5b2d2d;stroke-width:4px;"/><path d="M56.694,219.453l0,27.717l-19.694,0l0,-81.694l32.599,0c6.247,0 11.774,1.15 16.58,3.451c4.807,2.3 8.529,5.573 11.166,9.819c2.637,4.245 3.955,9.061 3.955,14.448c0,7.967 -2.852,14.335 -8.556,19.105c-5.705,4.769 -13.532,7.154 -23.482,7.154l-12.568,0Zm0,-15.206l12.905,0c3.815,0 6.724,-0.954 8.725,-2.861c2.001,-1.908 3.002,-4.601 3.002,-8.08c0,-3.815 -1.029,-6.864 -3.086,-9.146c-2.058,-2.282 -4.863,-3.441 -8.416,-3.478l-13.13,0l0,23.565Z" style="fill:#5b2d2d;fill-rule:nonzero;stroke:#5b2d2d;stroke-width:4px;"/><path d="M165.13,218.33l-10.661,0l0,28.84l-19.694,0l0,-81.694l32.15,0c9.688,0 17.263,2.151 22.724,6.453c5.461,4.301 8.192,10.38 8.192,18.235c0,5.686 -1.15,10.399 -3.451,14.139c-2.3,3.741 -5.901,6.771 -10.801,9.09l17.057,32.936l0,0.841l-21.097,0l-14.419,-28.84Zm-10.661,-15.205l12.456,0c3.741,0 6.555,-0.982 8.444,-2.946c1.889,-1.964 2.834,-4.704 2.834,-8.22c0,-3.516 -0.954,-6.274 -2.862,-8.276c-1.907,-2.001 -4.713,-3.001 -8.416,-3.001l-12.456,0l0,22.443Z" style="fill:#5b2d2d;fill-rule:nonzero;stroke:#5b2d2d;stroke-width:4px;"/><path d="M301.9,208.006c0,7.968 -1.478,15.019 -4.433,21.153c-2.955,6.135 -7.154,10.857 -12.596,14.168c-5.443,3.31 -11.643,4.965 -18.6,4.965c-6.958,0 -13.13,-1.599 -18.516,-4.797c-5.386,-3.198 -9.585,-7.771 -12.596,-13.718c-3.012,-5.948 -4.592,-12.775 -4.742,-20.48l0,-4.601c0,-8.005 1.469,-15.065 4.405,-21.181c2.936,-6.116 7.144,-10.838 12.624,-14.167c5.48,-3.33 11.718,-4.994 18.713,-4.994c6.92,0 13.092,1.646 18.515,4.937c5.424,3.292 9.642,7.977 12.653,14.056c3.011,6.078 4.535,13.045 4.573,20.9l0,3.759Zm-20.031,-3.422c0,-8.117 -1.356,-14.28 -4.068,-18.488c-2.712,-4.208 -6.593,-6.312 -11.642,-6.312c-9.875,0 -15.094,7.406 -15.655,22.219l-0.056,6.003c0,8.005 1.328,14.158 3.984,18.46c2.656,4.302 6.602,6.453 11.839,6.453c4.975,0 8.809,-2.114 11.502,-6.341c2.693,-4.227 4.059,-10.305 4.096,-18.235l0,-3.759Z" style="fill:#5b2d2d;fill-rule:nonzero;stroke:#5b2d2d;stroke-width:4px;"/><path d="M367.58,165.476l19.638,0l0,56.053c0,5.199 -1.206,9.837 -3.619,13.914c-2.412,4.078 -5.779,7.238 -10.099,9.483c-4.32,2.244 -9.136,3.366 -14.448,3.366c-8.903,0 -15.823,-2.244 -20.76,-6.733c-4.938,-4.488 -7.407,-10.847 -7.407,-19.077l19.751,0c0,3.741 0.645,6.453 1.935,8.136c1.291,1.683 3.451,2.525 6.481,2.525c2.731,0 4.835,-1.019 6.312,-3.058c1.478,-2.039 2.216,-4.891 2.216,-8.556l0,-56.053Z" style="fill:#5b2d2d;fill-rule:nonzero;stroke:#5b2d2d;stroke-width:4px;"/><path d="M473.267,212.551l-30.972,0l0,19.47l36.582,0l0,15.149l-56.276,0l0,-81.694l56.389,0l0,15.206l-36.695,0l0,17.225l30.972,0l0,14.644Z" style="fill:#5b2d2d;fill-rule:nonzero;stroke:#5b2d2d;stroke-width:4px;"/><path d="M575.979,219.509c-0.262,5.685 -1.796,10.707 -4.601,15.065c-2.805,4.358 -6.742,7.733 -11.811,10.127c-5.068,2.394 -10.857,3.591 -17.365,3.591c-10.736,0 -19.19,-3.497 -25.362,-10.492c-6.171,-6.995 -9.257,-16.87 -9.257,-29.625l0,-4.04c0,-8.005 1.393,-15.009 4.18,-21.013c2.786,-6.003 6.798,-10.642 12.035,-13.915c5.237,-3.273 11.296,-4.909 18.179,-4.909c9.913,0 17.88,2.609 23.902,7.827c6.023,5.218 9.445,12.409 10.268,21.574l-19.638,0c-0.149,-4.975 -1.402,-8.548 -3.759,-10.717c-2.357,-2.17 -5.948,-3.254 -10.773,-3.254c-4.9,0 -8.491,1.833 -10.773,5.498c-2.281,3.666 -3.478,9.52 -3.591,17.562l0,5.779c0,8.716 1.094,14.944 3.283,18.685c2.188,3.74 5.957,5.61 11.306,5.61c4.526,0 7.986,-1.066 10.38,-3.198c2.394,-2.132 3.665,-5.517 3.815,-10.155l19.582,0Z" style="fill:#5b2d2d;fill-rule:nonzero;stroke:#5b2d2d;stroke-width:4px;"/><path d="M670.78,180.682l-24.519,0l0,66.488l-19.695,0l0,-66.488l-24.07,0l0,-15.206l68.284,0l0,15.206Z" style="fill:#5b2d2d;fill-rule:nonzero;stroke:#5b2d2d;stroke-width:4px;"/><path d="M743.306,225.456c0,-2.88 -1.019,-5.124 -3.058,-6.733c-2.039,-1.608 -5.62,-3.273 -10.745,-4.994c-5.124,-1.72 -9.314,-3.385 -12.568,-4.993c-10.586,-5.2 -15.879,-12.344 -15.879,-21.434c0,-4.526 1.319,-8.519 3.956,-11.979c2.637,-3.46 6.368,-6.153 11.193,-8.079c4.826,-1.927 10.25,-2.89 16.272,-2.89c5.873,0 11.137,1.047 15.795,3.142c4.657,2.095 8.276,5.078 10.857,8.949c2.581,3.872 3.871,8.295 3.871,13.27l-19.638,0c0,-3.329 -1.019,-5.91 -3.058,-7.743c-2.039,-1.833 -4.797,-2.749 -8.276,-2.749c-3.516,0 -6.293,0.776 -8.332,2.328c-2.039,1.553 -3.058,3.526 -3.058,5.92c0,2.094 1.122,3.993 3.367,5.695c2.244,1.702 6.19,3.46 11.838,5.274c5.649,1.814 10.287,3.768 13.915,5.863c8.828,5.087 13.242,12.101 13.242,21.041c0,7.144 -2.693,12.755 -8.08,16.832c-5.386,4.078 -12.774,6.116 -22.163,6.116c-6.62,0 -12.615,-1.187 -17.982,-3.563c-5.368,-2.375 -9.408,-5.629 -12.12,-9.762c-2.712,-4.134 -4.068,-8.894 -4.068,-14.28l19.751,0c0,4.376 1.131,7.603 3.394,9.679c2.263,2.076 5.938,3.114 11.025,3.114c3.255,0 5.826,-0.702 7.715,-2.104c1.889,-1.403 2.834,-3.376 2.834,-5.92Z" style="fill:#5b2d2d;fill-rule:nonzero;stroke:#5b2d2d;stroke-width:4px;"/></g><path d="M232.63,456.032l-78.032,-78.032l-80.693,24.828l0,118.822l78.033,78.033l80.692,-26.602l0,-117.049Z" style="fill:none;stroke:#5b2d2d;stroke-width:16px;stroke-linecap:round;stroke-miterlimit:1.5;"/><path d="M192.727,473.324l-33.695,9.754l-54.091,-54.091" style="fill:none;stroke:#5b2d2d;stroke-width:16px;stroke-linecap:round;stroke-miterlimit:1.5;"/><path d="M192.727,415.516l41.233,-12.688l78.033,78.033l-79.363,27.045l0,116.605l-79.362,27.489l0,-39.016" style="fill:none;stroke:#5b2d2d;stroke-width:16px;stroke-linecap:round;stroke-miterlimit:1.5;"/><path d="M265.439,612.984l46.554,-15.961l0,-83.353" style="fill:none;stroke:#5b2d2d;stroke-width:16px;stroke-linecap:round;stroke-miterlimit:1.5;"/><path d="M153.268,652l-80.268,-80.693l0,-54.09" style="fill:none;stroke:#5b2d2d;stroke-width:16px;stroke-linecap:round;stroke-miterlimit:1.5;"/><path d="M630.605,462.308c0,-9.612 -7.791,-17.403 -17.403,-17.403c-33.125,0 -105.163,0 -141.425,0c-5.776,0 -11.315,2.294 -15.399,6.378c-4.084,4.084 -6.378,9.623 -6.378,15.398c0,32.521 0,93.25 0,124.14c0,5.066 2.013,9.925 5.595,13.508c3.583,3.582 8.442,5.595 13.508,5.595c35.518,0 111.161,0 144.788,0c9.231,0 16.714,-7.483 16.714,-16.714c0,-31.414 0,-98.968 0,-130.902Z" style="fill:#b46161;fill-opacity:0;stroke:#5b2d2d;stroke-width:16px;stroke-linecap:round;stroke-miterlimit:1.5;"/><circle cx="540.303" cy="527.414" r="33.254" style="fill:#b46161;fill-opacity:0;stroke:#5b2d2d;stroke-width:16px;stroke-linecap:round;stroke-miterlimit:1.5;"/><path d="M630.605,503.404l70.135,-39.344l0,126.275l-70.135,-37.904" style="fill:none;stroke:#5b2d2d;stroke-width:16px;stroke-linecap:round;stroke-miterlimit:1.5;"/></svg>