<?xml version="1.0" encoding="UTF-8" standalone="no"?><!DOCTYPE svg PUBLIC "-//W3C//DTD SVG 1.1//EN" "http://www.w3.org/Graphics/SVG/1.1/DTD/svg11.dtd"><svg width="100%" height="100%" viewBox="0 0 800 800" version="1.1" xmlns="http://www.w3.org/2000/svg" xmlns:xlink="http://www.w3.org/1999/xlink" xml:space="preserve" style="fill-rule:evenodd;clip-rule:evenodd;stroke-linejoin:round;stroke-miterlimit:1.41421;"><path d="M787.803,336.024c-15.233,-60.975 -43.831,-84.471 -96.463,-92.96c-30.348,-4.457 -176.005,-10.187 -291.599,-10.187l0.518,0.001c-115.592,0 -261.251,5.731 -291.599,10.187c-52.632,8.489 -81.228,31.985 -96.461,92.961c-5.124,20.509 -12.199,132.848 -12.199,175.716l0,9.391c0,42.87 7.075,155.209 12.199,175.718c15.233,60.975 43.829,84.471 96.461,92.96c30.348,4.457 176.007,10.187 291.599,10.187l-0.518,0.002c115.594,0 261.251,-5.73 291.599,-10.187c52.632,-8.489 81.23,-31.987 96.463,-92.962c5.124,-20.509 12.197,-132.847 12.197,-175.718l0,-9.391c0,-42.869 -7.073,-155.207 -12.197,-175.718Zm-470.996,66.802l212.51,110.923l-212.51,116.302l0,-227.225Z" style="fill:#5b2d2d;"/><path d="M316.807,402.826l212.51,110.923l-24.348,13.325l-188.162,-124.248Z" style="fill:#895454;fill-rule:nonzero;"/><g><path d="M48.081,116.661l20.709,-42.655l17.31,0l-30.168,56.874l0,33.135l-15.702,0l0,-33.135l-30.23,-56.874l17.371,0l20.71,42.655Z" style="fill:#5b2d2d;fill-rule:nonzero;stroke:#5b2d2d;stroke-width:7.5px;"/><path d="M203.89,121.359c0,8.82 -1.525,16.558 -4.574,23.214c-3.05,6.655 -7.408,11.766 -13.075,15.331c-5.667,3.565 -12.189,5.347 -19.566,5.347c-7.295,0 -13.796,-1.782 -19.504,-5.347c-5.708,-3.565 -10.118,-8.645 -13.229,-15.239c-3.112,-6.594 -4.688,-14.198 -4.729,-22.811l0,-5.069c0,-8.779 1.555,-16.527 4.667,-23.244c3.111,-6.718 7.501,-11.859 13.167,-15.424c5.667,-3.565 12.169,-5.348 19.504,-5.348c7.336,0 13.838,1.762 19.504,5.286c5.667,3.524 10.046,8.593 13.137,15.207c3.091,6.615 4.657,14.312 4.698,23.09l0,5.007Zm-15.64,-4.698c0,-9.973 -1.885,-17.618 -5.656,-22.935c-3.771,-5.316 -9.119,-7.975 -16.043,-7.975c-6.758,0 -12.044,2.648 -15.856,7.944c-3.812,5.296 -5.76,12.787 -5.842,22.472l0,5.192c0,9.892 1.927,17.537 5.78,22.935c3.853,5.399 9.201,8.099 16.042,8.099c6.924,0 12.251,-2.638 15.98,-7.913c3.73,-5.275 5.595,-12.982 5.595,-23.121l0,-4.698Z" style="fill:#5b2d2d;fill-rule:nonzero;stroke:#5b2d2d;stroke-width:7.5px;"/><path d="M323.288,74.006l0,60.15c0,9.561 -3.06,17.134 -9.18,22.719c-6.12,5.584 -14.27,8.376 -24.449,8.376c-10.304,0 -18.484,-2.751 -24.543,-8.253c-6.058,-5.502 -9.087,-13.136 -9.087,-22.904l0,-60.088l15.578,0l0,60.212c0,6.017 1.525,10.612 4.575,13.786c3.05,3.173 7.542,4.76 13.477,4.76c12.034,0 18.051,-6.347 18.051,-19.041l0,-59.717l15.578,0Z" style="fill:#5b2d2d;fill-rule:nonzero;stroke:#5b2d2d;stroke-width:7.5px;"/><path d="M442.995,86.617l-28.066,0l0,77.398l-15.516,0l0,-77.398l-27.819,0l0,-12.611l71.401,0l0,12.611Z" style="fill:#5b2d2d;fill-rule:nonzero;stroke:#5b2d2d;stroke-width:7.5px;"/><path d="M558.622,74.006l0,60.15c0,9.561 -3.06,17.134 -9.18,22.719c-6.12,5.584 -14.27,8.376 -24.449,8.376c-10.304,0 -18.484,-2.751 -24.543,-8.253c-6.058,-5.502 -9.087,-13.136 -9.087,-22.904l0,-60.088l15.578,0l0,60.212c0,6.017 1.525,10.612 4.575,13.786c3.05,3.173 7.542,4.76 13.477,4.76c12.034,0 18.051,-6.347 18.051,-19.041l0,-59.717l15.578,0Z" style="fill:#5b2d2d;fill-rule:nonzero;stroke:#5b2d2d;stroke-width:7.5px;"/><path d="M613.295,164.015l0,-90.009l30.848,0c10.18,0 17.928,2.04 23.244,6.12c5.317,4.08 7.975,10.159 7.975,18.237c0,4.121 -1.113,7.83 -3.338,11.127c-2.226,3.297 -5.481,5.852 -9.768,7.666c4.864,1.318 8.624,3.802 11.282,7.449c2.659,3.647 3.988,8.026 3.988,13.137c0,8.448 -2.71,14.939 -8.129,19.473c-5.42,4.533 -13.178,6.8 -23.275,6.8l-32.827,0Zm15.641,-40.616l0,28.128l17.371,0c4.904,0 8.737,-1.216 11.498,-3.647c2.762,-2.432 4.142,-5.811 4.142,-10.138c0,-9.356 -4.78,-14.136 -14.342,-14.343l-18.669,0Zm0,-11.498l15.331,0c4.863,0 8.665,-1.102 11.406,-3.307c2.74,-2.205 4.111,-5.327 4.111,-9.366c0,-4.451 -1.268,-7.666 -3.802,-9.644c-2.535,-1.978 -6.481,-2.967 -11.839,-2.967l-15.207,0l0,25.284Z" style="fill:#5b2d2d;fill-rule:nonzero;stroke:#5b2d2d;stroke-width:7.5px;"/><path d="M783.756,123.832l-36.968,0l0,27.695l43.212,0l0,12.488l-58.852,0l0,-90.009l58.419,0l0,12.611l-42.779,0l0,24.851l36.968,0l0,12.364Z" style="fill:#5b2d2d;fill-rule:nonzero;stroke:#5b2d2d;stroke-width:7.5px;"/></g></svg>