<?xml version="1.0" encoding="UTF-8" standalone="no"?><!DOCTYPE svg PUBLIC "-//W3C//DTD SVG 1.1//EN" "http://www.w3.org/Graphics/SVG/1.1/DTD/svg11.dtd"><svg width="100%" height="100%" viewBox="0 0 800 800" version="1.1" xmlns="http://www.w3.org/2000/svg" xmlns:xlink="http://www.w3.org/1999/xlink" xml:space="preserve" style="fill-rule:evenodd;clip-rule:evenodd;stroke-linejoin:round;stroke-miterlimit:1.41421;"><g><path d="M173.067,740.132l20.124,-73.558l27.203,0l-34.003,101.038l-26.648,0l-33.726,-101.038l26.995,0l20.055,73.558Z" style="fill:#5b2d2d;fill-rule:nonzero;stroke:#5b2d2d;stroke-width:4px;"/><rect x="257.839" y="666.574" width="24.288" height="101.038" style="fill:#5b2d2d;fill-rule:nonzero;stroke:#5b2d2d;stroke-width:4px;"/><path d="M359.474,666.574l22.553,70.296l22.484,-70.296l32.06,0l0,101.038l-24.427,0l0,-23.594l2.359,-48.298l-24.426,71.892l-16.1,0l-24.496,-71.962l2.359,48.368l0,23.594l-24.357,0l0,-101.038l31.991,0Z" style="fill:#5b2d2d;fill-rule:nonzero;stroke:#5b2d2d;stroke-width:4px;"/><path d="M543.133,724.796l-38.306,0l0,24.08l45.245,0l0,18.736l-69.602,0l0,-101.038l69.741,0l0,18.806l-45.384,0l0,21.304l38.306,0l0,18.112Z" style="fill:#5b2d2d;fill-rule:nonzero;stroke:#5b2d2d;stroke-width:4px;"/><path d="M673.983,719.175c0,9.854 -1.828,18.574 -5.483,26.162c-3.654,7.587 -8.847,13.427 -15.579,17.522c-6.731,4.094 -14.399,6.141 -23.004,6.141c-8.605,0 -16.238,-1.978 -22.9,-5.933c-6.662,-3.956 -11.855,-9.611 -15.579,-16.967c-3.724,-7.356 -5.679,-15.799 -5.864,-25.329l0,-5.69c0,-9.901 1.816,-18.633 5.448,-26.197c3.631,-7.564 8.836,-13.404 15.613,-17.522c6.778,-4.117 14.492,-6.176 23.143,-6.176c8.559,0 16.192,2.036 22.9,6.107c6.709,4.071 11.925,9.865 15.649,17.383c3.724,7.518 5.609,16.134 5.655,25.849l0,4.65Zm-24.773,-4.233c0,-10.039 -1.677,-17.661 -5.031,-22.866c-3.354,-5.204 -8.154,-7.806 -14.4,-7.806c-12.213,0 -18.667,9.16 -19.361,27.48l-0.069,7.425c0,9.9 1.642,17.51 4.927,22.831c3.285,5.32 8.165,7.98 14.642,7.98c6.153,0 10.895,-2.614 14.226,-7.842c3.331,-5.227 5.019,-12.745 5.066,-22.553l0,-4.649Z" style="fill:#5b2d2d;fill-rule:nonzero;stroke:#5b2d2d;stroke-width:4px;"/></g><clipPath id="_clip1"><rect x="80.815" y="31" width="638.37" height="550.852"/></clipPath><g clip-path="url(#_clip1)"><g><path d="M715.581,134.375c4.757,-26.693 4.654,-54.138 -11.835,-74.895c-22.997,-29.103 -71.956,-30.174 -105.496,-25.041c-27.285,4.175 -119.571,44.892 -150.969,142.367c55.63,-4.232 84.79,4.005 79.435,65.263c-2.239,25.627 -15.187,53.705 -29.637,80.625c-16.696,31.028 -47.986,91.961 -89.022,48.042c-36.959,-39.532 -34.184,-115.133 -42.637,-165.476c-4.705,-28.243 -9.684,-63.446 -18.935,-92.497c-7.974,-24.984 -26.266,-55.101 -48.629,-61.629c-24.022,-7.063 -53.716,3.959 -71.158,14.23c-55.528,32.634 -97.851,79.07 -145.883,117.372l0,3.589c9.519,9.091 12.083,24.021 26.096,26.054c33.066,4.871 64.578,-30.816 86.566,6.312c13.37,22.683 17.55,47.559 26.106,72.017c11.45,32.573 20.279,68.038 29.638,105.496c15.836,63.446 35.311,158.244 90.149,181.462c27.975,11.882 70.031,-4.01 91.323,-16.639c57.67,-34.122 102.613,-83.611 141.075,-133.954c87.956,-119.149 136.477,-254.123 143.813,-292.698Z" style="fill:#5b2d2d;"/></g></g></svg>