<?xml version="1.0" encoding="UTF-8" standalone="no"?><!DOCTYPE svg PUBLIC "-//W3C//DTD SVG 1.1//EN" "http://www.w3.org/Graphics/SVG/1.1/DTD/svg11.dtd"><svg width="100%" height="100%" viewBox="0 0 800 800" version="1.1" xmlns="http://www.w3.org/2000/svg" xmlns:xlink="http://www.w3.org/1999/xlink" xml:space="preserve" style="fill-rule:evenodd;clip-rule:evenodd;stroke-linejoin:round;stroke-miterlimit:1.41421;"><path d="M761.626,342.798c-14.204,-56.859 -40.872,-78.769 -89.951,-86.685c-28.3,-4.156 -164.125,-9.499 -271.916,-9.499l0.482,0.001c-107.789,0 -243.616,5.343 -271.916,9.499c-49.079,7.916 -75.745,29.827 -89.95,86.686c-4.778,19.125 -11.375,123.881 -11.375,163.856l0,8.756c0,39.976 6.597,144.733 11.375,163.858c14.205,56.859 40.871,78.769 89.95,86.685c28.3,4.156 164.127,9.499 271.916,9.499l-0.482,0.002c107.791,0 243.616,-5.343 271.916,-9.499c49.079,-7.916 75.747,-29.828 89.951,-86.687c4.778,-19.125 11.374,-123.88 11.374,-163.858l0,-8.756c0,-39.976 -6.596,-144.731 -11.374,-163.858Zm-439.203,62.293l198.165,103.436l-198.165,108.451l0,-211.887Z" style="fill:#5b2d2d;"/><path d="M333,424l164.241,85.728l-18.818,10.298l-145.423,-96.026Z" style="fill:#895454;fill-rule:nonzero;"/><g><path d="M71.835,122.929l19.312,-39.776l16.141,0l-28.132,53.035l0,30.898l-14.642,0l0,-30.898l-28.189,-53.035l16.199,0l19.311,39.776Z" style="fill:#5b2d2d;fill-rule:nonzero;stroke:#5b2d2d;stroke-width:5px;"/><path d="M217.128,127.31c0,8.224 -1.422,15.44 -4.266,21.647c-2.844,6.206 -6.908,10.972 -12.192,14.296c-5.285,3.324 -11.366,4.986 -18.245,4.986c-6.803,0 -12.865,-1.662 -18.188,-4.986c-5.323,-3.324 -9.435,-8.061 -12.336,-14.21c-2.902,-6.149 -4.372,-13.24 -4.41,-21.272l0,-4.727c0,-8.185 1.45,-15.41 4.352,-21.675c2.902,-6.264 6.994,-11.058 12.279,-14.383c5.284,-3.324 11.346,-4.986 18.187,-4.986c6.841,0 12.903,1.643 18.188,4.929c5.284,3.286 9.367,8.013 12.25,14.181c2.882,6.168 4.342,13.345 4.381,21.531l0,4.669Zm-14.585,-4.381c0,-9.3 -1.758,-16.429 -5.275,-21.387c-3.516,-4.957 -8.502,-7.436 -14.959,-7.436c-6.302,0 -11.231,2.469 -14.786,7.407c-3.555,4.939 -5.371,11.924 -5.448,20.955l0,4.842c0,9.224 1.797,16.353 5.39,21.387c3.594,5.035 8.58,7.552 14.96,7.552c6.456,0 11.423,-2.46 14.901,-7.379c3.478,-4.919 5.217,-12.106 5.217,-21.56l0,-4.381Z" style="fill:#5b2d2d;fill-rule:nonzero;stroke:#5b2d2d;stroke-width:5px;"/><path d="M328.466,83.153l0,56.09c0,8.916 -2.853,15.978 -8.56,21.185c-5.707,5.208 -13.307,7.811 -22.799,7.811c-9.608,0 -17.237,-2.565 -22.886,-7.696c-5.649,-5.13 -8.474,-12.249 -8.474,-21.358l0,-56.032l14.527,0l0,56.148c0,5.611 1.422,9.896 4.266,12.855c2.844,2.959 7.033,4.439 12.567,4.439c11.221,0 16.832,-5.919 16.832,-17.755l0,-55.687l14.527,0Z" style="fill:#5b2d2d;fill-rule:nonzero;stroke:#5b2d2d;stroke-width:5px;"/><path d="M440.093,94.913l-26.171,0l0,72.173l-14.47,0l0,-72.173l-25.941,0l0,-11.76l66.582,0l0,11.76Z" style="fill:#5b2d2d;fill-rule:nonzero;stroke:#5b2d2d;stroke-width:5px;"/><path d="M547.915,83.153l0,56.09c0,8.916 -2.853,15.978 -8.56,21.185c-5.707,5.208 -13.307,7.811 -22.799,7.811c-9.608,0 -17.237,-2.565 -22.886,-7.696c-5.649,-5.13 -8.474,-12.249 -8.474,-21.358l0,-56.032l14.527,0l0,56.148c0,5.611 1.422,9.896 4.266,12.855c2.844,2.959 7.033,4.439 12.567,4.439c11.221,0 16.832,-5.919 16.832,-17.755l0,-55.687l14.527,0Z" style="fill:#5b2d2d;fill-rule:nonzero;stroke:#5b2d2d;stroke-width:5px;"/><path d="M598.898,167.086l0,-83.933l28.766,0c9.492,0 16.717,1.902 21.675,5.707c4.957,3.805 7.436,9.473 7.436,17.006c0,3.843 -1.037,7.302 -3.113,10.376c-2.075,3.075 -5.111,5.457 -9.108,7.148c4.535,1.23 8.042,3.546 10.521,6.947c2.478,3.401 3.718,7.484 3.718,12.25c0,7.878 -2.527,13.931 -7.581,18.158c-5.053,4.228 -12.288,6.341 -21.704,6.341l-30.61,0Zm14.585,-37.873l0,26.229l16.198,0c4.574,0 8.148,-1.134 10.723,-3.401c2.574,-2.268 3.862,-5.419 3.862,-9.454c0,-8.724 -4.458,-13.182 -13.374,-13.374l-17.409,0Zm0,-10.723l14.296,0c4.535,0 8.08,-1.028 10.636,-3.084c2.555,-2.056 3.833,-4.967 3.833,-8.733c0,-4.151 -1.182,-7.148 -3.545,-8.993c-2.364,-1.845 -6.043,-2.767 -11.039,-2.767l-14.181,0l0,23.577Z" style="fill:#5b2d2d;fill-rule:nonzero;stroke:#5b2d2d;stroke-width:5px;"/><path d="M757.853,129.616l-34.473,0l0,25.826l40.295,0l0,11.644l-54.88,0l0,-83.933l54.476,0l0,11.76l-39.891,0l0,23.174l34.473,0l0,11.529Z" style="fill:#5b2d2d;fill-rule:nonzero;stroke:#5b2d2d;stroke-width:5px;"/></g></svg>