<?xml version="1.0" encoding="UTF-8" standalone="no"?>
<!-- Created with Inkscape (http://www.inkscape.org/) -->

<svg
   xmlns:dc="http://purl.org/dc/elements/1.1/"
   xmlns:cc="http://creativecommons.org/ns#"
   xmlns:rdf="http://www.w3.org/1999/02/22-rdf-syntax-ns#"
   xmlns:svg="http://www.w3.org/2000/svg"
   xmlns="http://www.w3.org/2000/svg"
   xmlns:sodipodi="http://sodipodi.sourceforge.net/DTD/sodipodi-0.dtd"
   xmlns:inkscape="http://www.inkscape.org/namespaces/inkscape"
   width="128"
   height="128"
   id="svg3802"
   version="1.1"
   inkscape:version="0.48.4 r9939"
   sodipodi:docname="logos.svg">
  <defs
     id="defs3804" />
  <sodipodi:namedview
     id="base"
     pagecolor="#ffffff"
     bordercolor="#666666"
     borderopacity="1.0"
     inkscape:pageopacity="0.0"
     inkscape:pageshadow="2"
     inkscape:zoom="5.6"
     inkscape:cx="47.630987"
     inkscape:cy="52.177673"
     inkscape:document-units="px"
     inkscape:current-layer="layer1"
     showgrid="false"
     showguides="true"
     inkscape:guide-bbox="true"
     inkscape:window-width="1280"
     inkscape:window-height="969"
     inkscape:window-x="0"
     inkscape:window-y="30"
     inkscape:window-maximized="1">
    <sodipodi:guide
       position="0,0"
       orientation="0,128"
       id="guide3810" />
    <sodipodi:guide
       position="128,0"
       orientation="-128,0"
       id="guide3812" />
    <sodipodi:guide
       position="128,128"
       orientation="0,-128"
       id="guide3814" />
    <sodipodi:guide
       position="0,128"
       orientation="128,0"
       id="guide3816" />
    <sodipodi:guide
       orientation="-0.70710678,0.70710678"
       position="166.92771,-38.385797"
       id="guide4370" />
  </sodipodi:namedview>
  <metadata
     id="metadata3807">
    <rdf:RDF>
      <cc:Work
         rdf:about="">
        <dc:format>image/svg+xml</dc:format>
        <dc:type
           rdf:resource="http://purl.org/dc/dcmitype/StillImage" />
        <dc:title></dc:title>
      </cc:Work>
    </rdf:RDF>
  </metadata>
  <g
     inkscape:label="Calque 1"
     inkscape:groupmode="layer"
     id="layer1"
     transform="translate(0,-3029.0866)">
    <path
       sodipodi:type="arc"
       style="fill:none;stroke:#000000;stroke-width:1.32553024;stroke-miterlimit:4;stroke-opacity:1;stroke-dasharray:none"
       id="path3818"
       sodipodi:cx="64"
       sodipodi:cy="64"
       sodipodi:rx="64"
       sodipodi:ry="64"
       d="M 128,64 C 128,99.346224 99.346224,128 64,128 28.653776,128 0,99.346224 0,64 0,28.653776 28.653776,0 64,0 c 35.346224,0 64,28.653776 64,64 z"
       transform="matrix(0.9807396,0,0,0.9807396,1.2326656,3030.3193)" />
    <g
       style="font-size:22.10289192px;font-style:normal;font-weight:normal;line-height:125%;letter-spacing:0px;word-spacing:0px;fill:#000000;fill-opacity:1;stroke:none;font-family:Sans"
       id="text3788">
      <path
         d="m 27.363305,3066.8535 0,14.5879 6.277222,0 0,3.647 -10.432565,0 0,-18.2349 4.155343,0"
         style="font-variant:normal;font-weight:bold;font-stretch:normal;text-align:start;line-height:125%;writing-mode:lr-tb;text-anchor:start;font-family:League Spartan;-inkscape-font-specification:League Spartan Bold"
         id="path4387" />
      <path
         d="m 34.866201,3075.9599 c 0,-2.6376 0.89885,-4.87 2.696553,-6.6972 1.797697,-1.8271 3.963778,-2.7407 6.49825,-2.7408 2.549188,10e-5 4.71527,0.9137 6.498251,2.7408 1.782948,1.8125 2.674431,4.0448 2.67445,6.6972 -1.9e-5,2.6671 -0.876767,4.9142 -2.630245,6.7414 -1.75351,1.8124 -3.934327,2.7186 -6.542456,2.7186 -2.667089,0 -4.870008,-0.8988 -6.608764,-2.6965 -1.724027,-1.8125 -2.586039,-4.067 -2.586039,-6.7635 m 4.486887,0 c -5e-6,0.9578 0.147348,1.8345 0.442058,2.6302 0.2947,0.781 0.810433,1.4441 1.547203,1.9893 0.736755,0.5452 1.642973,0.8178 2.718655,0.8178 1.547192,0 2.711276,-0.5305 3.492257,-1.5914 0.79569,-1.0609 1.193542,-2.3429 1.193556,-3.8459 -1.4e-5,-1.4883 -0.405233,-2.7629 -1.215659,-3.8238 -0.795716,-1.0757 -1.952433,-1.6135 -3.470154,-1.6135 -1.503004,0 -2.667089,0.5378 -3.492257,1.6135 -0.810444,1.0609 -1.215664,2.3355 -1.215659,3.8238"
         style="font-variant:normal;font-weight:bold;font-stretch:normal;text-align:start;line-height:125%;writing-mode:lr-tb;text-anchor:start;font-family:League Spartan;-inkscape-font-specification:League Spartan Bold"
         id="path4389" />
      <path
         d="m 71.555964,3074.8768 0,3.9565 c -0.471545,2.166 -1.503013,3.809 -3.094404,4.9289 -1.591422,1.1052 -3.367019,1.6577 -5.326797,1.6577 -2.460796,0 -4.560569,-0.9209 -6.299325,-2.7628 -1.724027,-1.8419 -2.586038,-4.067 -2.586038,-6.6751 0,-2.6523 0.847276,-4.8921 2.541833,-6.7193 1.69455,-1.8271 3.809058,-2.7407 6.34353,-2.7408 2.961775,10e-5 5.304679,1.0389 7.028719,3.1166 l -2.718655,2.9838 c -0.97254,-1.5619 -2.328183,-2.3428 -4.066933,-2.3429 -1.281976,1e-4 -2.379752,0.56 -3.29333,1.6799 -0.898857,1.1051 -1.348282,2.446 -1.348277,4.0227 -5e-6,1.5472 0.44942,2.8734 1.348277,3.9785 0.913578,1.0904 2.011354,1.6356 3.29333,1.6356 1.060929,0 1.981881,-0.3168 2.762862,-0.9504 0.795691,-0.6483 1.193542,-1.503 1.193556,-2.5639 l -4.199549,0 0,-3.205 8.421201,0"
         style="font-variant:normal;font-weight:bold;font-stretch:normal;text-align:start;line-height:125%;writing-mode:lr-tb;text-anchor:start;font-family:League Spartan;-inkscape-font-specification:League Spartan Bold"
         id="path4391" />
      <path
         d="m 72.553359,3075.9599 c -10e-7,-2.6376 0.898849,-4.87 2.696553,-6.6972 1.797697,-1.8271 3.963778,-2.7407 6.49825,-2.7408 2.549188,10e-5 4.715269,0.9137 6.49825,2.7408 1.782949,1.8125 2.674431,4.0448 2.67445,6.6972 -1.9e-5,2.6671 -0.876766,4.9142 -2.630244,6.7414 -1.753511,1.8124 -3.934327,2.7186 -6.542456,2.7186 -2.667089,0 -4.870009,-0.8988 -6.608765,-2.6965 -1.724027,-1.8125 -2.586039,-4.067 -2.586038,-6.7635 m 4.486887,0 c -5e-6,0.9578 0.147347,1.8345 0.442058,2.6302 0.294699,0.781 0.810433,1.4441 1.547202,1.9893 0.736756,0.5452 1.642973,0.8178 2.718656,0.8178 1.547191,0 2.711276,-0.5305 3.492257,-1.5914 0.79569,-1.0609 1.193542,-2.3429 1.193556,-3.8459 -1.4e-5,-1.4883 -0.405234,-2.7629 -1.215659,-3.8238 -0.795716,-1.0757 -1.952433,-1.6135 -3.470154,-1.6135 -1.503005,0 -2.667089,0.5378 -3.492257,1.6135 -0.810445,1.0609 -1.215664,2.3355 -1.215659,3.8238"
         style="font-variant:normal;font-weight:bold;font-stretch:normal;text-align:start;line-height:125%;writing-mode:lr-tb;text-anchor:start;font-family:League Spartan;-inkscape-font-specification:League Spartan Bold"
         id="path4393" />
      <path
         d="m 99.473643,3066.5219 c 0.987257,10e-5 1.952417,0.1474 2.895477,0.4421 0.94305,0.28 1.64297,0.56 2.09978,0.8399 l 0.66308,0.4421 -1.67982,3.3154 c -0.13263,-0.088 -0.31682,-0.1989 -0.55257,-0.3315 -0.23577,-0.1474 -0.67783,-0.3389 -1.32617,-0.5747 -0.64836,-0.2358 -1.25251,-0.3536 -1.81244,-0.3537 -0.692564,10e-5 -1.230401,0.1474 -1.613511,0.4421 -0.368388,0.2947 -0.552578,0.6926 -0.552572,1.1936 -6e-6,0.2505 0.0884,0.4862 0.265235,0.7073 0.176816,0.2063 0.478889,0.4347 0.906218,0.6851 0.427315,0.2358 0.803064,0.4274 1.127248,0.5747 0.324162,0.1474 0.825162,0.3684 1.502992,0.6631 1.17881,0.501 2.18081,1.1862 3.006,2.0556 0.83989,0.8546 1.25985,1.8272 1.25986,2.9176 -1e-5,1.0462 -0.19157,1.9597 -0.57467,2.7407 -0.3684,0.781 -0.88413,1.3925 -1.5472,1.8346 -0.64837,0.442 -1.3704,0.7662 -2.16609,0.9725 -0.79571,0.221 -1.657724,0.3315 -2.586037,0.3315 -0.79571,0 -1.576678,-0.081 -2.342906,-0.2431 -0.766238,-0.1621 -1.407221,-0.361 -1.922952,-0.5968 -0.515737,-0.2505 -0.979897,-0.4936 -1.392482,-0.7294 -0.412589,-0.2357 -0.714661,-0.4347 -0.906219,-0.5968 l -0.287337,-0.2431 2.077672,-3.4922 c 0.17682,0.1473 0.419952,0.3389 0.729395,0.5746 0.309437,0.2211 0.854641,0.5231 1.635614,0.9062 0.795698,0.3832 1.495623,0.5747 2.099775,0.5747 1.753487,0 2.630237,-0.5968 2.630247,-1.7903 -1e-5,-0.2505 -0.0663,-0.4789 -0.19893,-0.6852 -0.11789,-0.221 -0.33892,-0.4347 -0.66309,-0.641 -0.309445,-0.221 -0.589415,-0.3905 -0.839906,-0.5084 -0.235772,-0.1326 -0.633623,-0.3241 -1.193556,-0.5746 -0.545211,-0.2653 -0.95043,-0.4642 -1.215659,-0.5968 -1.105149,-0.5452 -1.959793,-1.223 -2.563935,-2.0335 -0.604149,-0.8251 -0.906221,-1.7093 -0.906219,-2.6523 -2e-6,-1.6356 0.604143,-2.9692 1.812437,-4.0006 1.208286,-1.0462 2.586032,-1.5693 4.133241,-1.5694"
         style="font-variant:normal;font-weight:bold;font-stretch:normal;text-align:start;line-height:125%;writing-mode:lr-tb;text-anchor:start;font-family:League Spartan;-inkscape-font-specification:League Spartan Bold"
         id="path4395" />
    </g>
    <g
       style="font-size:15.68017101px;font-style:normal;font-variant:normal;font-weight:normal;font-stretch:normal;text-align:start;line-height:125%;letter-spacing:0px;word-spacing:0px;writing-mode:lr-tb;text-anchor:start;fill:#000000;fill-opacity:1;stroke:none;font-family:Blackout;-inkscape-font-specification:Blackout"
       id="text4354">
      <path
         d="m 29.179642,3096.6017 -2.273625,0 -1.034891,3.0733 -2.994913,0 3.418278,-11.666 3.512358,0 3.418277,11.666 -2.994912,0 -1.050572,-3.0733"
         style="line-height:125%;font-family:Blackout;-inkscape-font-specification:Blackout"
         id="path4398" />
      <path
         d="m 39.714022,3088.009 2.791071,0 0,11.666 -2.665629,0 -3.136034,-5.7389 0,5.7389 -2.791071,0 0,-11.666 2.681309,0 3.120354,5.7233 0,-5.7233 0,0"
         style="line-height:125%;font-family:Blackout;-inkscape-font-specification:Blackout"
         id="path4400" />
      <path
         d="m 51.215673,3093.842 c -8e-6,0.784 -0.08886,1.5315 -0.266563,2.2423 -0.177716,0.7004 -0.470412,1.3171 -0.87809,1.8502 -0.40769,0.5332 -0.940816,0.9565 -1.599377,1.2701 -0.658572,0.3136 -1.463486,0.4704 -2.414746,0.4704 l -0.344964,0 -2.352026,0 0,-11.666 2.352026,0 c 0.909446,0 1.709134,0.1516 2.399066,0.4547 0.689922,0.2927 1.264861,0.7004 1.724819,1.2231 0.459945,0.5122 0.804908,1.129 1.034891,1.8502 0.229968,0.7109 0.344956,1.4792 0.344964,2.305"
         style="line-height:125%;font-family:Blackout;-inkscape-font-specification:Blackout"
         id="path4402" />
      <path
         d="m 64.782697,3093.842 c -8e-6,0.784 -0.08886,1.5315 -0.266563,2.2423 -0.177716,0.7004 -0.470412,1.3171 -0.878089,1.8502 -0.407691,0.5332 -0.940816,0.9565 -1.599378,1.2701 -0.658572,0.3136 -1.463486,0.4704 -2.414746,0.4704 l -0.344964,0 -2.352026,0 0,-11.666 2.352026,0 c 0.909447,0 1.709135,0.1516 2.399066,0.4547 0.689922,0.2927 1.264861,0.7004 1.724819,1.2231 0.459945,0.5122 0.804908,1.129 1.034891,1.8502 0.229968,0.7109 0.344956,1.4792 0.344964,2.305"
         style="line-height:125%;font-family:Blackout;-inkscape-font-specification:Blackout"
         id="path4404" />
      <path
         d="m 73.172812,3090.6433 -4.51589,0 0,1.8816 3.324197,0 0,2.6343 -3.324197,0 0,1.8816 4.51589,0 0,2.6342 -7.150158,0 0,-11.666 7.150158,0 0,2.6343 0,0"
         style="line-height:125%;font-family:Blackout;-inkscape-font-specification:Blackout"
         id="path4406" />
      <path
         d="m 81.992662,3096.9624 c -0.02091,0.3763 -0.130675,0.7317 -0.329283,1.0662 -0.18817,0.3241 -0.454732,0.6116 -0.799689,0.8624 -0.334517,0.2405 -0.742201,0.4339 -1.223053,0.5802 -0.480864,0.1359 -1.024443,0.2038 -1.630738,0.2038 -0.470409,0 -0.91468,-0.063 -1.332815,-0.1881 -0.407686,-0.1255 -0.778783,-0.3032 -1.113292,-0.5331 -0.334511,-0.23 -0.621981,-0.507 -0.862409,-0.8311 -0.229976,-0.3345 -0.397231,-0.7108 -0.501766,-1.129 l 2.508828,-1.0505 c -0.02091,0.01 -3e-6,0.084 0.06272,0.2195 0.07317,0.1359 0.17248,0.2822 0.297924,0.439 0.125438,0.1464 0.277013,0.2823 0.454725,0.4077 0.188158,0.115 0.386773,0.1568 0.595846,0.1255 0.177705,-0.021 0.350186,-0.099 0.517446,-0.2352 0.177704,-0.1359 0.261331,-0.3502 0.250883,-0.6429 -0.01046,-0.1777 -0.08363,-0.3398 -0.219523,-0.4861 -0.125446,-0.1568 -0.308381,-0.3188 -0.548806,-0.4861 -0.533129,-0.3554 -1.029667,-0.6638 -1.489616,-0.9251 -0.4495,-0.2718 -0.846731,-0.5541 -1.191693,-0.8468 -0.334511,-0.2926 -0.601074,-0.6219 -0.799689,-0.9878 -0.188162,-0.3659 -0.282243,-0.8258 -0.282243,-1.3799 0,-0.5122 0.104534,-0.9617 0.313604,-1.3485 0.209068,-0.3867 0.486084,-0.7108 0.831049,-0.9721 0.344962,-0.2614 0.742192,-0.46 1.191693,-0.5959 0.449495,-0.1359 0.914673,-0.209 1.395535,-0.2195 0.574935,0 1.0767,0.084 1.505296,0.2509 0.439039,0.1568 0.804909,0.3606 1.097612,0.6115 0.303143,0.2509 0.538346,0.5384 0.705608,0.8624 0.167248,0.3136 0.277009,0.6272 0.329283,0.9408 l -2.304985,0.9095 c -0.03137,-0.115 -0.07841,-0.2404 -0.141121,-0.3763 -0.06273,-0.1464 -0.15158,-0.2771 -0.266563,-0.392 -0.104539,-0.1255 -0.235207,-0.23 -0.392004,-0.3137 -0.146353,-0.084 -0.318835,-0.1254 -0.517446,-0.1254 -0.209073,0 -0.402461,0.068 -0.580166,0.2038 -0.167259,0.1255 -0.250886,0.3189 -0.250883,0.5802 -3e-6,0.1986 0.0784,0.3763 0.235202,0.5331 0.167252,0.1464 0.423361,0.345 0.768329,0.5959 0.480854,0.2718 0.940805,0.5436 1.379855,0.8154 0.449492,0.2718 0.846723,0.5801 1.191693,0.9251 0.344957,0.345 0.621973,0.737 0.831049,1.176 0.209061,0.4286 0.313596,0.9408 0.313603,1.5367 l 0,0.2195 0,0"
         style="line-height:125%;font-family:Blackout;-inkscape-font-specification:Blackout"
         id="path4408" />
      <path
         d="m 85.408978,3088.009 0,11.666 -2.634268,0 0,-11.666 2.634268,0 0,0"
         style="line-height:125%;font-family:Blackout;-inkscape-font-specification:Blackout"
         id="path4410" />
      <path
         d="m 94.931987,3097.5112 c -0.198623,0.2822 -0.439052,0.5592 -0.721287,0.831 -0.271797,0.2614 -0.580174,0.4913 -0.92513,0.69 -0.334517,0.1986 -0.705614,0.3606 -1.113293,0.486 -0.407689,0.115 -0.83628,0.1725 -1.285774,0.1725 l -0.01568,0 c -0.700384,0 -1.317137,-0.115 -1.85026,-0.3449 -0.533128,-0.23 -0.982626,-0.5488 -1.348495,-0.9565 -0.355418,-0.4077 -0.632434,-0.8938 -0.831049,-1.4583 -0.198615,-0.5645 -0.308377,-1.1812 -0.329283,-1.8502 l 0,-2.4148 c 0,-0.6272 0.09408,-1.223 0.282243,-1.7875 0.188161,-0.5645 0.465177,-1.0558 0.831049,-1.474 0.365869,-0.4285 0.820593,-0.7683 1.364175,-1.0192 0.543576,-0.2508 1.170782,-0.3763 1.88162,-0.3763 l 0.01568,0 c 0.71083,0.031 1.285769,0.1568 1.724819,0.3763 0.449492,0.2091 0.804909,0.4548 1.066252,0.737 0.271782,0.2822 0.475624,0.5645 0.611526,0.8467 0.135887,0.2823 0.256102,0.5018 0.360644,0.6586 l -2.163863,1.4269 c -0.05227,-0.115 -0.114994,-0.2457 -0.188162,-0.392 -0.06273,-0.1464 -0.156808,-0.2823 -0.282243,-0.4077 -0.114994,-0.1254 -0.261342,-0.23 -0.439045,-0.3136 -0.177714,-0.094 -0.402463,-0.1411 -0.674247,-0.1411 -0.522677,0 -0.940814,0.1777 -1.254414,0.5331 -0.303153,0.345 -0.454728,0.8049 -0.454725,1.3799 l 0,2.2736 c -3e-6,0.2822 0.04704,0.5488 0.141121,0.7997 0.09408,0.2404 0.21952,0.4495 0.376325,0.6272 0.167251,0.1672 0.36064,0.3031 0.580166,0.4077 0.219518,0.1045 0.459947,0.1568 0.721288,0.1568 0.365865,0.01 0.658562,-0.052 0.878089,-0.1882 0.22997,-0.1359 0.402452,-0.3084 0.517446,-0.5174 l 0,-0.5802 -1.238734,0 0,-2.258 3.763241,0 0,4.0769"
         style="line-height:125%;font-family:Blackout;-inkscape-font-specification:Blackout"
         id="path4412" />
      <path
         d="m 102.22033,3088.009 2.79107,0 0,11.666 -2.66563,0 -3.136037,-5.7389 0,5.7389 -2.79107,0 0,-11.666 2.681309,0 3.120358,5.7233 0,-5.7233 0,0"
         style="line-height:125%;font-family:Blackout;-inkscape-font-specification:Blackout"
         id="path4414" />
    </g>
    <rect
       style="fill:none;stroke:#000000;stroke-width:0.71484923;stroke-miterlimit:4;stroke-opacity:1;stroke-dasharray:none"
       id="rect4358"
       width="81.989204"
       height="3.8361897"
       x="23.049501"
       y="3103.2668" />
    <path
       style="fill:#000000;fill-opacity:1;stroke:none"
       d="m 22.668483,3109.5238 0,14.0406 82.775207,0 0,-14.0406 -82.775207,0 z m 3.651294,4.5548 1.053982,0 c 0.139389,0 0.24015,0.036 0.301137,0.074 0.08712,0.066 0.112922,0.1503 0.112922,0.2635 -3e-6,0.1264 -0.04604,0.2028 -0.150568,0.2636 -0.04791,0.031 -0.128462,0.074 -0.263495,0.074 l -0.376423,0 0,3.7267 0.376423,0 c 0.139387,0 0.244505,0.036 0.301136,0.075 0.09147,0.069 0.150566,0.1545 0.150569,0.2635 -3e-6,0.1167 -0.08368,0.2315 -0.18821,0.301 -0.04791,0.029 -0.128462,0.038 -0.263495,0.038 l -1.053983,0 0,-5.0817 z m 74.079853,0 1.01635,0 0,5.0817 -1.01635,0 c -0.13939,0 -0.24015,-0.036 -0.30113,-0.074 -0.0871,-0.066 -0.112924,-0.1503 -0.112924,-0.2635 0,-0.1262 0.04609,-0.2025 0.150564,-0.2634 0.0479,-0.031 0.12847,-0.075 0.2635,-0.075 l 0.37643,0 0,-3.7266 -0.37643,0 c -0.13939,0 -0.24451,-0.036 -0.30114,-0.074 -0.0914,-0.069 -0.150563,-0.1546 -0.150563,-0.2635 0,-0.1179 0.0461,-0.2314 0.150563,-0.3013 0.0479,-0.029 0.16611,-0.037 0.30114,-0.037 z m -67.341898,0.037 0.752843,0 0,1.5434 c 0.261361,-0.2657 0.567998,-0.4141 0.903414,-0.4141 0.348479,0 0.619037,0.1001 0.828128,0.3012 0.213442,0.196 0.338776,0.4639 0.33878,0.7905 l 0,1.2046 0.03764,0 c 0.143744,0 0.244505,0 0.301139,0.037 0.08712,0.073 0.112922,0.159 0.112922,0.2636 -4e-6,0.1263 -0.04603,0.2402 -0.150569,0.3012 -0.04791,0.029 -0.128463,0.037 -0.263497,0.037 l -0.752844,0 c -0.14375,0 -0.244511,0 -0.301137,-0.037 -0.09147,-0.069 -0.112933,-0.1922 -0.112921,-0.3012 -3e-6,-0.1168 0.04603,-0.1937 0.150568,-0.2636 0.05662,-0.029 0.132813,-0.037 0.263495,-0.037 l 0.03764,0 0,-1.1293 c -2e-6,-0.1132 0.01743,-0.2113 0,-0.2635 -0.01743,-0.052 -0.05629,-0.069 -0.112923,-0.112 -0.100186,-0.082 -0.260044,-0.1506 -0.451706,-0.1506 -0.152462,0 -0.271879,0.057 -0.376422,0.112 -0.104547,0.056 -0.264399,0.1601 -0.451707,0.3388 l 0,1.2046 0.03764,0 c 0.143748,0 0.244508,0 0.301136,0.037 0.09148,0.069 0.150569,0.1547 0.150569,0.2636 0,0.1179 -0.04603,0.2314 -0.150569,0.3012 -0.04791,0.029 -0.161746,0.037 -0.301136,0.037 l -0.715202,0 c -0.135037,0 -0.240154,0 -0.301137,-0.037 -0.09147,-0.069 -0.150569,-0.1922 -0.150569,-0.3012 0,-0.1263 0.04601,-0.2025 0.150569,-0.2636 0.05662,-0.029 0.174812,-0.037 0.301137,-0.037 l 0.03764,0 0,-2.7855 -0.112922,0 c -0.14375,0 -0.24451,0 -0.301137,-0.037 -0.08712,-0.074 -0.150569,-0.1966 -0.150569,-0.3013 0,-0.1262 0.08368,-0.2024 0.18821,-0.2633 0.05662,-0.031 0.13717,-0.038 0.263496,-0.038 z m 4.818202,0 0.790486,0 0,0.6777 -0.790486,0 0,-0.6777 z m 11.744366,0 0.790487,0 0,0.6777 -0.790487,0 0,-0.6777 z m 34.969608,0 1.166909,0 0,3.4256 0.790487,0 c 0.139388,0 0.244504,0 0.301138,0.037 0.09147,0.069 0.150565,0.1547 0.150568,0.2636 -3e-6,0.1179 -0.04603,0.2314 -0.150568,0.3012 -0.05228,0.029 -0.170461,0.037 -0.301138,0.037 l -2.22089,0 c -0.287496,0 -0.451706,-0.1207 -0.451706,-0.3386 0,-0.1263 0.04601,-0.2025 0.150569,-0.2635 0.04356,-0.03 0.161744,-0.037 0.301137,-0.037 l 0.790486,0 0,-2.7855 -0.526992,0 c -0.152461,0 -0.253222,-0.031 -0.301136,-0.075 -0.09147,-0.06 -0.112922,-0.1501 -0.112922,-0.2635 -10e-7,-0.1262 0.04603,-0.2025 0.150567,-0.2634 0.04791,-0.031 0.124104,-0.038 0.263497,-0.038 z m -15.847368,0.226 c 0.04358,-0.021 0.05847,0 0.112922,0 0.126325,0 0.240153,0.046 0.301138,0.1505 0.03049,0.048 0.03764,0.1285 0.03764,0.2636 l 0,0.5645 1.204551,0 c 0.139388,0 0.240149,0.036 0.301137,0.074 0.08712,0.073 0.112922,0.1588 0.112922,0.2634 -2e-6,0.1263 -0.04604,0.2024 -0.150569,0.2634 -0.04791,0.031 -0.128461,0.075 -0.263494,0.075 l -1.204552,0 0,1.2798 c -1e-6,0.122 0.04042,0.1867 0.07529,0.226 0.07841,0.087 0.227985,0.1504 0.489348,0.1504 0.213443,0 0.399102,-0.027 0.564633,-0.075 0.165526,-0.048 0.318229,-0.1024 0.414066,-0.1504 0.09584,-0.052 0.135935,-0.074 0.188209,-0.074 0.08712,0 0.164867,0.011 0.225855,0.074 0.06098,0.066 0.112922,0.1719 0.112922,0.2635 -5e-6,0.079 -0.02737,0.136 -0.07529,0.1881 -0.04791,0.048 -0.141531,0.094 -0.263497,0.1506 -0.15682,0.074 -0.333766,0.1404 -0.564633,0.1883 -0.226516,0.052 -0.432393,0.075 -0.602274,0.075 -0.370264,0 -0.685614,-0.1013 -0.903414,-0.2635 -0.217802,-0.1611 -0.301139,-0.3611 -0.301137,-0.6399 l 0,-1.3928 -0.225853,0 c -0.14375,0 -0.24451,-0.031 -0.301138,-0.074 -0.08712,-0.066 -0.150569,-0.1546 -0.150569,-0.2634 0,-0.1264 0.04601,-0.2402 0.150569,-0.3011 0.04791,-0.031 0.166101,-0.037 0.301138,-0.037 l 0.225853,0 0,-0.5646 c -2e-6,-0.1439 0.03172,-0.2445 0.07529,-0.3012 0.03266,-0.042 0.06937,-0.09 0.112922,-0.112 z m -39.863093,0.038 3.387798,0 0,1.2423 c -3e-6,0.148 -0.03608,0.2532 -0.07529,0.3011 -0.06971,0.09 -0.1546,0.1506 -0.263497,0.1506 -0.121971,0 -0.198159,-0.046 -0.263495,-0.1506 -0.03049,-0.057 -0.03764,-0.1748 -0.03764,-0.3011 l 0,-0.6024 -0.715202,0 0,2.5222 0.414065,0 c 0.139388,0 0.244507,0 0.301137,0.037 0.09147,0.069 0.150565,0.1547 0.150569,0.2637 -4e-6,0.2177 -0.164213,0.3386 -0.451706,0.3386 l -1.505689,0 c -0.287498,0 -0.414065,-0.1209 -0.414063,-0.3386 -2e-6,-0.1263 0.04603,-0.2025 0.150569,-0.2637 0.04356,-0.029 0.124101,-0.037 0.263494,-0.037 l 0.414065,0 0,-2.5222 -0.677559,0 0,0.6024 c -2e-6,0.1392 -0.03608,0.2444 -0.07529,0.3011 -0.0697,0.09 -0.154596,0.1506 -0.263495,0.1506 -0.126325,0 -0.202512,-0.046 -0.263495,-0.1506 -0.03049,-0.057 -0.07529,-0.1748 -0.07529,-0.3011 l 0,-1.2423 z m 13.438266,0.8658 c 0.317988,0 0.621833,0.074 0.865772,0.1882 0.04791,-0.1132 0.09673,-0.1882 0.188211,-0.1882 0.204728,0 0.301134,0.1266 0.301137,0.414 l 0,0.2636 c -3e-6,0.1438 0.0015,0.2446 -0.03764,0.3011 -0.07406,0.087 -0.158955,0.112 -0.263496,0.112 -0.126328,0 -0.238594,-0.09 -0.33878,-0.2634 -0.178599,-0.1264 -0.407489,-0.1882 -0.677559,-0.1882 -0.165531,0 -0.316672,0.027 -0.451707,0.075 -0.130682,0.043 -0.225854,0.089 -0.225853,0.1504 -1e-6,0.087 0.113828,0.1536 0.301137,0.1884 0.187307,0.035 0.427703,0.1025 0.715202,0.1506 0.29185,0.042 0.520742,0.1 0.67756,0.1882 0.143744,0.079 0.260369,0.1705 0.33878,0.3012 0.08276,0.1305 0.112923,0.2614 0.112923,0.4139 -4e-6,0.2657 -0.139638,0.5035 -0.414063,0.6777 -0.274431,0.1742 -0.631452,0.2634 -1.053981,0.2634 -0.378975,0 -0.712982,-0.062 -0.978699,-0.1882 -0.06533,0.052 -0.11415,0.075 -0.188211,0.075 -0.222158,0 -0.338778,-0.1642 -0.338778,-0.4518 l 0,-0.188 c 0,-0.1483 0.03172,-0.249 0.07529,-0.3012 0.06533,-0.091 0.150239,-0.1505 0.263495,-0.1505 0.165528,0 0.282151,0.1084 0.33878,0.3011 0.187307,0.1698 0.433291,0.2633 0.790487,0.2633 0.209087,0 0.416525,-0.057 0.564632,-0.1119 0.152457,-0.057 0.225852,-0.1132 0.225854,-0.1882 -2e-6,-0.17 -0.279273,-0.2822 -0.828128,-0.3388 -0.457385,-0.048 -0.773968,-0.1241 -0.978699,-0.2635 -0.204733,-0.1395 -0.33878,-0.3453 -0.33878,-0.6023 0,-0.2614 0.123772,-0.4744 0.376423,-0.6399 0.252646,-0.1699 0.586654,-0.2635 0.978698,-0.2635 z m 11.744369,0 c 0.317986,0 0.62183,0.074 0.865769,0.1882 0.04791,-0.1132 0.09673,-0.1882 0.188212,-0.1882 0.20473,0 0.301134,0.1266 0.301138,0.414 l 0,0.2636 c -4e-6,0.1438 0.0015,0.2446 -0.03764,0.3011 -0.07406,0.087 -0.158955,0.112 -0.263496,0.112 -0.126329,0 -0.238595,-0.09 -0.338781,-0.2634 -0.178599,-0.1264 -0.407488,-0.1882 -0.67756,-0.1882 -0.165529,0 -0.31667,0.027 -0.451705,0.075 -0.130682,0.043 -0.188212,0.089 -0.188211,0.1504 -1e-6,0.087 0.07618,0.1536 0.263496,0.1884 0.187306,0.035 0.427703,0.1025 0.715201,0.1506 0.29185,0.042 0.52074,0.1 0.67756,0.1882 0.143744,0.079 0.260368,0.1705 0.338778,0.3012 0.08277,0.1305 0.112923,0.2614 0.112923,0.4139 -4e-6,0.2657 -0.139639,0.5035 -0.414063,0.6777 -0.274433,0.1742 -0.631452,0.2634 -1.053983,0.2634 -0.378975,0 -0.675339,-0.062 -0.941056,-0.1882 -0.06533,0.052 -0.1518,0.075 -0.225852,0.075 -0.222158,0 -0.33878,-0.1642 -0.33878,-0.4518 l 0,-0.188 c 0,-0.1483 0.03172,-0.249 0.07529,-0.3012 0.06534,-0.091 0.150241,-0.1505 0.263496,-0.1505 0.165528,0 0.282151,0.1084 0.33878,0.3011 0.187307,0.1698 0.470934,0.2633 0.828128,0.2633 0.209088,0 0.378884,-0.057 0.526992,-0.1119 0.152457,-0.057 0.22585,-0.1132 0.225853,-0.1882 -3e-6,-0.17 -0.279273,-0.2822 -0.82813,-0.3388 -0.457383,-0.048 -0.773964,-0.1241 -0.978696,-0.2635 -0.204734,-0.1395 -0.301139,-0.3453 -0.301139,-0.6023 0,-0.2614 0.123774,-0.4744 0.376423,-0.6399 0.252647,-0.1699 0.549013,-0.2635 0.941056,-0.2635 z m 8.055431,0 c 0.339767,0 0.647967,0.1084 0.865771,0.3012 0.217797,0.1916 0.301133,0.442 0.301137,0.7904 l 0,1.2047 c 0.265713,0 0.414061,0.083 0.414064,0.3011 -3e-6,0.1261 -0.04604,0.2401 -0.150569,0.3011 -0.04791,0.029 -0.166104,0.037 -0.301136,0.037 l -0.564634,0 c -0.291855,0 -0.451708,-0.1209 -0.451705,-0.3386 -3e-6,-0.2179 0.148344,-0.3012 0.414062,-0.3012 l 0,-1.1668 c -2e-6,-0.3137 -0.210235,-0.4895 -0.602274,-0.4895 -0.152463,0 -0.292098,0.048 -0.414064,0.112 -0.117617,0.066 -0.223964,0.1732 -0.376423,0.3388 l 0,1.2046 0.03764,0 c 0.139391,0 0.244509,0 0.301138,0.037 0.09147,0.069 0.112922,0.1546 0.112922,0.2635 -1e-6,0.118 -0.04604,0.2316 -0.150569,0.3012 -0.04791,0.029 -0.128461,0.037 -0.263496,0.037 l -0.752844,0 c -0.139392,0 -0.240153,-0.031 -0.301138,-0.075 -0.08712,-0.066 -0.112922,-0.1544 -0.112922,-0.2634 0,-0.1262 0.04603,-0.2024 0.150568,-0.2636 0.05663,-0.029 0.13717,-0.037 0.263496,-0.037 l 0.03764,0 0,-1.5434 c -0.265718,-0.012 -0.376421,-0.1297 -0.376421,-0.3388 0,-0.2178 0.122212,-0.3388 0.414064,-0.3388 l 0.639917,0 0,0.3388 c 0.156816,-0.148 0.283382,-0.2822 0.414063,-0.3388 0.130681,-0.06 0.27311,-0.074 0.451708,-0.074 z m 3.726579,0 c 0.461734,0 0.882201,0.1554 1.204549,0.4518 0.326699,0.2962 0.489347,0.6315 0.489349,1.0539 -2e-6,0.4269 -0.16265,0.7954 -0.489349,1.0917 -0.326703,0.2918 -0.734103,0.4517 -1.204549,0.4517 -0.470453,0 -0.877851,-0.1599 -1.204552,-0.4517 -0.326701,-0.2963 -0.489348,-0.6648 -0.489348,-1.0917 0,-0.4313 0.162647,-0.7622 0.489348,-1.0539 0.326701,-0.2918 0.721033,-0.4518 1.204552,-0.4518 z m 11.706725,0 c 0.400751,0 0.714539,0.093 0.941056,0.2636 0.230864,0.1698 0.338774,0.4101 0.338778,0.7151 l 0,1.3176 0.112922,0 c 0.143746,0 0.244507,0 0.301139,0.037 0.08712,0.074 0.112923,0.1591 0.112923,0.2637 -4e-6,0.1262 -0.04603,0.2401 -0.150569,0.301 -0.04357,0.029 -0.124107,0.037 -0.263497,0.037 l -0.790484,0 0,-0.1505 c -0.326705,0.1699 -0.657586,0.2635 -1.053984,0.2635 -0.322345,0 -0.59726,-0.093 -0.828128,-0.2635 -0.230869,-0.1741 -0.376423,-0.3959 -0.376423,-0.6399 0,-0.2832 0.172923,-0.5264 0.451708,-0.7527 0.283141,-0.2266 0.637035,-0.3388 1.129266,-0.3388 0.196019,0 0.420553,0.031 0.677561,0.074 l 0,-0.1506 c -3e-6,-0.2134 -0.197168,-0.3388 -0.602276,-0.3388 -0.174243,0 -0.371408,0.023 -0.602275,0.075 -0.226516,0.048 -0.366149,0.074 -0.414065,0.074 -0.09147,0 -0.164869,-0.014 -0.225853,-0.074 -0.06099,-0.066 -0.07529,-0.1676 -0.07529,-0.2635 0,-0.1394 0.05753,-0.22 0.188212,-0.2635 0.370261,-0.1307 0.750291,-0.1882 1.129267,-0.1882 z m 11.819652,0 c 0.461736,0 0.844559,0.1554 1.166908,0.4518 0.326697,0.2962 0.489346,0.6315 0.48935,1.0539 -4e-6,0.4269 -0.162653,0.7954 -0.48935,1.0917 -0.326704,0.2918 -0.734103,0.4517 -1.20455,0.4517 -0.470451,0 -0.840208,-0.1599 -1.166908,-0.4517 -0.326701,-0.2963 -0.48935,-0.6648 -0.48935,-1.0917 0,-0.4313 0.162649,-0.7622 0.48935,-1.0539 0.3267,-0.2918 0.72103,-0.4518 1.20455,-0.4518 z m 3.688935,0 c 0.357193,0 0.684049,0.083 0.941056,0.3012 l 0,-0.2259 0.752844,0 c 0.143746,0 0.244506,0.036 0.301138,0.074 0.08711,0.074 0.11292,0.1589 0.11292,0.2634 0,0.1265 -0.04606,0.2026 -0.150569,0.2636 -0.0479,0.031 -0.128458,0.075 -0.263489,0.075 l -0.112928,0 0,2.3337 c 0,0.3442 -0.136838,0.5974 -0.37642,0.8283 -0.235227,0.2309 -0.50858,0.3763 -0.865772,0.3763 l -0.752843,0 c -0.148105,0 -0.215581,-0.031 -0.263495,-0.074 -0.09147,-0.065 -0.15057,-0.1546 -0.15057,-0.2636 0,-0.1263 0.04603,-0.2025 0.15057,-0.2635 0.04791,-0.031 0.128458,-0.074 0.263495,-0.074 l 0.715202,0 c 0.187306,0 0.342803,-0.05 0.451707,-0.1505 0.113256,-0.1001 0.188207,-0.2066 0.18821,-0.3766 l 0,-0.3763 c -0.287499,0.2135 -0.614356,0.3388 -0.941056,0.3388 -0.439957,0 -0.795414,-0.1643 -1.091624,-0.4517 -0.291853,-0.292 -0.451705,-0.6605 -0.451705,-1.0917 0,-0.4356 0.159852,-0.8042 0.451705,-1.0917 0.29621,-0.2917 0.651667,-0.414 1.091624,-0.414 z m 4.140641,0 c 0.461741,0 0.844563,0.1554 1.166915,0.4518 0.326698,0.2962 0.48934,0.6315 0.48934,1.0539 0,0.4269 -0.162642,0.7954 -0.48934,1.0917 -0.326707,0.2918 -0.696468,0.4517 -1.166915,0.4517 -0.470446,0 -0.877849,-0.1599 -1.20455,-0.4517 -0.326701,-0.2963 -0.489346,-0.6648 -0.489346,-1.0917 0,-0.4313 0.162645,-0.7622 0.489346,-1.0539 0.326701,-0.2918 0.721036,-0.4518 1.20455,-0.4518 z m -59.625249,0.074 1.166909,0 0,2.2209 0.790484,0 c 0.139391,0 0.244507,0 0.301139,0.037 0.09147,0.069 0.150566,0.1546 0.150569,0.2635 -3e-6,0.1168 -0.04604,0.2314 -0.150569,0.3011 -0.05228,0.029 -0.170461,0.037 -0.301139,0.037 l -2.220888,0 c -0.287498,0 -0.451708,-0.1208 -0.451708,-0.3386 0,-0.1264 0.04603,-0.2026 0.150569,-0.2637 0.04356,-0.029 0.161746,-0.037 0.301139,-0.037 l 0.790485,0 0,-1.5434 -0.52699,0 c -0.152461,0 -0.253222,-0.031 -0.301138,-0.074 -0.09147,-0.066 -0.112922,-0.1547 -0.112922,-0.2636 -10e-7,-0.1263 0.04603,-0.24 0.150568,-0.301 0.04792,-0.031 0.124103,-0.037 0.263497,-0.037 z m 11.744368,0 1.166908,0 0,2.2209 0.790486,0 c 0.139389,0 0.244506,0 0.301138,0.037 0.09147,0.069 0.150564,0.1546 0.150569,0.2635 -5e-6,0.1168 -0.04603,0.2314 -0.150569,0.3011 -0.05228,0.029 -0.170461,0.037 -0.301138,0.037 l -2.22089,0 c -0.287497,0 -0.451707,-0.1208 -0.451707,-0.3386 0,-0.1264 0.04601,-0.2026 0.150569,-0.2637 0.04356,-0.029 0.161747,-0.037 0.301138,-0.037 l 0.790486,0 0,-1.5434 -0.52699,0 c -0.15246,0 -0.253222,-0.031 -0.301137,-0.074 -0.09147,-0.066 -0.112922,-0.1547 -0.112922,-0.2636 -2e-6,-0.1263 0.04603,-0.24 0.150569,-0.301 0.04791,-0.031 0.1241,-0.037 0.263494,-0.037 z m 16.524928,0.5646 c -0.296211,0 -0.514827,0.098 -0.715203,0.2636 -0.200378,0.1655 -0.301139,0.3539 -0.301138,0.6022 -1e-6,0.244 0.06748,0.47 0.263497,0.64 0.200376,0.1656 0.460988,0.2634 0.752844,0.2634 0.29185,0 0.519177,-0.098 0.715201,-0.2634 0.200374,-0.17 0.301137,-0.396 0.301139,-0.64 -2e-6,-0.2439 -0.100771,-0.4367 -0.301139,-0.6022 -0.196024,-0.17 -0.432062,-0.2636 -0.715201,-0.2636 z m 23.526377,0 c -0.29621,0 -0.552469,0.098 -0.752844,0.2636 -0.200377,0.1655 -0.301138,0.3539 -0.301137,0.6022 -1e-6,0.244 0.105119,0.47 0.301137,0.64 0.200375,0.1656 0.423348,0.2634 0.715202,0.2634 0.29185,0 0.55682,-0.098 0.752844,-0.2634 0.200372,-0.17 0.301134,-0.396 0.301137,-0.64 -3e-6,-0.2439 -0.100758,-0.4367 -0.301137,-0.6022 -0.196024,-0.17 -0.432062,-0.2636 -0.715202,-0.2636 z m 3.726578,0 c -0.248293,0 -0.498964,0.093 -0.677559,0.2636 -0.174241,0.1655 -0.225855,0.3626 -0.225853,0.6022 -2e-6,0.2396 0.05162,0.4324 0.225853,0.6023 0.178595,0.1699 0.429266,0.2635 0.677559,0.2635 0.248291,0 0.461318,-0.059 0.639917,-0.2258 0.178593,-0.17 0.263493,-0.4048 0.263496,-0.64 -3e-6,-0.2439 -0.0849,-0.4325 -0.263496,-0.6022 -0.174241,-0.17 -0.387269,-0.2636 -0.639917,-0.2636 z m 4.102998,0 c -0.296204,0 -0.552466,0.098 -0.752844,0.2636 -0.200377,0.1655 -0.301138,0.3539 -0.301138,0.6022 0,0.244 0.105123,0.47 0.301138,0.64 0.200378,0.1656 0.460993,0.2634 0.752844,0.2634 0.291852,0 0.51918,-0.098 0.715205,-0.2634 0.200376,-0.17 0.301134,-0.396 0.301134,-0.64 0,-0.2439 -0.100758,-0.4367 -0.301134,-0.6022 -0.196025,-0.17 -0.432068,-0.2636 -0.715205,-0.2636 z m -19.762156,1.0163 c -0.222158,0 -0.390392,0.055 -0.564631,0.1506 -0.169886,0.095 -0.263496,0.2125 -0.263496,0.3389 0,0.073 0.05473,0.1402 0.150569,0.1881 0.09584,0.048 0.199384,0.075 0.338779,0.075 0.357192,0 0.730072,-0.1156 1.091625,-0.3387 l 0,-0.3387 c -0.27443,-0.048 -0.543757,-0.074 -0.752846,-0.074 z"
       id="rect4360"
       inkscape:connector-curvature="0" />
  </g>
</svg>
