<?xml version="1.0" encoding="UTF-8" standalone="no"?>
<!-- Created with Inkscape (http://www.inkscape.org/) -->

<svg
   xmlns:dc="http://purl.org/dc/elements/1.1/"
   xmlns:cc="http://creativecommons.org/ns#"
   xmlns:rdf="http://www.w3.org/1999/02/22-rdf-syntax-ns#"
   xmlns:svg="http://www.w3.org/2000/svg"
   xmlns="http://www.w3.org/2000/svg"
   xmlns:sodipodi="http://sodipodi.sourceforge.net/DTD/sodipodi-0.dtd"
   xmlns:inkscape="http://www.inkscape.org/namespaces/inkscape"
   width="128"
   height="128"
   id="svg3802"
   version="1.1"
   inkscape:version="0.48.4 r9939"
   sodipodi:docname="logos.svg">
  <defs
     id="defs3804" />
  <sodipodi:namedview
     id="base"
     pagecolor="#ffffff"
     bordercolor="#666666"
     borderopacity="1.0"
     inkscape:pageopacity="0.0"
     inkscape:pageshadow="2"
     inkscape:zoom="5.6"
     inkscape:cx="46.442433"
     inkscape:cy="58.550258"
     inkscape:document-units="px"
     inkscape:current-layer="layer1"
     showgrid="false"
     showguides="true"
     inkscape:guide-bbox="true"
     inkscape:window-width="1280"
     inkscape:window-height="969"
     inkscape:window-x="0"
     inkscape:window-y="30"
     inkscape:window-maximized="1">
    <sodipodi:guide
       position="0,0"
       orientation="0,128"
       id="guide3810" />
    <sodipodi:guide
       position="128,0"
       orientation="-128,0"
       id="guide3812" />
    <sodipodi:guide
       position="128,128"
       orientation="0,-128"
       id="guide3814" />
    <sodipodi:guide
       position="0,128"
       orientation="128,0"
       id="guide3816" />
    <sodipodi:guide
       orientation="-0.70710678,0.70710678"
       position="166.92771,-38.385797"
       id="guide4370" />
  </sodipodi:namedview>
  <metadata
     id="metadata3807">
    <rdf:RDF>
      <cc:Work
         rdf:about="">
        <dc:format>image/svg+xml</dc:format>
        <dc:type
           rdf:resource="http://purl.org/dc/dcmitype/StillImage" />
        <dc:title />
      </cc:Work>
    </rdf:RDF>
  </metadata>
  <g
     inkscape:label="Calque 1"
     inkscape:groupmode="layer"
     id="layer1"
     transform="translate(0,-3029.0866)">
    <path
       sodipodi:type="arc"
       style="fill:none;stroke:#000000;stroke-width:1.32553024;stroke-miterlimit:4;stroke-opacity:1;stroke-dasharray:none"
       id="path3818"
       sodipodi:cx="64"
       sodipodi:cy="64"
       sodipodi:rx="64"
       sodipodi:ry="64"
       d="M 128,64 C 128,99.346224 99.346224,128 64,128 28.653776,128 0,99.346224 0,64 0,28.653776 28.653776,0 64,0 c 35.346224,0 64,28.653776 64,64 z"
       transform="matrix(0.9807396,0,0,0.9807396,1.2326656,3030.3193)" />
    <g
       style="font-size:22.10289192px;font-style:normal;font-weight:normal;line-height:125%;letter-spacing:0px;word-spacing:0px;fill:#000000;fill-opacity:1;stroke:none;font-family:Sans"
       id="text3788"
       transform="matrix(0.87787813,0,0,0.87787813,13.070197,369.13227)">
      <path
         d="m 27.363305,3066.8535 0,14.5879 6.277222,0 0,3.647 -10.432565,0 0,-18.2349 4.155343,0"
         style="font-variant:normal;font-weight:bold;font-stretch:normal;text-align:start;line-height:125%;writing-mode:lr-tb;text-anchor:start;font-family:League Spartan;-inkscape-font-specification:League Spartan Bold"
         id="path4387"
         inkscape:connector-curvature="0" />
      <path
         d="m 34.866201,3075.9599 c 0,-2.6376 0.89885,-4.87 2.696553,-6.6972 1.797697,-1.8271 3.963778,-2.7407 6.49825,-2.7408 2.549188,10e-5 4.71527,0.9137 6.498251,2.7408 1.782948,1.8125 2.674431,4.0448 2.67445,6.6972 -1.9e-5,2.6671 -0.876767,4.9142 -2.630245,6.7414 -1.75351,1.8124 -3.934327,2.7186 -6.542456,2.7186 -2.667089,0 -4.870008,-0.8988 -6.608764,-2.6965 -1.724027,-1.8125 -2.586039,-4.067 -2.586039,-6.7635 m 4.486887,0 c -5e-6,0.9578 0.147348,1.8345 0.442058,2.6302 0.2947,0.781 0.810433,1.4441 1.547203,1.9893 0.736755,0.5452 1.642973,0.8178 2.718655,0.8178 1.547192,0 2.711276,-0.5305 3.492257,-1.5914 0.79569,-1.0609 1.193542,-2.3429 1.193556,-3.8459 -1.4e-5,-1.4883 -0.405233,-2.7629 -1.215659,-3.8238 -0.795716,-1.0757 -1.952433,-1.6135 -3.470154,-1.6135 -1.503004,0 -2.667089,0.5378 -3.492257,1.6135 -0.810444,1.0609 -1.215664,2.3355 -1.215659,3.8238"
         style="font-variant:normal;font-weight:bold;font-stretch:normal;text-align:start;line-height:125%;writing-mode:lr-tb;text-anchor:start;font-family:League Spartan;-inkscape-font-specification:League Spartan Bold"
         id="path4389"
         inkscape:connector-curvature="0" />
      <path
         d="m 71.555964,3074.8768 0,3.9565 c -0.471545,2.166 -1.503013,3.809 -3.094404,4.9289 -1.591422,1.1052 -3.367019,1.6577 -5.326797,1.6577 -2.460796,0 -4.560569,-0.9209 -6.299325,-2.7628 -1.724027,-1.8419 -2.586038,-4.067 -2.586038,-6.6751 0,-2.6523 0.847276,-4.8921 2.541833,-6.7193 1.69455,-1.8271 3.809058,-2.7407 6.34353,-2.7408 2.961775,10e-5 5.304679,1.0389 7.028719,3.1166 l -2.718655,2.9838 c -0.97254,-1.5619 -2.328183,-2.3428 -4.066933,-2.3429 -1.281976,1e-4 -2.379752,0.56 -3.29333,1.6799 -0.898857,1.1051 -1.348282,2.446 -1.348277,4.0227 -5e-6,1.5472 0.44942,2.8734 1.348277,3.9785 0.913578,1.0904 2.011354,1.6356 3.29333,1.6356 1.060929,0 1.981881,-0.3168 2.762862,-0.9504 0.795691,-0.6483 1.193542,-1.503 1.193556,-2.5639 l -4.199549,0 0,-3.205 8.421201,0"
         style="font-variant:normal;font-weight:bold;font-stretch:normal;text-align:start;line-height:125%;writing-mode:lr-tb;text-anchor:start;font-family:League Spartan;-inkscape-font-specification:League Spartan Bold"
         id="path4391"
         inkscape:connector-curvature="0" />
      <path
         d="m 72.553359,3075.9599 c -10e-7,-2.6376 0.898849,-4.87 2.696553,-6.6972 1.797697,-1.8271 3.963778,-2.7407 6.49825,-2.7408 2.549188,10e-5 4.715269,0.9137 6.49825,2.7408 1.782949,1.8125 2.674431,4.0448 2.67445,6.6972 -1.9e-5,2.6671 -0.876766,4.9142 -2.630244,6.7414 -1.753511,1.8124 -3.934327,2.7186 -6.542456,2.7186 -2.667089,0 -4.870009,-0.8988 -6.608765,-2.6965 -1.724027,-1.8125 -2.586039,-4.067 -2.586038,-6.7635 m 4.486887,0 c -5e-6,0.9578 0.147347,1.8345 0.442058,2.6302 0.294699,0.781 0.810433,1.4441 1.547202,1.9893 0.736756,0.5452 1.642973,0.8178 2.718656,0.8178 1.547191,0 2.711276,-0.5305 3.492257,-1.5914 0.79569,-1.0609 1.193542,-2.3429 1.193556,-3.8459 -1.4e-5,-1.4883 -0.405234,-2.7629 -1.215659,-3.8238 -0.795716,-1.0757 -1.952433,-1.6135 -3.470154,-1.6135 -1.503005,0 -2.667089,0.5378 -3.492257,1.6135 -0.810445,1.0609 -1.215664,2.3355 -1.215659,3.8238"
         style="font-variant:normal;font-weight:bold;font-stretch:normal;text-align:start;line-height:125%;writing-mode:lr-tb;text-anchor:start;font-family:League Spartan;-inkscape-font-specification:League Spartan Bold"
         id="path4393"
         inkscape:connector-curvature="0" />
      <path
         d="m 99.473643,3066.5219 c 0.987257,10e-5 1.952417,0.1474 2.895477,0.4421 0.94305,0.28 1.64297,0.56 2.09978,0.8399 l 0.66308,0.4421 -1.67982,3.3154 c -0.13263,-0.088 -0.31682,-0.1989 -0.55257,-0.3315 -0.23577,-0.1474 -0.67783,-0.3389 -1.32617,-0.5747 -0.64836,-0.2358 -1.25251,-0.3536 -1.81244,-0.3537 -0.692564,10e-5 -1.230401,0.1474 -1.613511,0.4421 -0.368388,0.2947 -0.552578,0.6926 -0.552572,1.1936 -6e-6,0.2505 0.0884,0.4862 0.265235,0.7073 0.176816,0.2063 0.478889,0.4347 0.906218,0.6851 0.427315,0.2358 0.803064,0.4274 1.127248,0.5747 0.324162,0.1474 0.825162,0.3684 1.502992,0.6631 1.17881,0.501 2.18081,1.1862 3.006,2.0556 0.83989,0.8546 1.25985,1.8272 1.25986,2.9176 -1e-5,1.0462 -0.19157,1.9597 -0.57467,2.7407 -0.3684,0.781 -0.88413,1.3925 -1.5472,1.8346 -0.64837,0.442 -1.3704,0.7662 -2.16609,0.9725 -0.79571,0.221 -1.657724,0.3315 -2.586037,0.3315 -0.79571,0 -1.576678,-0.081 -2.342906,-0.2431 -0.766238,-0.1621 -1.407221,-0.361 -1.922952,-0.5968 -0.515737,-0.2505 -0.979897,-0.4936 -1.392482,-0.7294 -0.412589,-0.2357 -0.714661,-0.4347 -0.906219,-0.5968 l -0.287337,-0.2431 2.077672,-3.4922 c 0.17682,0.1473 0.419952,0.3389 0.729395,0.5746 0.309437,0.2211 0.854641,0.5231 1.635614,0.9062 0.795698,0.3832 1.495623,0.5747 2.099775,0.5747 1.753487,0 2.630237,-0.5968 2.630247,-1.7903 -1e-5,-0.2505 -0.0663,-0.4789 -0.19893,-0.6852 -0.11789,-0.221 -0.33892,-0.4347 -0.66309,-0.641 -0.309445,-0.221 -0.589415,-0.3905 -0.839906,-0.5084 -0.235772,-0.1326 -0.633623,-0.3241 -1.193556,-0.5746 -0.545211,-0.2653 -0.95043,-0.4642 -1.215659,-0.5968 -1.105149,-0.5452 -1.959793,-1.223 -2.563935,-2.0335 -0.604149,-0.8251 -0.906221,-1.7093 -0.906219,-2.6523 -2e-6,-1.6356 0.604143,-2.9692 1.812437,-4.0006 1.208286,-1.0462 2.586032,-1.5693 4.133241,-1.5694"
         style="font-variant:normal;font-weight:bold;font-stretch:normal;text-align:start;line-height:125%;writing-mode:lr-tb;text-anchor:start;font-family:League Spartan;-inkscape-font-specification:League Spartan Bold"
         id="path4395"
         inkscape:connector-curvature="0" />
    </g>
    <path
       style="fill:none;stroke:#000000;stroke-width:0.5412215;stroke-miterlimit:4;stroke-opacity:1;stroke-dasharray:none"
       d="m 25.51611,3061.9549 c -2.612347,0 -4.735688,2.0894 -4.735688,4.7018 l 0,43.6022 9.43755,0 0,-43.6022 c 0,-2.6124 -2.089514,-4.7018 -4.701862,-4.7018 z"
       id="rect3006"
       inkscape:connector-curvature="0" />
    <rect
       style="fill:none;stroke:#000000;stroke-width:0.5412215;stroke-miterlimit:4;stroke-opacity:1;stroke-dasharray:none"
       id="rect3011"
       width="8.9472666"
       height="2.066474"
       x="20.986467"
       y="3110.9204"
       ry="0" />
    <rect
       ry="0"
       y="3113.7224"
       x="21.533186"
       height="2.1007481"
       width="7.9221749"
       id="rect3015"
       style="fill:none;stroke:#000000;stroke-width:0.5412215;stroke-miterlimit:4;stroke-opacity:1;stroke-dasharray:none" />
    <path
       style="fill:none;stroke:#000000;stroke-width:0.5412215;stroke-linecap:butt;stroke-linejoin:miter;stroke-miterlimit:4;stroke-opacity:1;stroke-dasharray:none"
       d="m 21.592254,3117.058 0,11.9745 c -0.394435,0.1858 -0.676527,0.5836 -0.676527,1.0487 0,0.6417 0.508227,1.1501 1.150096,1.1501 0.641869,0 1.150096,-0.5084 1.150096,-1.1501 0,-0.5316 -0.358545,-0.9779 -0.845659,-1.1164 0.285564,-1.1678 0.839419,-3.0796 1.657491,-4.1268 1.208083,-1.5464 2.777912,-1.5983 3.991509,-3.315 1.831815,-2.5911 1.251574,-4.465 1.251574,-4.465 l -7.67858,0 z"
       id="path3017"
       inkscape:connector-curvature="0" />
    <path
       style="fill:none;stroke:#000000;stroke-width:0.43297723;stroke-linecap:butt;stroke-linejoin:miter;stroke-miterlimit:4;stroke-opacity:1;stroke-dasharray:none"
       d="m 23.04216,3118.5489 c -0.375867,1.0081 -0.427122,2.187 -0.427122,2.8703 0,0.6834 -0.222103,1.418 -0.222103,1.418"
       id="path3790"
       inkscape:connector-curvature="0" />
    <path
       style="fill:none;stroke:#000000;stroke-width:0.64946586;stroke-linecap:butt;stroke-linejoin:miter;stroke-miterlimit:4;stroke-opacity:1;stroke-dasharray:none"
       d="m 25.143601,3063.6382 c 4.083287,0 3.314468,3.9807 3.314468,6.1676 0,2.1868 0,3.4341 0,3.4341"
       id="path3792"
       inkscape:connector-curvature="0" />
    <path
       style="fill:none;stroke:#000000;stroke-width:0.5412215;stroke-miterlimit:4;stroke-opacity:1;stroke-dasharray:none"
       d="m 33.634433,3084.9305 0,34.6548 0.06765,0 2.807586,10.3508 2.807587,-10.5199 -0.135305,0 0,-34.4857 z"
       id="rect3794"
       inkscape:connector-curvature="0"
       sodipodi:nodetypes="cccccccc" />
    <rect
       style="fill:none;stroke:#000000;stroke-width:0.43297723;stroke-miterlimit:4;stroke-opacity:1;stroke-dasharray:none"
       id="rect3799"
       width="5.5867558"
       height="1.8964225"
       x="33.617706"
       y="3082.2947" />
    <path
       style="fill:none;stroke:#000000;stroke-width:0.43297723;stroke-miterlimit:4;stroke-opacity:1;stroke-dasharray:none"
       d="m 34.750702,3079.5736 c -0.634156,0 -1.116269,0.516 -1.116269,1.1501 l 0,0.8795 c 0.05798,-0.011 0.108566,-0.034 0.169132,-0.034 l 5.344562,0 0,-1.2728 c 0,-0.6341 -0.520531,-1.1921 -1.150095,-1.1159 l -3.24733,0.3929 z"
       id="rect3803"
       inkscape:connector-curvature="0"
       sodipodi:nodetypes="cscscsscc" />
    <path
       style="fill:none;stroke:#000000;stroke-width:0.5412215;stroke-linecap:butt;stroke-linejoin:miter;stroke-miterlimit:4;stroke-opacity:1;stroke-dasharray:none"
       d="m 35.274937,3086.5832 0,15.5813"
       id="path3808"
       inkscape:connector-curvature="0" />
    <path
       style="fill:none;stroke:#000000;stroke-width:0.5412215;stroke-linecap:butt;stroke-linejoin:miter;stroke-miterlimit:4;stroke-opacity:1;stroke-dasharray:none"
       d="m 37.256784,3086.9249 0,24.2264"
       id="path3810"
       inkscape:connector-curvature="0" />
    <path
       style="fill:#000000;fill-opacity:1;stroke:#000000;stroke-width:0.5412215;stroke-miterlimit:4;stroke-opacity:1;stroke-dasharray:none"
       d="m 35.461056,3126.0558 1.048616,3.8901 1.193588,-4.9291 z"
       id="path3812"
       inkscape:connector-curvature="0"
       sodipodi:nodetypes="cccc" />
    <path
       sodipodi:nodetypes="cccccccc"
       inkscape:connector-curvature="0"
       id="path3817"
       d="m 48.748116,3124.38 0,-35.4065 -0.06765,0 -2.807587,-10.3508 -2.807586,10.5199 0.135305,0 0,35.2374 z"
       style="fill:none;stroke:#000000;stroke-width:0.5412215;stroke-miterlimit:4;stroke-opacity:1;stroke-dasharray:none" />
    <rect
       y="-3126.8789"
       x="-48.764843"
       height="1.8964225"
       width="5.5867558"
       id="rect3819"
       style="fill:none;stroke:#000000;stroke-width:0.43297723;stroke-miterlimit:4;stroke-opacity:1;stroke-dasharray:none"
       transform="scale(-1,-1)" />
    <path
       sodipodi:nodetypes="cscscsscc"
       inkscape:connector-curvature="0"
       id="path3821"
       d="m 47.631846,3129.6002 c 0.634157,0 1.11627,-0.516 1.11627,-1.1501 l 0,-0.8794 c -0.05798,0.011 -0.108566,0.034 -0.169132,0.034 l -5.344563,0 0,1.2729 c 0,0.6341 0.520532,1.192 1.150096,1.1158 l 3.247329,-0.3929 z"
       style="fill:none;stroke:#000000;stroke-width:0.43297723;stroke-miterlimit:4;stroke-opacity:1;stroke-dasharray:none" />
    <path
       inkscape:connector-curvature="0"
       id="path3823"
       d="m 47.056357,3114.2234 0,-24.8945"
       style="fill:none;stroke:#000000;stroke-width:0.5412215;stroke-linecap:butt;stroke-linejoin:miter;stroke-miterlimit:4;stroke-opacity:1;stroke-dasharray:none" />
    <path
       inkscape:connector-curvature="0"
       id="path3825"
       d="m 45.125764,3113.5699 0,-24.2264"
       style="fill:none;stroke:#000000;stroke-width:0.5412215;stroke-linecap:butt;stroke-linejoin:miter;stroke-miterlimit:4;stroke-opacity:1;stroke-dasharray:none" />
    <path
       sodipodi:nodetypes="cccc"
       inkscape:connector-curvature="0"
       id="path3827"
       d="m 46.921493,3082.503 -1.048617,-3.8901 -1.193587,4.9291 z"
       style="fill:#000000;fill-opacity:1;stroke:#000000;stroke-width:0.5412215;stroke-miterlimit:4;stroke-opacity:1;stroke-dasharray:none" />
    <g
       style="font-size:10.29057312px;font-style:normal;font-weight:normal;line-height:125%;letter-spacing:0px;word-spacing:0px;fill:#000000;fill-opacity:1;stroke:none;font-family:Sans"
       id="text3829"
       transform="matrix(1.0824431,0,0,1.0824431,-13.519493,-257.01082)">
      <path
         d="m 58.992377,3090.962 c 0,-0.2538 0.05831,-0.4974 0.17494,-0.7306 0.116626,-0.2333 0.281275,-0.4459 0.493948,-0.638 0.21267,-0.1921 0.428772,-0.3602 0.648306,-0.5043 0.21953,-0.144 0.469934,-0.2915 0.751211,-0.4425 -0.569413,-0.7134 -0.854119,-1.3412 -0.854117,-1.8831 -2e-6,-0.6724 0.233251,-1.2075 0.699759,-1.6054 0.473364,-0.4047 1.14225,-0.6071 2.006662,-0.6071 0.795799,0 1.413233,0.223 1.852303,0.6689 0.445918,0.4459 0.66888,0.9604 0.668887,1.5436 -7e-6,0.2401 -0.05832,0.4768 -0.17494,0.71 -0.116633,0.2264 -0.25727,0.4219 -0.421913,0.5866 -0.157795,0.1578 -0.319014,0.2984 -0.483657,0.4219 -0.164655,0.1235 -0.305292,0.2161 -0.421914,0.2778 l -0.174939,0.093 1.131963,1.1732 c 0.246967,-0.1098 0.66202,-0.4665 1.245159,-1.0702 l 1.193707,1.1731 c -0.38419,0.439 -0.785522,0.8267 -1.203998,1.1628 l 1.831722,1.9038 -2.438865,0 -0.843827,-0.8747 c -0.260701,0.1852 -0.452791,0.319 -0.576272,0.4013 -0.123493,0.075 -0.308723,0.1749 -0.555691,0.2984 -0.240118,0.1235 -0.490522,0.2093 -0.751212,0.2573 -0.253838,0.048 -0.535114,0.072 -0.843827,0.072 -0.267558,0 -0.531683,-0.024 -0.792374,-0.072 -0.260697,-0.041 -0.524822,-0.1166 -0.792375,-0.2264 -0.260695,-0.1166 -0.490518,-0.2607 -0.689468,-0.4322 -0.198952,-0.1715 -0.363601,-0.3979 -0.493947,-0.6792 -0.123488,-0.2881 -0.185231,-0.614 -0.185231,-0.9776 m 3.920709,-5.0424 c -0.246978,0 -0.432208,0.079 -0.555691,0.2367 -0.123491,0.1578 -0.185234,0.3602 -0.185231,0.6072 -3e-6,0.144 0.05145,0.3053 0.154359,0.4836 0.102902,0.1715 0.205808,0.3087 0.308717,0.4116 l 0.154359,0.1441 c 0.63115,-0.343 0.946727,-0.6895 0.946732,-1.0393 -5e-6,-0.5626 -0.27442,-0.8439 -0.823245,-0.8439 m 0.504238,5.1144 -1.348065,-1.3274 c -0.02059,0.01 -0.05146,0.021 -0.09262,0.041 -0.04116,0.014 -0.113199,0.055 -0.216102,0.1235 -0.102908,0.062 -0.192093,0.1338 -0.267554,0.2161 -0.07547,0.075 -0.147501,0.1784 -0.216102,0.3087 -0.06175,0.1304 -0.09262,0.2676 -0.09262,0.4117 -2e-6,0.2264 0.09604,0.4013 0.288136,0.5248 0.192088,0.1235 0.41505,0.1852 0.668888,0.1852 0.205807,0 0.415049,-0.038 0.627725,-0.1132 0.212667,-0.082 0.373886,-0.1646 0.483657,-0.247 l 0.164649,-0.1235"
         style="font-variant:normal;font-weight:bold;font-stretch:normal;text-align:start;line-height:125%;writing-mode:lr-tb;text-anchor:start;font-family:League Spartan;-inkscape-font-specification:League Spartan Bold"
         id="path3868"
         inkscape:connector-curvature="0" />
      <path
         d="m 70.707391,3084.7053 2.459447,0 c 1.179981,10e-5 2.188456,0.4048 3.025428,1.2143 0.83696,0.8027 1.255443,1.8112 1.25545,3.0255 -7e-6,1.2211 -0.41849,2.2364 -1.25545,3.046 -0.830111,0.8026 -1.838587,1.204 -3.025428,1.204 l -2.459447,0 0,-8.4898 m 1.934627,6.761 0.298427,0 c 0.706616,0 1.282887,-0.2367 1.728816,-0.7101 0.452781,-0.4802 0.682603,-1.0805 0.689469,-1.8008 -6e-6,-0.7204 -0.226398,-1.3207 -0.679178,-1.8009 -0.445929,-0.4802 -1.025631,-0.7203 -1.739107,-0.7203 l -0.298427,0 0,5.0321"
         style="font-variant:normal;font-weight:bold;font-stretch:normal;text-align:start;line-height:125%;writing-mode:lr-tb;text-anchor:start;font-family:League Spartan;-inkscape-font-specification:League Spartan Bold"
         id="path3870"
         inkscape:connector-curvature="0" />
      <path
         d="m 83.161879,3084.7053 0,1.698 -2.922523,0 0,1.6876 2.799036,0 0,1.698 -2.799036,0 0,1.7082 2.922523,0 0,1.698 -4.857151,0 0,-8.4898 4.857151,0"
         style="font-variant:normal;font-weight:bold;font-stretch:normal;text-align:start;line-height:125%;writing-mode:lr-tb;text-anchor:start;font-family:League Spartan;-inkscape-font-specification:League Spartan Bold"
         id="path3872"
         inkscape:connector-curvature="0" />
      <path
         d="m 87.402398,3084.551 c 0.459642,0 0.908996,0.069 1.348065,0.2058 0.439059,0.1304 0.764927,0.2607 0.977605,0.391 l 0.308717,0.2059 -0.782084,1.5435 c -0.06175,-0.041 -0.147503,-0.093 -0.257264,-0.1543 -0.109771,-0.069 -0.315583,-0.1578 -0.617434,-0.2676 -0.301862,-0.1097 -0.583137,-0.1646 -0.843827,-0.1646 -0.322442,0 -0.572846,0.069 -0.751212,0.2058 -0.171513,0.1372 -0.257267,0.3224 -0.257265,0.5557 -2e-6,0.1166 0.04116,0.2264 0.123487,0.3293 0.08232,0.096 0.22296,0.2024 0.421914,0.319 0.198947,0.1098 0.373887,0.1989 0.524819,0.2675 0.150924,0.069 0.384177,0.1716 0.699759,0.3088 0.548825,0.2332 1.015331,0.5522 1.399518,0.957 0.391035,0.3979 0.586556,0.8507 0.586563,1.3583 -7e-6,0.4871 -0.08919,0.9125 -0.267555,1.2761 -0.171516,0.3636 -0.411629,0.6483 -0.72034,0.8541 -0.301863,0.2058 -0.638021,0.3567 -1.008477,0.4528 -0.370464,0.1029 -0.771796,0.1543 -1.203997,0.1543 -0.370463,0 -0.734063,-0.038 -1.0908,-0.1132 -0.356742,-0.075 -0.655169,-0.168 -0.89528,-0.2778 -0.240115,-0.1166 -0.456217,-0.2298 -0.648306,-0.3396 -0.192092,-0.1098 -0.332729,-0.2024 -0.421914,-0.2778 l -0.133777,-0.1132 0.967314,-1.626 c 0.08232,0.069 0.195519,0.1578 0.339589,0.2676 0.144066,0.1029 0.3979,0.2435 0.761502,0.4219 0.370458,0.1784 0.696326,0.2676 0.977604,0.2676 0.816382,0 1.224574,-0.2779 1.224579,-0.8336 -5e-6,-0.1166 -0.03088,-0.2229 -0.09262,-0.319 -0.05489,-0.1029 -0.157793,-0.2024 -0.308717,-0.2984 -0.144072,-0.1029 -0.274419,-0.1818 -0.391042,-0.2367 -0.109769,-0.062 -0.294999,-0.1509 -0.55569,-0.2675 -0.253838,-0.1235 -0.442498,-0.2161 -0.565982,-0.2779 -0.514531,-0.2538 -0.912433,-0.5694 -1.193706,-0.9467 -0.281277,-0.3842 -0.421915,-0.7958 -0.421914,-1.2349 -10e-7,-0.7615 0.281274,-1.3823 0.843827,-1.8626 0.562549,-0.4871 1.203994,-0.7306 1.924337,-0.7306"
         style="font-variant:normal;font-weight:bold;font-stretch:normal;text-align:start;line-height:125%;writing-mode:lr-tb;text-anchor:start;font-family:League Spartan;-inkscape-font-specification:League Spartan Bold"
         id="path3874"
         inkscape:connector-curvature="0" />
      <path
         d="m 93.12267,3084.7053 0,8.4898 -1.934627,0 0,-8.4898 1.934627,0"
         style="font-variant:normal;font-weight:bold;font-stretch:normal;text-align:start;line-height:125%;writing-mode:lr-tb;text-anchor:start;font-family:League Spartan;-inkscape-font-specification:League Spartan Bold"
         id="path3876"
         inkscape:connector-curvature="0" />
      <path
         d="m 102.04042,3088.4408 0,1.842 c -0.21954,1.0085 -0.69977,1.7734 -1.44068,2.2948 -0.74093,0.5146 -1.567605,0.7718 -2.480031,0.7718 -1.145687,0 -2.12329,-0.4287 -2.932813,-1.2863 -0.802665,-0.8575 -1.203997,-1.8935 -1.203997,-3.1077 0,-1.2349 0.394471,-2.2777 1.183416,-3.1284 0.788942,-0.8507 1.773405,-1.276 2.953394,-1.276 1.378931,0 2.469731,0.4837 3.272401,1.451 l -1.26574,1.3892 c -0.45279,-0.7272 -1.083945,-1.0908 -1.893464,-1.0908 -0.596857,0 -1.107955,0.2607 -1.533296,0.7821 -0.418486,0.5145 -0.627727,1.1388 -0.627725,1.8729 -2e-6,0.7203 0.209239,1.3377 0.627725,1.8523 0.425341,0.5076 0.936439,0.7615 1.533296,0.7615 0.493942,0 0.922716,-0.1475 1.286321,-0.4425 0.370455,-0.3019 0.555683,-0.6998 0.555693,-1.1937 l -1.955211,0 0,-1.4922 3.920711,0"
         style="font-variant:normal;font-weight:bold;font-stretch:normal;text-align:start;line-height:125%;writing-mode:lr-tb;text-anchor:start;font-family:League Spartan;-inkscape-font-specification:League Spartan Bold"
         id="path3878"
         inkscape:connector-curvature="0" />
      <path
         d="m 104.82016,3087.9263 0,5.2688 -1.93463,0 0,-8.4898 1.93463,0 3.37531,5.2688 0.0206,0 0,-5.2688 1.93463,0 0,8.4898 -1.93463,0 -3.37531,-5.2688 -0.0206,0"
         style="font-variant:normal;font-weight:bold;font-stretch:normal;text-align:start;line-height:125%;writing-mode:lr-tb;text-anchor:start;font-family:League Spartan;-inkscape-font-specification:League Spartan Bold"
         id="path3880"
         inkscape:connector-curvature="0" />
    </g>
    <path
       style="fill:none;stroke:#000000;stroke-width:0.5412215;stroke-miterlimit:4;stroke-opacity:1;stroke-dasharray:none"
       d="m 57.07609,3095.24 -3.957682,2.2663 c -0.283391,0.1637 -0.525012,0.3642 -0.710353,0.6089 -0.518601,0.4318 -0.879485,1.0621 -0.879485,1.7929 l 0,27.3993 c 0,1.3061 1.061671,2.3678 2.367844,2.3678 l 12.5834,0 c 0.571451,0 1.081119,-0.2054 1.48836,-0.5412 l 3.450287,-1.9958 c 1.006365,-0.269 1.75897,-1.2067 1.75897,-2.3002 l 0,-27.3993 c 0,-1.3062 -1.061671,-2.334 -2.367844,-2.334 l -11.602437,0 c -1.129329,0.013 -1.673693,-0.1471 -2.13106,0.1353 z"
       id="rect3835"
       inkscape:connector-curvature="0"
       sodipodi:nodetypes="cccssssccssscc" />
    <path
       style="fill:none;stroke:#000000;stroke-width:0.43297723;stroke-linecap:butt;stroke-linejoin:miter;stroke-miterlimit:4;stroke-opacity:1;stroke-dasharray:none"
       d="m 59.535474,3098.5768 c 0,0 3.861183,0 5.77469,0 1.913507,0 2.716497,0.8883 2.716497,2.7165 0,1.828 0,4.3566 0,4.3566"
       id="path3844"
       inkscape:connector-curvature="0" />
    <path
       style="fill:none;stroke:#000000;stroke-width:0.32473293;stroke-linecap:butt;stroke-linejoin:miter;stroke-miterlimit:4;stroke-opacity:1;stroke-dasharray:none"
       d="m 52.586852,3114.4485 c 5.363891,0 12.177484,0 13.965447,0 1.787964,0 1.72629,-0.2871 3.237665,-1.1597 1.511374,-0.8727 2.17455,-1.3048 2.17455,-1.3048"
       id="path3846"
       inkscape:connector-curvature="0" />
    <g
       style="font-size:3.56724262px;font-style:normal;font-variant:normal;font-weight:normal;font-stretch:normal;text-align:start;line-height:125%;letter-spacing:0px;word-spacing:0px;writing-mode:lr-tb;text-anchor:start;fill:#000000;fill-opacity:1;stroke:none;font-family:Monofonto;-inkscape-font-specification:Monofonto"
       id="text3848"
       transform="matrix(1.0824431,0,0,1.0824431,-13.519493,-257.01082)">
      <path
         d="m 62.45018,3117.9375 -1.312745,0 0,-2.5863 1.312745,0 0,0.4103 -0.852571,0 0,0.6599 0.674209,0 0,0.4174 -0.674209,0 0,0.6635 0.852571,0 0,0.4352"
         id="path3853"
         inkscape:connector-curvature="0" />
      <path
         d="m 63.816434,3116.1218 c 0.135554,0 0.240193,0.039 0.313918,0.1177 0.07372,0.076 0.115339,0.1748 0.124853,0.2961 l -0.410233,0.2069 c -0.03092,-0.138 -0.111774,-0.2069 -0.242572,-0.2069 -0.09037,0 -0.161716,0.031 -0.214035,0.093 -0.04994,0.062 -0.07491,0.1403 -0.07491,0.2355 l 0,1.0737 -0.417367,0 0,-1.7765 0.392396,0 0,0.3888 c 0.06659,-0.1569 0.142689,-0.2675 0.228304,-0.3317 0.08561,-0.064 0.185496,-0.096 0.299648,-0.096"
         id="path3855"
         inkscape:connector-curvature="0" />
      <path
         d="m 65.6714,3117.2562 c -0.03567,-0.021 -0.08086,-0.04 -0.135555,-0.057 -0.0547,-0.017 -0.112963,-0.025 -0.174795,-0.025 -0.10464,0 -0.179552,0.024 -0.224736,0.071 -0.04281,0.045 -0.06421,0.1022 -0.06421,0.1712 -10e-7,0.078 0.02378,0.1355 0.07135,0.1712 0.04994,0.033 0.116529,0.05 0.199765,0.05 0.07372,0 0.1415,-0.026 0.203333,-0.079 0.06183,-0.055 0.103449,-0.1154 0.124853,-0.182 l 0,-0.1212 m 0.410233,0.6813 -0.367426,0 0,-0.3068 c -0.04043,0.093 -0.101073,0.1736 -0.181929,0.2426 -0.07848,0.067 -0.183119,0.1 -0.313917,0.1 -0.10464,0 -0.193821,-0.013 -0.267544,-0.039 -0.07372,-0.028 -0.134366,-0.067 -0.181929,-0.1141 -0.04519,-0.05 -0.07848,-0.1082 -0.09988,-0.1748 -0.0214,-0.069 -0.03211,-0.1451 -0.03211,-0.2283 0,-0.1926 0.04756,-0.3341 0.14269,-0.4245 0.09513,-0.09 0.237815,-0.1356 0.428069,-0.1356 0.12842,0 0.228303,0.01 0.299648,0.029 0.07134,0.017 0.126042,0.042 0.164093,0.075 l 0,-0.1927 c -10e-7,-0.093 -0.02735,-0.164 -0.08205,-0.214 -0.05232,-0.05 -0.124855,-0.075 -0.217602,-0.075 -0.145069,0 -0.240195,0.065 -0.285379,0.1962 l -0.378128,-0.1213 c 0.02616,-0.083 0.06302,-0.1522 0.110585,-0.2069 0.04756,-0.057 0.101071,-0.1022 0.160525,-0.1355 0.05945,-0.033 0.122475,-0.056 0.189064,-0.068 0.06897,-0.014 0.135555,-0.021 0.199766,-0.021 0.12842,0 0.237815,0.015 0.328186,0.046 0.09037,0.029 0.164092,0.071 0.221169,0.1285 0.05707,0.055 0.09869,0.1213 0.124854,0.1997 0.02616,0.079 0.03924,0.1653 0.03924,0.2604 l 0,1.1808"
         id="path3857"
         inkscape:connector-curvature="0" />
      <path
         d="m 67.811746,3117.3988 c -10e-7,0.088 -0.01665,0.1677 -0.04994,0.2391 -0.0333,0.069 -0.07967,0.1284 -0.139123,0.1783 -0.05708,0.05 -0.127233,0.089 -0.210467,0.1177 -0.08086,0.026 -0.17004,0.039 -0.267543,0.039 -0.202145,0 -0.361481,-0.041 -0.478011,-0.1213 -0.114152,-0.083 -0.173606,-0.2105 -0.178362,-0.3817 l 0.435204,0 c -10e-7,0.069 0.02021,0.1201 0.06064,0.1534 0.04043,0.033 0.0975,0.05 0.171227,0.05 0.08799,0 0.147445,-0.019 0.178363,-0.057 0.03329,-0.038 0.04994,-0.077 0.04994,-0.1177 -10e-7,-0.055 -0.01784,-0.1 -0.05351,-0.1355 -0.03567,-0.038 -0.101073,-0.077 -0.196198,-0.1177 -0.09037,-0.036 -0.173607,-0.069 -0.249707,-0.1 -0.0761,-0.033 -0.146257,-0.076 -0.210467,-0.1284 -0.0547,-0.043 -0.09869,-0.094 -0.131988,-0.1534 -0.03092,-0.062 -0.04637,-0.1308 -0.04637,-0.2069 -10e-7,-0.093 0.01665,-0.1725 0.04994,-0.239 0.03329,-0.069 0.07848,-0.1249 0.135555,-0.1677 0.05708,-0.045 0.124853,-0.077 0.203333,-0.096 0.07848,-0.021 0.162903,-0.032 0.253274,-0.032 0.16647,0 0.306782,0.04 0.420935,0.1213 0.116528,0.078 0.184306,0.1938 0.203333,0.346 l -0.420935,0 c -0.0048,-0.062 -0.02497,-0.1082 -0.06064,-0.1391 -0.03329,-0.033 -0.08918,-0.05 -0.16766,-0.05 -0.0761,0 -0.1308,0.017 -0.164094,0.05 -0.03092,0.033 -0.04637,0.071 -0.04637,0.1141 0,0.059 0.01784,0.1058 0.05351,0.1391 0.03805,0.033 0.107016,0.071 0.2069,0.1142 0.121285,0.05 0.217601,0.09 0.288947,0.1213 0.07372,0.031 0.134364,0.063 0.181929,0.096 0.0547,0.036 0.0975,0.083 0.128421,0.1427 0.03329,0.059 0.04994,0.1332 0.04994,0.2211"
         id="path3859"
         inkscape:connector-curvature="0" />
      <path
         d="m 68.578703,3117.1384 c 0.01189,0.157 0.04994,0.2723 0.114152,0.3461 0.06659,0.074 0.156958,0.1105 0.27111,0.1105 0.135555,0 0.230681,-0.064 0.28538,-0.1926 l 0.395964,0.096 c -0.06183,0.1594 -0.152204,0.2783 -0.271111,0.3568 -0.118909,0.078 -0.261599,0.1177 -0.428069,0.1177 -0.118909,0 -0.228304,-0.021 -0.328186,-0.064 -0.0975,-0.045 -0.18193,-0.1082 -0.253274,-0.1891 -0.06897,-0.081 -0.123665,-0.1772 -0.164093,-0.2889 -0.03805,-0.1118 -0.05708,-0.2355 -0.05708,-0.371 0,-0.1475 0.01902,-0.2795 0.05708,-0.396 0.04043,-0.1165 0.09513,-0.214 0.164093,-0.2925 0.07134,-0.081 0.15458,-0.1427 0.249707,-0.1855 0.0975,-0.043 0.204521,-0.064 0.321051,-0.064 0.240194,0 0.42569,0.088 0.55649,0.2639 0.133176,0.176 0.204521,0.4269 0.214035,0.7527 l -1.127249,0 m 0.713449,-0.1819 c -0.0048,-0.1451 -0.04043,-0.2568 -0.107018,-0.3353 -0.06421,-0.079 -0.146257,-0.1177 -0.246139,-0.1177 -0.109396,0 -0.19501,0.039 -0.256842,0.1177 -0.06183,0.079 -0.09869,0.1902 -0.110584,0.3353 l 0.720583,0"
         id="path3861"
         inkscape:connector-curvature="0" />
      <path
         d="m 70.950919,3116.1218 c 0.135554,0 0.240193,0.039 0.313917,0.1177 0.07372,0.076 0.11534,0.1748 0.124854,0.2961 l -0.410233,0.2069 c -0.03092,-0.138 -0.111775,-0.2069 -0.242572,-0.2069 -0.09037,0 -0.161716,0.031 -0.214035,0.093 -0.04994,0.062 -0.07491,0.1403 -0.07491,0.2355 l 0,1.0737 -0.417367,0 0,-1.7765 0.392396,0 0,0.3888 c 0.06659,-0.1569 0.142689,-0.2675 0.228304,-0.3317 0.08561,-0.064 0.185495,-0.096 0.299648,-0.096"
         id="path3863"
         inkscape:connector-curvature="0" />
      <path
         d="m 73.383779,3118.6474 -1.783621,0 0,-0.2783 1.783621,0 0,0.2783"
         id="path3865"
         inkscape:connector-curvature="0" />
    </g>
  </g>
</svg>
