<?xml version="1.0" encoding="UTF-8" standalone="no"?>
<!-- Created with Inkscape (http://www.inkscape.org/) -->

<svg
   xmlns:dc="http://purl.org/dc/elements/1.1/"
   xmlns:cc="http://creativecommons.org/ns#"
   xmlns:rdf="http://www.w3.org/1999/02/22-rdf-syntax-ns#"
   xmlns:svg="http://www.w3.org/2000/svg"
   xmlns="http://www.w3.org/2000/svg"
   xmlns:sodipodi="http://sodipodi.sourceforge.net/DTD/sodipodi-0.dtd"
   xmlns:inkscape="http://www.inkscape.org/namespaces/inkscape"
   width="128"
   height="128"
   id="svg3802"
   version="1.1"
   inkscape:version="0.48.4 r9939"
   sodipodi:docname="threed.svg">
  <defs
     id="defs3804" />
  <sodipodi:namedview
     id="base"
     pagecolor="#ffffff"
     bordercolor="#666666"
     borderopacity="1.0"
     inkscape:pageopacity="0.0"
     inkscape:pageshadow="2"
     inkscape:zoom="4"
     inkscape:cx="48.457028"
     inkscape:cy="85.854517"
     inkscape:document-units="px"
     inkscape:current-layer="layer1"
     showgrid="false"
     showguides="true"
     inkscape:guide-bbox="true"
     inkscape:window-width="1280"
     inkscape:window-height="969"
     inkscape:window-x="0"
     inkscape:window-y="30"
     inkscape:window-maximized="1">
    <sodipodi:guide
       position="0,0"
       orientation="0,128"
       id="guide3810" />
    <sodipodi:guide
       position="128,0"
       orientation="-128,0"
       id="guide3812" />
    <sodipodi:guide
       position="128,128"
       orientation="0,-128"
       id="guide3814" />
    <sodipodi:guide
       position="0,128"
       orientation="128,0"
       id="guide3816" />
    <sodipodi:guide
       orientation="-0.70710678,0.70710678"
       position="166.92771,-38.385797"
       id="guide4370" />
  </sodipodi:namedview>
  <metadata
     id="metadata3807">
    <rdf:RDF>
      <cc:Work
         rdf:about="">
        <dc:format>image/svg+xml</dc:format>
        <dc:type
           rdf:resource="http://purl.org/dc/dcmitype/StillImage" />
        <dc:title />
      </cc:Work>
    </rdf:RDF>
  </metadata>
  <g
     inkscape:label="Calque 1"
     inkscape:groupmode="layer"
     id="layer1"
     transform="translate(0,-3029.0866)">
    <path
       sodipodi:type="arc"
       style="fill:none;stroke:#000000;stroke-width:1.32553024;stroke-miterlimit:4;stroke-opacity:1;stroke-dasharray:none"
       id="path3818"
       sodipodi:cx="64"
       sodipodi:cy="64"
       sodipodi:rx="64"
       sodipodi:ry="64"
       d="M 128,64 C 128,99.346224 99.346224,128 64,128 28.653776,128 0,99.346224 0,64 0,28.653776 28.653776,0 64,0 c 35.346224,0 64,28.653776 64,64 z"
       transform="matrix(0.9807396,0,0,0.9807396,1.2326656,3030.3193)" />
    <g
       style="font-size:19.90571022px;font-style:normal;font-weight:normal;line-height:125%;letter-spacing:0px;word-spacing:0px;fill:#000000;fill-opacity:1;stroke:none;font-family:Sans"
       id="text3788"
       transform="matrix(1.2282014,0,0,1.2282014,-18.510016,-699.93448)">
      <path
         d="m 76.381658,3061.5099 -2.946045,-1.4332 c 0.02654,-0.093 0.06635,-0.2189 0.119434,-0.3782 0.05308,-0.1725 0.212326,-0.4644 0.477737,-0.8758 0.265408,-0.4114 0.577263,-0.7764 0.935568,-1.0949 0.3583,-0.3184 0.882483,-0.6037 1.572552,-0.8559 0.690059,-0.2654 1.466381,-0.3981 2.328968,-0.3981 1.565907,0 2.853142,0.4512 3.861707,1.3536 1.021815,0.8891 1.532728,2.0304 1.53274,3.4238 -1.2e-5,1.3005 -0.484384,2.3289 -1.453117,3.0853 1.393388,0.8494 2.090087,2.1034 2.0901,3.7622 -1.3e-5,1.5659 -0.577278,2.8598 -1.731797,3.8816 -1.14127,1.0086 -2.594386,1.5129 -4.359351,1.5129 -0.942209,0 -1.798153,-0.1394 -2.567836,-0.4181 -0.769691,-0.2786 -1.373497,-0.6104 -1.81142,-0.9952 -0.424657,-0.3982 -0.782959,-0.7963 -1.074908,-1.1944 -0.278681,-0.3981 -0.471103,-0.7365 -0.577266,-1.0152 l -0.13934,-0.418 3.463594,-1.692 c -4e-6,0.066 0.0066,0.1593 0.01991,0.2787 0.02654,0.1062 0.09952,0.3052 0.218962,0.5972 0.119431,0.2919 0.265406,0.5507 0.437926,0.7763 0.172512,0.2123 0.431286,0.4114 0.776323,0.5972 0.358297,0.1725 0.769681,0.2587 1.234154,0.2587 0.703328,0 1.273957,-0.1924 1.711891,-0.5772 0.437917,-0.3849 0.656879,-0.9157 0.656888,-1.5925 -9e-6,-0.7033 -0.232242,-1.2806 -0.6967,-1.7318 -0.451203,-0.4512 -1.008563,-0.6768 -1.672079,-0.6768 l -0.716606,0.1195 0,-2.4484 0.816134,0 c 0.517542,0 0.975373,-0.1991 1.373494,-0.5972 0.398106,-0.3981 0.597163,-0.8891 0.597172,-1.473 -9e-6,-0.5176 -0.205701,-0.9489 -0.617077,-1.2939 -0.398122,-0.345 -0.869223,-0.5175 -1.413306,-0.5176 -0.38485,1e-4 -0.736517,0.073 -1.055002,0.219 -0.305227,0.1327 -0.544095,0.2986 -0.716606,0.4977 -0.15925,0.199 -0.29859,0.3981 -0.41802,0.5971 -0.106168,0.1991 -0.17252,0.365 -0.199057,0.4977 l -0.05972,0.2189"
         style="font-variant:normal;font-weight:bold;font-stretch:normal;text-align:start;line-height:125%;writing-mode:lr-tb;text-anchor:start;font-family:League Spartan;-inkscape-font-specification:League Spartan Bold"
         id="path2993"
         inkscape:connector-curvature="0" />
      <path
         d="m 86.713965,3056.7724 4.757465,0 c 2.282513,0 4.233271,0.7829 5.852279,2.3488 1.618984,1.5527 2.428482,3.5035 2.428497,5.8523 -1.5e-5,2.3622 -0.809513,4.3262 -2.428497,5.8921 -1.605738,1.5527 -3.556495,2.329 -5.852279,2.329 l -4.757465,0 0,-16.4222 m 3.742274,13.078 0.577266,0 c 1.366851,0 2.48157,-0.4578 3.344159,-1.3735 0.875841,-0.9289 1.320402,-2.0901 1.333682,-3.4835 -1e-5,-1.3934 -0.437935,-2.5545 -1.313776,-3.4835 -0.862589,-0.9289 -1.983943,-1.3934 -3.364065,-1.3934 l -0.577266,0 0,9.7339"
         style="font-variant:normal;font-weight:bold;font-stretch:normal;text-align:start;line-height:125%;writing-mode:lr-tb;text-anchor:start;font-family:League Spartan;-inkscape-font-specification:League Spartan Bold"
         id="path2995"
         inkscape:connector-curvature="0" />
    </g>
    <path
       style="fill:none;stroke:#000000;stroke-width:0.5;stroke-miterlimit:4;stroke-opacity:1;stroke-dasharray:none"
       d="m 66.276874,3054.3357 c -0.06416,-0.01 -0.125222,0.011 -0.191912,0.031 l -1.124051,0.3438 -0.05483,0 c -0.111528,0 -0.219678,0.025 -0.301574,0.094 l -37.861335,11.5938 -0.05483,0 c -0.0081,0 -0.01957,0 -0.02742,0 -0.06319,0.012 -0.112301,0.058 -0.164495,0.094 -0.141517,0.098 -0.246743,0.2629 -0.246743,0.4688 l 0,46.5312 c 0,0.2928 0.189597,0.5304 0.438654,0.5625 l 35.201994,23.1559 c 0.0054,0 0.0219,0 0.02742,0 0.122194,0.072 0.261785,0.1075 0.383822,0.062 l 39.424046,-12.0625 c 0.0222,-0.01 0.0342,-0.022 0.0548,-0.031 0.0368,-0.018 0.0781,-0.036 0.10966,-0.062 0.0801,-0.071 0.13428,-0.1723 0.1645,-0.2812 0.01,-0.031 0.0225,-0.061 0.0274,-0.094 0.009,-0.073 0.0179,-0.1427 0,-0.2187 l 0,-0.4688 c -0.009,-0.6656 0.006,-0.661 0,-1.0312 l 0,-43.2188 c 0.009,-0.073 0.0179,-0.1427 0,-0.2187 l 0,-1.4375 c 0,-0.3148 -0.22362,-0.6607 -0.49349,-0.5938 l -0.63056,0.1563 c -0.54905,0.1836 -1.02638,0.4067 -1.15147,0.4687 l -33.118388,10.0938 0,-31.3125 c -0.02633,-1.1432 0.04387,-1.1551 0,-2.1875 -0.0536,-0.2281 -0.218766,-0.4073 -0.411238,-0.4375 z m -1.86428,3.3125 0,31.3437 -1.973944,0.5938 -32.515238,-21.4063 z m -35.887392,12.6562 32.378158,21.2813 c -0.0111,0.045 -0.02742,0.075 -0.02742,0.125 l 0,9.1875 -32.350743,9.875 z m 71.281298,10.5625 0,40.6563 -33.090972,-21.8125 c -0.0079,-0.01 -0.01939,0 -0.02742,0 l 0,-8.75 z m -35.393906,10.8125 0,8.125 -1.261131,0.4063 0,-8.1563 z m 1.26113,10.5625 32.734565,21.3438 -35.256826,10.75 0,-31.3125 z m -4.797779,1.4688 0,29.8437 -30.952533,-20.4062 z"
       id="rect3763"
       inkscape:connector-curvature="0"
       sodipodi:nodetypes="cccsccccsssccccccccccccccsscccccscccccccscccccccccccccccccccccccc" />
  </g>
</svg>
