<?xml version="1.0" encoding="UTF-8" standalone="no"?>
<!-- Created with Inkscape (http://www.inkscape.org/) -->

<svg
   xmlns:dc="http://purl.org/dc/elements/1.1/"
   xmlns:cc="http://creativecommons.org/ns#"
   xmlns:rdf="http://www.w3.org/1999/02/22-rdf-syntax-ns#"
   xmlns:svg="http://www.w3.org/2000/svg"
   xmlns="http://www.w3.org/2000/svg"
   xmlns:sodipodi="http://sodipodi.sourceforge.net/DTD/sodipodi-0.dtd"
   xmlns:inkscape="http://www.inkscape.org/namespaces/inkscape"
   width="128"
   height="128"
   id="svg3802"
   version="1.1"
   inkscape:version="0.48.4 r9939"
   sodipodi:docname="websites.svg">
  <defs
     id="defs3804">
    <inkscape:perspective
       sodipodi:type="inkscape:persp3d"
       inkscape:vp_x="0 : 64 : 1"
       inkscape:vp_y="0 : 1000 : 0"
       inkscape:vp_z="128 : 64 : 1"
       inkscape:persp3d-origin="64 : 42.666667 : 1"
       id="perspective2995" />
  </defs>
  <sodipodi:namedview
     id="base"
     pagecolor="#ffffff"
     bordercolor="#666666"
     borderopacity="1.0"
     inkscape:pageopacity="0.0"
     inkscape:pageshadow="2"
     inkscape:zoom="5.6"
     inkscape:cx="31.855082"
     inkscape:cy="67.444411"
     inkscape:document-units="px"
     inkscape:current-layer="layer1"
     showgrid="false"
     showguides="true"
     inkscape:guide-bbox="true"
     inkscape:window-width="1280"
     inkscape:window-height="969"
     inkscape:window-x="0"
     inkscape:window-y="30"
     inkscape:window-maximized="1">
    <sodipodi:guide
       position="0,0"
       orientation="0,128"
       id="guide3810" />
    <sodipodi:guide
       position="128,0"
       orientation="-128,0"
       id="guide3812" />
    <sodipodi:guide
       position="128,128"
       orientation="0,-128"
       id="guide3814" />
    <sodipodi:guide
       position="0,128"
       orientation="128,0"
       id="guide3816" />
    <sodipodi:guide
       orientation="-0.70710678,0.70710678"
       position="166.92771,-38.385797"
       id="guide4370" />
  </sodipodi:namedview>
  <metadata
     id="metadata3807">
    <rdf:RDF>
      <cc:Work
         rdf:about="">
        <dc:format>image/svg+xml</dc:format>
        <dc:type
           rdf:resource="http://purl.org/dc/dcmitype/StillImage" />
        <dc:title />
      </cc:Work>
    </rdf:RDF>
  </metadata>
  <g
     inkscape:label="Calque 1"
     inkscape:groupmode="layer"
     id="layer1"
     transform="translate(0,-3029.0866)">
    <path
       sodipodi:type="arc"
       style="fill:none;stroke:#000000;stroke-width:1.32553024;stroke-miterlimit:4;stroke-opacity:1;stroke-dasharray:none"
       id="path3818"
       sodipodi:cx="64"
       sodipodi:cy="64"
       sodipodi:rx="64"
       sodipodi:ry="64"
       d="M 128,64 C 128,99.346224 99.346224,128 64,128 28.653776,128 0,99.346224 0,64 0,28.653776 28.653776,0 64,0 c 35.346224,0 64,28.653776 64,64 z"
       transform="matrix(0.9807396,0,0,0.9807396,1.2326656,3030.3193)" />
    <g
       style="font-size:21.94748878px;font-style:normal;font-weight:normal;line-height:125%;letter-spacing:0px;word-spacing:0px;fill:#000000;fill-opacity:1;stroke:none;font-family:Sans"
       id="text2989">
      <path
         d="m 70.664577,3077.7495 -2.897068,-10.1617 -2.897069,10.1617 -4.587025,0 -5.15766,-18.1067 4.587025,0 3.094596,12.4223 0.109738,0 3.292123,-12.4223 3.116543,0 3.292124,12.4223 0.109737,0 3.094596,-12.4223 4.565078,0 -5.15766,18.1067 -4.565078,0"
         style="font-variant:normal;font-weight:bold;font-stretch:normal;text-align:start;line-height:125%;writing-mode:lr-tb;text-anchor:start;font-family:League Spartan;-inkscape-font-specification:League Spartan Bold"
         id="path3002" />
      <path
         d="m 91.736224,3059.6428 0,3.6214 -6.233087,0 0,3.5994 5.969717,0 0,3.6213 -5.969717,0 0,3.6433 6.233087,0 0,3.6213 -10.359215,0 0,-18.1067 10.359215,0"
         style="font-variant:normal;font-weight:bold;font-stretch:normal;text-align:start;line-height:125%;writing-mode:lr-tb;text-anchor:start;font-family:League Spartan;-inkscape-font-specification:League Spartan Bold"
         id="path3004" />
      <path
         d="m 94.108265,3059.6428 5.618558,0 c 1.697267,10e-5 3.050687,0.3658 4.060287,1.0974 1.00957,0.717 1.51436,1.8875 1.51437,3.5116 -1e-5,1.8143 -0.75354,3.1092 -2.26059,3.8847 2.57516,0.4536 3.86275,1.9753 3.86276,4.5651 -1e-5,1.5217 -0.52675,2.7434 -1.58022,3.6652 -1.05349,0.9218 -2.50202,1.3827 -4.3456,1.3827 l -6.869565,0 0,-18.1067 m 4.126128,7.0891 0.329213,0 c 0.921788,0 1.609474,-0.161 2.063064,-0.4829 0.45357,-0.3219 0.68036,-0.8486 0.68037,-1.5802 -1e-5,-1.229 -0.91448,-1.8436 -2.743434,-1.8436 l -0.329213,0 0,3.9067 m 0,7.8352 1.294902,0 c 2.019165,0 3.028745,-0.673 3.028755,-2.0191 -10e-6,-0.8048 -0.25606,-1.3827 -0.76816,-1.7339 -0.49749,-0.3511 -1.25102,-0.5267 -2.260595,-0.5267 l -1.294902,0 0,4.2797"
         style="font-variant:normal;font-weight:bold;font-stretch:normal;text-align:start;line-height:125%;writing-mode:lr-tb;text-anchor:start;font-family:League Spartan;-inkscape-font-specification:League Spartan Bold"
         id="path3006" />
    </g>
    <path
       style="fill:none;stroke:#000000;stroke-width:0.73938763;stroke-miterlimit:4;stroke-opacity:1;stroke-dasharray:none"
       d="m 50.649692,3058.7791 -14.610523,54.5241 2.19707,0.5858 14.610523,-54.5239 z m -3.646092,24.058 -0.402796,1.6112 2.730645,0.036 0.695738,0.1831 0.805594,0.4761 0.585885,1.0252 0.439414,1.5746 0,16.1851 -1.025299,0 0,14.9767 -10.545942,0 0,2.3436 10.545942,0 4.137817,0 4.1012,0 0,-2.3436 -4.1012,0 0,-14.9767 -1.464714,0 c 0.008,-5.5231 -0.152757,-11.1672 -0.07323,-16.6246 l -0.439414,-1.6478 c 0,0 -0.02699,-0.069 -0.07323,-0.1464 -0.305464,-0.4434 -0.571047,-1.0758 -0.768975,-1.5013 -0.357485,-0.2202 -0.946153,-0.6285 -1.135154,-0.769 -0.407264,-0.042 -0.9979,-0.3048 -1.281624,-0.4028 l -0.219707,0 -0.183089,0 c -0.83057,0.081 -1.427929,0 -2.32785,0 z"
       id="rect2993"
       inkscape:connector-curvature="0"
       sodipodi:nodetypes="ccccccccccccccccccccccccccccccccc" />
    <path
       style="fill:none;stroke:#000000;stroke-width:0.70306277;stroke-miterlimit:4;stroke-opacity:1;stroke-dasharray:none"
       d="m 18.620081,3118.6885 12.913287,-2.2809 0.456968,4.7696 -12.913295,0.098 z"
       id="rect3015"
       inkscape:connector-curvature="0"
       sodipodi:nodetypes="ccccc" />
    <rect
       style="fill:none;stroke:#000000;stroke-width:0.46870849;stroke-miterlimit:4;stroke-opacity:1;stroke-dasharray:none"
       id="rect3786"
       width="2.9591687"
       height="1.8864728"
       x="-452.50171"
       y="3083.4902"
       transform="matrix(0.98840955,-0.15181093,0.15181093,0.98840955,0,0)" />
    <rect
       y="3083.637"
       x="-448.81958"
       height="1.6644537"
       width="1.6275406"
       id="rect3788"
       style="fill:none;stroke:#000000;stroke-width:0.46870849;stroke-miterlimit:4;stroke-opacity:1;stroke-dasharray:none"
       transform="matrix(0.98840955,-0.15181093,0.15181093,0.98840955,0,0)" />
    <rect
       style="fill:none;stroke:#000000;stroke-width:0.46870849;stroke-miterlimit:4;stroke-opacity:1;stroke-dasharray:none"
       id="rect3790"
       width="1.6275406"
       height="1.6644537"
       x="-446.41568"
       y="3083.6423"
       transform="matrix(0.98840955,-0.15181093,0.15181093,0.98840955,0,0)" />
    <path
       style="fill:none;stroke:#000000;stroke-width:0.58588558;stroke-linecap:butt;stroke-linejoin:miter;stroke-miterlimit:4;stroke-opacity:1;stroke-dasharray:none"
       d="m 31.933519,3119.3259 c 2.071419,0.074 0.813772,1.9235 3.587993,2.1085 2.774221,0.1849 1.590554,-0.6658 6.917058,-0.481 5.326505,0.185 3.84692,-3.5139 5.80737,-4.2167 1.960449,-0.7029 2.663252,1.8864 2.663252,1.8864"
       id="path3811"
       inkscape:connector-curvature="0"
       sodipodi:nodetypes="csssc" />
    <path
       style="fill:none;stroke:#000000;stroke-width:0.58588558;stroke-miterlimit:4;stroke-opacity:1;stroke-dasharray:none"
       d="m 63.099761,3080.6191 c -1.475442,0 -2.673103,1.161 -2.673103,2.6366 l 0,35.3204 c 0,1.4755 1.197661,2.6732 2.673103,2.6732 l 42.879509,0 c 1.47545,0 2.6731,-1.1977 2.6731,-2.6732 l 0,-35.3204 c 0,-1.4756 -1.19765,-2.6366 -2.6731,-2.6366 z m -0.256325,1.0253 43.355544,0 c 0.70649,0 1.28499,0.5286 1.39148,1.2084 l -46.101885,0 c 0.105504,-0.6742 0.652363,-1.2084 1.354861,-1.2084 z m -1.391479,37.0782 46.175113,0 0,0.074 c 0,0.7799 -0.6481,1.3915 -1.42809,1.3915 l -43.355544,0 c -0.779997,0 -1.391479,-0.6116 -1.391479,-1.3915 z"
       id="rect3813"
       inkscape:connector-curvature="0"
       sodipodi:nodetypes="sssssssssssccsccssssc" />
    <path
       sodipodi:type="arc"
       style="fill:none;stroke:#000000;stroke-width:0.5;stroke-miterlimit:4;stroke-opacity:1;stroke-dasharray:none"
       id="path3822"
       sodipodi:cx="99.10714"
       sodipodi:cy="56.660713"
       sodipodi:rx="1.3392857"
       sodipodi:ry="1.3392857"
       d="m 100.44643,56.660713 c 0,0.739667 -0.599623,1.339286 -1.33929,1.339286 -0.739667,0 -1.339286,-0.599619 -1.339286,-1.339286 0,-0.739667 0.599619,-1.339286 1.339286,-1.339286 0.739667,0 1.33929,0.599619 1.33929,1.339286 z"
       transform="matrix(1.1717712,0,0,1.1717712,-11.34433,3020.3357)" />
    <path
       transform="matrix(0.56284517,0,0,0.56284517,49.966319,3060.0801)"
       d="m 100.44643,56.660713 c 0,0.739667 -0.599623,1.339286 -1.33929,1.339286 -0.739667,0 -1.339286,-0.599619 -1.339286,-1.339286 0,-0.739667 0.599619,-1.339286 1.339286,-1.339286 0.739667,0 1.33929,0.599619 1.33929,1.339286 z"
       sodipodi:ry="1.3392857"
       sodipodi:rx="1.3392857"
       sodipodi:cy="56.660713"
       sodipodi:cx="99.10714"
       id="path3824"
       style="fill:none;stroke:#000000;stroke-width:0.5;stroke-miterlimit:4;stroke-opacity:1;stroke-dasharray:none"
       sodipodi:type="arc" />
    <path
       sodipodi:type="arc"
       style="fill:none;stroke:#000000;stroke-width:0.5;stroke-miterlimit:4;stroke-opacity:1;stroke-dasharray:none"
       id="path3826"
       sodipodi:cx="99.10714"
       sodipodi:cy="56.660713"
       sodipodi:rx="1.3392857"
       sodipodi:ry="1.3392857"
       d="m 100.44643,56.660713 c 0,0.739667 -0.599623,1.339286 -1.33929,1.339286 -0.739667,0 -1.339286,-0.599619 -1.339286,-1.339286 0,-0.739667 0.599619,-1.339286 1.339286,-1.339286 0.739667,0 1.33929,0.599619 1.33929,1.339286 z"
       transform="matrix(0.56284517,0,0,0.56284517,49.966319,3062.6956)" />
  </g>
</svg>
