<?xml version="1.0" encoding="UTF-8" standalone="no"?>
<!DOCTYPE svg PUBLIC "-//W3C//DTD SVG 1.1//EN" "http://www.w3.org/Graphics/SVG/1.1/DTD/svg11.dtd">
<svg width="100%" height="100%" viewBox="0 0 4489 945" version="1.1" xmlns="http://www.w3.org/2000/svg" xmlns:xlink="http://www.w3.org/1999/xlink" xml:space="preserve" xmlns:serif="http://www.serif.com/" style="fill-rule:evenodd;clip-rule:evenodd;stroke-linejoin:round;stroke-miterlimit:2;">
    <g transform="matrix(0.750627,0,0,0.750627,107.696,-40.4021)">
        <circle cx="2965.74" cy="420.514" r="89.767" style="fill:rgb(116,169,207);"/>
    </g>
    <g transform="matrix(0.750627,0,0,0.750627,107.696,328.021)">
        <circle cx="2965.74" cy="420.514" r="89.767" style="fill:rgb(173,221,142);"/>
    </g>
    <text x="2510.23px" y="320.056px" style="font-family:'Arial-BoldMT', 'Arial', sans-serif;font-weight:700;font-size:125.197px;">Supermarket</text>
    <g transform="matrix(1,0,0,1,-1965.24,0)">
        <text x="2510.23px" y="320.087px" style="font-family:'ArialMT', 'Arial', sans-serif;font-size:125.197px;">Building</text>
    </g>
    <g transform="matrix(1,0,0,1,-1965.24,368.423)">
        <text x="2510.23px" y="320.087px" style="font-family:'ArialMT', 'Arial', sans-serif;font-size:125.197px;">Lake &amp; Rivers</text>
    </g>
    <g transform="matrix(1,0,0,0.872585,-34.1713,-11.7992)">
        <rect x="119.67" y="185.48" width="350.508" height="286.961" style="fill:white;"/>
        <path d="M470.179,472.441L119.67,472.441L119.67,185.48L470.179,185.48L470.179,472.441ZM458.368,199.015L131.481,199.015L131.481,458.905L458.368,458.905L458.368,199.015Z" style="fill:rgb(140,140,142);"/>
    </g>
    <g transform="matrix(1,0,0,0.872585,-34.1713,356.623)">
        <rect x="119.67" y="185.48" width="350.508" height="286.961" style="fill:rgb(180,210,255);"/>
        <path d="M470.179,472.441L119.67,472.441L119.67,185.48L470.179,185.48L470.179,472.441ZM458.368,199.015L131.481,199.015L131.481,458.905L458.368,458.905L458.368,199.015Z" style="fill:rgb(170,200,245);"/>
    </g>
    <g transform="matrix(1,0,0,1,0,368.423)">
        <text x="2510.23px" y="320.056px" style="font-family:'Arial-BoldMT', 'Arial', sans-serif;font-weight:700;font-size:125.197px;">Chemist / drugstore</text>
    </g>
</svg>
