<?xml version="1.0" encoding="UTF-8" standalone="no"?>
<!-- Created with Inkscape (http://www.inkscape.org/) -->

<svg
   xmlns:dc="http://purl.org/dc/elements/1.1/"
   xmlns:cc="http://creativecommons.org/ns#"
   xmlns:rdf="http://www.w3.org/1999/02/22-rdf-syntax-ns#"
   xmlns:svg="http://www.w3.org/2000/svg"
   xmlns="http://www.w3.org/2000/svg"
   xmlns:sodipodi="http://sodipodi.sourceforge.net/DTD/sodipodi-0.dtd"
   xmlns:inkscape="http://www.inkscape.org/namespaces/inkscape"
   version="1.1"
   width="64"
   height="64"
   id="svg2985"
   inkscape:version="0.48.5 r10040"
   sodipodi:docname="duck.svg">
  <sodipodi:namedview
     pagecolor="#ffffff"
     bordercolor="#666666"
     borderopacity="1"
     objecttolerance="10"
     gridtolerance="10"
     guidetolerance="10"
     inkscape:pageopacity="0"
     inkscape:pageshadow="2"
     inkscape:window-width="1236"
     inkscape:window-height="999"
     id="namedview11"
     showgrid="false"
     inkscape:zoom="10.429825"
     inkscape:cx="31.900435"
     inkscape:cy="42.997276"
     inkscape:window-x="44"
     inkscape:window-y="0"
     inkscape:window-maximized="1"
     inkscape:current-layer="svg2985" />
  <defs
     id="defs2987" />
  <metadata
     id="metadata2990">
    <rdf:RDF>
      <cc:Work
         rdf:about="">
        <dc:format>image/svg+xml</dc:format>
        <dc:type
           rdf:resource="http://purl.org/dc/dcmitype/StillImage" />
        <dc:title />
      </cc:Work>
    </rdf:RDF>
  </metadata>
  <g
     id="layer1"
     style="display:inline"
     transform="matrix(1.2078931,0,0,1.2078931,-7.5288,-4.9565275)">
    <path
       d="M 31.167848,6.229038 C 20.621129,6.6119535 13.704436,12.740195 11.155321,16.512887 8.4362618,20.537093 4.8795747,32.383595 10.970263,40.649529 c 6.090689,8.265935 14.212449,10.221927 16.496459,10.548214 2.284006,0.326288 5.260887,0.422987 5.260887,0.422987 2.202437,-0.0408 14.656715,-2.540566 19.510231,-10.072356 4.853519,-7.531789 5.364983,-16.108467 2.564354,-21.043555 -2.80063,-4.93509 -9.706619,-13.8271347 -21.466541,-14.275781 -0.734996,-0.028035 -1.464691,-0.025521 -2.167805,0 z M 30.37475,8.634772 c 3.139997,-0.096008 6.444113,0.3952811 10.072355,1.454015 8.293125,2.41996 12.358017,11.490983 12.874638,13.720609 0.516621,2.229627 1.873744,8.398895 -2.775846,15.359682 -4.64959,6.960787 -12.590718,9.659923 -14.249344,9.279257 -1.658624,-0.380668 -1.262123,-5.51937 -0.555169,-8.591904 0.706956,-3.072536 2.085526,-4.139997 3.145959,-4.520665 1.060434,-0.380669 5.033612,-0.494755 6.556285,-0.766662 1.522671,-0.271906 3.772947,-1.63389 4.996521,-3.727564 1.223579,-2.093674 1.287809,-3.816725 0.608043,-4.414917 -0.679763,-0.598192 -2.711858,0.59447 -6.926394,1.0839 -4.214541,0.489432 -6.040419,-0.318039 -6.529849,-1.242521 -0.48943,-0.924478 1.049173,-2.094622 1.348268,-3.780439 0.299096,-1.685812 -3.831852,-5.118901 -4.837904,-5.47238 -1.00605,-0.353477 -4.178738,-0.579247 -8.882707,1.242521 -4.703968,1.821771 -7.117435,7.149394 -5.948242,10.548217 1.169196,3.39882 6.696105,10.056606 8.327538,12.293031 1.631436,2.236423 2.112673,4.911204 2.194242,5.604564 0.08156,0.69336 -0.278741,2.159511 -0.71379,2.458606 0,0 -0.621663,0.185057 -1.083903,0.185057 -0.462238,0 -4.005599,-1.364903 -5.419506,-1.71838 C 21.162034,47.275322 12.862245,41.642375 10.415094,33.485202 7.9679431,25.328031 11.971426,15.933347 18.76907,12.045097 22.592744,9.8579534 26.337607,8.7582044 30.37475,8.634772 z m 5.445946,16.417146 -3.093087,1.216084 c 0,0 0.949481,-0.652622 1.506887,-0.951719 0.557408,-0.299096 1.5862,-0.264365 1.5862,-0.264365 z"
       id="path3060"
       style="fill:#f87338;fill-opacity:1;stroke:none"
       inkscape:connector-curvature="0" />
  </g>
</svg>
