<?xml version="1.0" encoding="UTF-8" standalone="no"?>
<!-- Created with Inkscape (http://www.inkscape.org/) -->

<svg
   xmlns:dc="http://purl.org/dc/elements/1.1/"
   xmlns:cc="http://creativecommons.org/ns#"
   xmlns:rdf="http://www.w3.org/1999/02/22-rdf-syntax-ns#"
   xmlns:svg="http://www.w3.org/2000/svg"
   xmlns="http://www.w3.org/2000/svg"
   xmlns:sodipodi="http://sodipodi.sourceforge.net/DTD/sodipodi-0.dtd"
   xmlns:inkscape="http://www.inkscape.org/namespaces/inkscape"
   width="64px"
   height="64px"
   id="svg2985"
   version="1.1"
   inkscape:version="0.48.4 r9939"
   sodipodi:docname="duck.svg">
  <defs
     id="defs2987" />
  <sodipodi:namedview
     id="base"
     pagecolor="#ffffff"
     bordercolor="#666666"
     borderopacity="1.0"
     inkscape:pageopacity="0.0"
     inkscape:pageshadow="2"
     inkscape:zoom="11"
     inkscape:cx="27.983638"
     inkscape:cy="29.153585"
     inkscape:current-layer="g3836"
     showgrid="true"
     inkscape:document-units="px"
     inkscape:grid-bbox="true"
     inkscape:window-width="1238"
     inkscape:window-height="977"
     inkscape:window-x="42"
     inkscape:window-y="22"
     inkscape:window-maximized="1" />
  <metadata
     id="metadata2990">
    <rdf:RDF>
      <cc:Work
         rdf:about="">
        <dc:format>image/svg+xml</dc:format>
        <dc:type
           rdf:resource="http://purl.org/dc/dcmitype/StillImage" />
        <dc:title />
      </cc:Work>
    </rdf:RDF>
  </metadata>
  <g
     inkscape:groupmode="layer"
     id="layer2"
     inkscape:label="bg2"
     style="display:none" />
  <g
     inkscape:groupmode="layer"
     inkscape:label="bg"
     id="g3836"
     style="display:inline">
    <path
       inkscape:connector-curvature="0"
       id="path3838"
       d="M 30.579016,6.2496052 C 18.398173,6.6918497 10.409799,13.769609 7.465719,18.126847 4.3253673,22.774567 0.21760168,36.456583 7.2519898,46.003253 14.286377,55.549923 23.666534,57.80898 26.30443,58.185822 c 2.637895,0.376842 6.076018,0.488525 6.076018,0.488525 2.543685,-0.04711 16.927646,-2.934205 22.533174,-11.632981 5.605529,-8.698774 6.196239,-18.604334 2.961677,-24.304073 C 54.640737,17.037554 46.664723,6.7677632 33.082701,6.2496052 c -0.848876,-0.032385 -1.69163,-0.029483 -2.503685,0 z M 29.663033,9.028086 c 3.626515,-0.1108783 7.442572,0.4565268 11.632979,1.679301 9.578074,2.794913 14.272786,13.271413 14.869452,15.8465 0.596668,2.575089 2.164063,9.700232 -3.205939,17.739532 -5.370001,8.039301 -14.541541,11.156646 -16.457155,10.716997 -1.915615,-0.439649 -1.45768,-6.374549 -0.641188,-9.923145 0.816491,-3.548599 2.40866,-4.781452 3.633398,-5.221102 1.224737,-0.439649 5.813527,-0.571415 7.572124,-0.88545 1.758596,-0.314036 4.357532,-1.887049 5.77069,-4.305118 1.413159,-2.418071 1.487342,-4.408094 0.702254,-5.098971 -0.785087,-0.690878 -3.132038,0.68658 -7.999582,1.251843 -4.867546,0.565264 -6.976328,-0.367319 -7.541591,-1.435039 -0.565263,-1.06772 1.211732,-2.419166 1.55717,-4.366185 0.34544,-1.947017 -4.425563,-5.912034 -5.587494,-6.32028 -1.16193,-0.408245 -4.826197,-0.668995 -10.259005,1.435039 -5.43281,2.104037 -8.220222,8.257131 -6.86987,12.18257 1.35035,3.925441 7.733606,11.614793 9.617818,14.197732 1.88421,2.582939 2.440011,5.672154 2.534218,6.472944 0.09421,0.80079 -0.321929,2.494108 -0.824384,2.839547 0,0 -0.717984,0.213728 -1.251843,0.213728 -0.53386,0 -4.626232,-1.576382 -6.259216,-1.984629 C 19.022887,53.655655 9.4371185,47.149931 6.6108019,37.728876 3.7844853,28.307821 8.4082731,17.457514 16.259152,12.966811 20.675273,10.44079 25.000369,9.1706442 29.663033,9.028086 z m 6.289747,18.960841 -3.572332,1.404507 c 0,0 1.096595,-0.753741 1.740367,-1.09918 0.643772,-0.345438 1.831965,-0.305327 1.831965,-0.305327 z"
       style="opacity:0.69999999999999996;fill:#581a00;fill-opacity:1;stroke:none" />
  </g>
  <g
     id="layer1"
     inkscape:label="Layer 1"
     inkscape:groupmode="layer"
     style="display:inline">
    <path
       style="fill:#ff7a00;fill-opacity:1;stroke:none"
       d="M 30.964711,5.2853687 C 18.783869,5.7276131 10.795494,12.805372 7.8514136,17.16261 4.7110619,21.810331 0.60329627,35.492346 7.6376844,45.039016 14.672073,54.585686 24.05223,56.844743 26.690126,57.221586 29.328021,57.598427 32.766144,57.71011 32.766144,57.71011 35.309829,57.663 49.69379,54.775905 55.299318,46.07713 60.904846,37.378355 61.495557,27.472795 58.260995,21.773056 55.026432,16.073318 47.050419,5.8035267 33.468397,5.2853687 c -0.848876,-0.032385 -1.69163,-0.029483 -2.503686,0 z m -0.915983,2.7784807 c 3.626516,-0.110878 7.442573,0.456527 11.63298,1.679302 9.578074,2.7949116 14.272786,13.2714116 14.869452,15.8464986 0.596668,2.575089 2.164063,9.700232 -3.205939,17.739532 -5.370002,8.039301 -14.541541,11.156646 -16.457155,10.716997 -1.915615,-0.439649 -1.45768,-6.374549 -0.641189,-9.923145 0.816492,-3.548599 2.408661,-4.781452 3.633399,-5.221102 1.224737,-0.439649 5.813526,-0.571414 7.572123,-0.88545 1.758597,-0.314036 4.357532,-1.887048 5.770691,-4.305118 1.413159,-2.418071 1.487342,-4.408094 0.702253,-5.098971 -0.785087,-0.690878 -3.132037,0.68658 -7.999582,1.251843 -4.867545,0.565264 -6.976327,-0.367319 -7.541591,-1.435039 -0.565262,-1.067719 1.211733,-2.419166 1.557171,-4.366185 0.345439,-1.947017 -4.425564,-5.912033 -5.587494,-6.32028 -1.16193,-0.408245 -4.826198,-0.668995 -10.259006,1.43504 -5.432809,2.104036 -8.220221,8.25713 -6.86987,12.182569 1.350351,3.925441 7.733607,11.614793 9.617818,14.197732 1.884211,2.582939 2.440012,5.672154 2.534218,6.472944 0.09421,0.80079 -0.321928,2.494108 -0.824383,2.839547 0,0 -0.717984,0.213729 -1.251844,0.213729 -0.53386,0 -4.626231,-1.576383 -6.259215,-1.98463 C 19.408583,52.691418 9.8228132,46.185694 6.9964965,36.764639 4.1701799,27.343584 8.7939677,16.493277 16.644848,12.002574 21.060968,9.4765534 25.386065,8.2064074 30.048728,8.0638494 z m 6.289748,18.9608406 -3.572332,1.404507 c 0,0 1.096595,-0.753741 1.740366,-1.09918 0.643773,-0.345438 1.831966,-0.305327 1.831966,-0.305327 z"
       id="path3060"
       inkscape:connector-curvature="0" />
  </g>
</svg>
