<?xml version="1.0" encoding="UTF-8" standalone="no"?>
<!-- Created with Inkscape (http://www.inkscape.org/) -->

<svg
   xmlns:dc="http://purl.org/dc/elements/1.1/"
   xmlns:cc="http://creativecommons.org/ns#"
   xmlns:rdf="http://www.w3.org/1999/02/22-rdf-syntax-ns#"
   xmlns:svg="http://www.w3.org/2000/svg"
   xmlns="http://www.w3.org/2000/svg"
   xmlns:sodipodi="http://sodipodi.sourceforge.net/DTD/sodipodi-0.dtd"
   xmlns:inkscape="http://www.inkscape.org/namespaces/inkscape"
   width="64px"
   height="64px"
   id="svg2985"
   version="1.1"
   inkscape:version="0.48.4 r9939"
   sodipodi:docname="github.svg">
  <defs
     id="defs2987" />
  <sodipodi:namedview
     id="base"
     pagecolor="#ffffff"
     bordercolor="#666666"
     borderopacity="1.0"
     inkscape:pageopacity="0.0"
     inkscape:pageshadow="2"
     inkscape:zoom="11"
     inkscape:cx="16.900888"
     inkscape:cy="26.251603"
     inkscape:current-layer="layer1"
     showgrid="true"
     inkscape:document-units="px"
     inkscape:grid-bbox="true"
     inkscape:window-width="1238"
     inkscape:window-height="977"
     inkscape:window-x="42"
     inkscape:window-y="22"
     inkscape:window-maximized="1" />
  <metadata
     id="metadata2990">
    <rdf:RDF>
      <cc:Work
         rdf:about="">
        <dc:format>image/svg+xml</dc:format>
        <dc:type
           rdf:resource="http://purl.org/dc/dcmitype/StillImage" />
        <dc:title />
      </cc:Work>
    </rdf:RDF>
  </metadata>
  <g
     id="layer1"
     inkscape:label="Layer 1"
     inkscape:groupmode="layer">
    <path
       style="fill:#8080ad;fill-opacity:1;stroke:none"
       d="m 34.590725,45.946414 c 5.905334,-1.290425 11.59195,-1.815342 12.66366,-8.245594 1.071708,-6.430252 0.852991,-9.579763 -0.196846,-11.43885 -1.049837,-1.859086 -2.012188,-2.690207 -2.012188,-2.690207 0,0 1.115452,-3.390099 0.52492,-4.92111 -0.590534,-1.531013 -0.852994,-2.668337 -0.852994,-2.668337 0,0 -1.990315,-0.131225 -4.024375,0.590534 -2.034058,0.721763 -3.95876,2.362133 -3.95876,2.362133 0,0 -4.593037,-1.181066 -7.851907,-1.115452 -3.258867,0.06562 -7.064527,1.049838 -7.064527,1.049838 0,0 -2.887052,-1.990318 -4.308707,-2.384007 -1.421654,-0.393688 -3.761915,-0.524917 -3.761915,-0.524917 0,0 -0.896737,2.187161 -0.896737,4.024376 0,1.837214 0.612405,3.543199 0.612405,3.543199 0,0 -3.040152,3.5432 -2.996409,5.795976 0.04374,2.252773 -0.328074,9.404788 2.865181,12.248098 3.193255,2.843309 4.724265,3.324483 5.927205,3.652557 1.202938,0.328074 4.461807,0.831121 4.461807,0.831121 0,0 -0.940479,1.006094 -1.20294,1.727856 -0.262458,0.721765 -0.546789,2.143418 -0.546789,2.143418 0,0 -3.936888,1.22481 -5.18357,0.634278 -1.246682,-0.590534 -4.199348,-5.008599 -6.386508,-5.730362 -2.1871613,-0.721763 -2.9964093,-0.371817 -2.9964093,0.06562 0,0.437432 2.4714897,2.296519 3.0182803,3.25887 0.546791,0.96235 1.7716,3.521328 2.821436,4.461807 1.049838,0.940479 4.746139,2.099673 6.583353,1.880957 1.837216,-0.218716 2.012188,-0.39369 2.012188,-0.39369 0,0 0.415561,5.358544 0,5.992821 -0.41556,0.634277 -0.96235,1.574756 -4.286834,-0.02187 C 14.228262,58.478844 8.0385967,54.366983 5.1952887,50.233249 2.3519805,46.099517 -2.044212,36.716597 0.25230676,26.743146 2.5488254,16.769694 10.925649,8.9615323 16.568523,6.6868856 22.211397,4.4122377 30.960038,2.2688213 39.271248,5.5058187 47.582458,8.7428165 58.430774,18.016375 58.562003,30.045759 58.693228,42.075141 54.843831,50.036404 48.238605,55.635535 41.633381,61.234666 37.652749,61.540869 36.996601,60.491031 36.340453,59.441195 37.084086,51.523674 36.559169,49.598973 36.03425,47.674271 34.590725,45.946414 34.590725,45.946414 z"
       id="path3004"
       inkscape:connector-curvature="0" />
    <path
       inkscape:connector-curvature="0"
       id="path2983"
       d="m 35.681635,44.037324 c 5.905334,-1.290425 11.59195,-1.815342 12.66366,-8.245594 1.071708,-6.430252 0.852991,-9.579763 -0.196846,-11.43885 -1.049837,-1.859086 -2.012188,-2.690207 -2.012188,-2.690207 0,0 1.115452,-3.390099 0.52492,-4.92111 -0.590534,-1.531013 -0.852994,-2.668337 -0.852994,-2.668337 0,0 -1.990315,-0.131225 -4.024375,0.590534 -2.034058,0.721763 -3.95876,2.362133 -3.95876,2.362133 0,0 -4.593037,-1.181066 -7.851907,-1.115452 -3.258867,0.06562 -7.064527,1.049838 -7.064527,1.049838 0,0 -2.887052,-1.990318 -4.308707,-2.384007 -1.421654,-0.393688 -3.761915,-0.524917 -3.761915,-0.524917 0,0 -0.896737,2.187161 -0.896737,4.024376 0,1.837214 0.612405,3.543199 0.612405,3.543199 0,0 -3.040152,3.5432 -2.996409,5.795976 0.04374,2.252773 -0.328074,9.404788 2.865181,12.248098 3.193255,2.843309 4.724265,3.324483 5.927205,3.652557 1.202938,0.328074 4.461807,0.831121 4.461807,0.831121 0,0 -0.940479,1.006094 -1.20294,1.727856 -0.262458,0.721765 -0.546789,2.143418 -0.546789,2.143418 0,0 -3.936888,1.22481 -5.18357,0.634278 -1.246682,-0.590534 -4.199348,-5.008599 -6.386508,-5.730362 -2.1871623,-0.721763 -2.9964103,-0.371817 -2.9964103,0.06562 0,0.437432 2.4714903,2.296519 3.0182813,3.25887 0.546791,0.96235 1.7716,3.521328 2.821436,4.461807 1.049838,0.940479 4.746139,2.099673 6.583353,1.880957 1.837216,-0.218716 2.012188,-0.39369 2.012188,-0.39369 0,0 0.415561,5.358544 0,5.992821 -0.41556,0.634277 -0.96235,1.574756 -4.286834,-0.02187 C 15.319172,56.569754 9.1295057,52.457893 6.2861977,48.324159 3.4428895,44.190427 -0.95330287,34.807507 1.3432159,24.834056 3.6397344,14.860604 12.016559,7.0524413 17.659433,4.7777946 23.302307,2.5031467 32.050948,0.35973039 40.362158,3.5967277 48.673368,6.8337255 59.521684,16.107285 59.652913,28.136669 59.784138,40.166051 55.934741,48.127314 49.329515,53.726445 42.724291,59.325576 38.743659,59.631779 38.087511,58.581941 37.431363,57.532105 38.174996,49.614584 37.650079,47.689883 37.12516,45.765181 35.681635,44.037324 35.681635,44.037324 z"
       style="fill:#f2f2f2;fill-opacity:1;stroke:none" />
  </g>
</svg>
