<?xml version="1.0" encoding="UTF-8" standalone="no"?>
<!-- Created with Inkscape (http://www.inkscape.org/) -->

<svg
   xmlns:dc="http://purl.org/dc/elements/1.1/"
   xmlns:cc="http://creativecommons.org/ns#"
   xmlns:rdf="http://www.w3.org/1999/02/22-rdf-syntax-ns#"
   xmlns:svg="http://www.w3.org/2000/svg"
   xmlns="http://www.w3.org/2000/svg"
   xmlns:sodipodi="http://sodipodi.sourceforge.net/DTD/sodipodi-0.dtd"
   xmlns:inkscape="http://www.inkscape.org/namespaces/inkscape"
   width="64px"
   height="64px"
   id="svg2985"
   version="1.1"
   inkscape:version="0.48.4 r9939"
   sodipodi:docname="New document 2">
  <defs
     id="defs2987" />
  <sodipodi:namedview
     id="base"
     pagecolor="#ffffff"
     bordercolor="#666666"
     borderopacity="1.0"
     inkscape:pageopacity="0.0"
     inkscape:pageshadow="2"
     inkscape:zoom="11"
     inkscape:cx="26.28817"
     inkscape:cy="34.008715"
     inkscape:current-layer="layer2"
     showgrid="true"
     inkscape:document-units="px"
     inkscape:grid-bbox="true"
     inkscape:window-width="1238"
     inkscape:window-height="977"
     inkscape:window-x="42"
     inkscape:window-y="22"
     inkscape:window-maximized="1" />
  <metadata
     id="metadata2990">
    <rdf:RDF>
      <cc:Work
         rdf:about="">
        <dc:format>image/svg+xml</dc:format>
        <dc:type
           rdf:resource="http://purl.org/dc/dcmitype/StillImage" />
        <dc:title></dc:title>
      </cc:Work>
    </rdf:RDF>
  </metadata>
  <g
     id="layer1"
     inkscape:label="Layer 1"
     inkscape:groupmode="layer"
     style="display:inline">
    <rect
       style="opacity:0.99999998999999995;fill:#ff2a2a;fill-opacity:1;stroke:none"
       id="rect3780"
       width="58.090908"
       height="59.636364"
       x="2.7272742"
       y="2.2272727"
       ry="4.9523692" />
  </g>
  <g
     inkscape:groupmode="layer"
     id="layer2"
     inkscape:label="Layer"
     style="display:inline">
    <path
       style="fill:#ffffff;stroke:none;display:inline"
       d="m 18.093686,12.422053 c -1.55862,0.004 -2.83681,0.02529 -3.600313,0.07081 -3.054014,0.182077 -7.5846341,0.490698 -9.7987933,1.947322 -2.21416,1.456624 -1.7815986,2.195164 -1.7815986,2.195164 l -0.037117,20.889465 c 0,0 3.0553444,1.823939 5.3076794,2.443005 2.2523335,0.619066 5.5240285,0.848731 5.7530785,0.885147 0.229052,0.03641 -1.199376,0.995534 -0.779449,3.398964 0.419927,2.403431 2.116706,4.311438 2.078531,4.602763 -0.03817,0.291325 -6.1784345,0.265073 -8.2398935,0.920553 -2.0614589,0.655481 -4.0828298,1.345423 -4.0828298,1.345423 l -0.1196875,4.009224 c -0.00953,0.123385 0.1312606,0.02772 0.7877872,-0.681072 0.7635029,-0.801144 4.9632483,-2.894194 9.3533926,-3.221935 4.390144,-0.32774 12.405493,2.766903 13.436222,6.408463 1.03073,3.641562 0.890799,4.107081 0.890799,4.107081 l 5.381913,0.07081 c 0,0 0.758142,-5.690378 -1.150616,-8.603627 -1.908756,-2.913245 -10.044846,-7.002411 -10.541124,-9.842828 -0.496276,-2.840418 5.100728,-6.071426 8.202777,-12.427461 1.531811,-3.138649 1.78958,-8.409946 -0.779449,-11.613127 -0.861355,-1.073974 -3.702997,-3.049703 -3.637431,-3.186528 0.149725,-0.312449 3.303989,0.186317 4.565346,-0.283247 3.554263,-1.323144 4.602465,-3.257338 4.602463,-3.25734 -3.865235,-0.05462 -11.135825,-0.188979 -15.811687,-0.177029 z m 28.282877,2.690846 -4.231296,0.389464 0.07423,7.612263 -8.314127,0.07081 0.33405,4.744387 8.128543,-0.17703 0.11135,7.683074 4.52823,0 0.185583,-7.930915 7.868727,-0.247841 0.07423,-4.319516 -8.16566,-0.07081 z m -35.706204,0.778929 c 0.485891,-0.01287 1.218102,-0.0161 2.189882,0.03541 1.943562,0.103 7.214123,3.357121 9.427625,8.816062 2.213501,5.458942 -1.002149,11.616345 -5.753078,13.418826 -4.75093,1.80248 -9.5592221,-3.743366 -11.3948087,-10.232297 -1.8355869,-6.48893 2.3046056,-10.509107 4.7880456,-12.002591 0,0 0.2564431,-0.02253 0.7423341,-0.03541 z"
       id="path3004"
       inkscape:connector-curvature="0"
       sodipodi:nodetypes="cssccscscscccssccsssssscccccccccccccccccssscc" />
  </g>
</svg>
