<?xml version="1.0" encoding="UTF-8" standalone="no"?>
<!-- Created with Inkscape (http://www.inkscape.org/) -->

<svg
   xmlns:dc="http://purl.org/dc/elements/1.1/"
   xmlns:cc="http://creativecommons.org/ns#"
   xmlns:rdf="http://www.w3.org/1999/02/22-rdf-syntax-ns#"
   xmlns:svg="http://www.w3.org/2000/svg"
   xmlns="http://www.w3.org/2000/svg"
   xmlns:sodipodi="http://sodipodi.sourceforge.net/DTD/sodipodi-0.dtd"
   xmlns:inkscape="http://www.inkscape.org/namespaces/inkscape"
   width="64px"
   height="64px"
   id="svg2985"
   version="1.1"
   inkscape:version="0.48.4 r9939"
   sodipodi:docname="screen.svg">
  <defs
     id="defs2987" />
  <sodipodi:namedview
     id="base"
     pagecolor="#ffffff"
     bordercolor="#666666"
     borderopacity="1.0"
     inkscape:pageopacity="0.0"
     inkscape:pageshadow="2"
     inkscape:zoom="11"
     inkscape:cx="28.75735"
     inkscape:cy="32.112885"
     inkscape:current-layer="layer2"
     showgrid="true"
     inkscape:document-units="px"
     inkscape:grid-bbox="true"
     inkscape:window-width="1238"
     inkscape:window-height="977"
     inkscape:window-x="42"
     inkscape:window-y="22"
     inkscape:window-maximized="1" />
  <metadata
     id="metadata2990">
    <rdf:RDF>
      <cc:Work
         rdf:about="">
        <dc:format>image/svg+xml</dc:format>
        <dc:type
           rdf:resource="http://purl.org/dc/dcmitype/StillImage" />
        <dc:title />
      </cc:Work>
    </rdf:RDF>
  </metadata>
  <g
     inkscape:groupmode="layer"
     id="layer2"
     inkscape:label="2">
    <path
       style="fill:#ffffff;stroke:none"
       d="m 5.5737354,15.897728 0.196572,3.594463 -0.112327,14.869283 -0.168491,1.755109 L 31.75996,36.369318 31.633593,27.579733 31.956533,15.93985 5.5737354,15.89773 z m 21.8335546,4.745814 0.561635,0.589717 1.193474,2.176335 1.951681,1.881477 0,3.032828 0.196572,4.577324 -1.081147,-0.336981 -1.432169,-0.308899 -3.945485,-1.825313 4.198221,0.673962 -4.801978,-1.235597 -2.766052,-1.29176 2.962624,-2.695848 2.850297,-4.52116 0.112327,-0.716085 z m -11.246738,4.001649 2.962624,3.454054 5.363613,3.159196 5.700594,2.344826 0.842452,2.372907 -24.8944646,-0.351022 0.04212,-6.220106 5.1108766,-0.954779 4.872183,-3.805076 z"
       id="path3756"
       inkscape:connector-curvature="0" />
    <path
       inkscape:connector-curvature="0"
       id="path2984"
       d="m 16.511259,27.079546 0.262914,4.807582 -0.150237,19.887615 -0.225356,2.347452 35.136664,0.338032 -0.169015,-11.75604 0.431931,-15.568303 -35.286901,-0.05634 z m 29.202304,6.34751 0.751185,0.788744 1.596267,2.910841 2.610367,2.516469 0,4.056397 0.262914,6.122155 -1.44603,-0.450711 -1.915521,-0.413151 -5.277073,-2.44135 5.615106,0.901422 -6.422629,-1.652607 -3.699585,-1.727725 3.9625,-3.605687 3.812262,-6.047036 0.150237,-0.957761 z m -15.042473,5.352192 3.962499,4.619785 7.173814,4.225414 7.624525,3.136196 1.126777,3.173755 -33.296261,-0.46949 0.05634,-8.319371 6.83578,-1.277013 6.516528,-5.089276 z"
       style="fill:#ffffff;stroke:none" />
    <path
       style="fill:#ffffff;stroke:none"
       d="m 32.222164,10.033874 0.224727,4.097306 -0.12842,16.949408 -0.192623,2.000638 30.033189,0.288091 -0.144467,-10.019196 0.369195,-13.268232 -30.161604,-0.04802 z m 24.960773,5.409724 0.642078,0.672215 1.364416,2.480793 2.23122,2.144683 0,3.457103 0.224727,5.217665 -1.235999,-0.384124 -1.6373,-0.35211 -4.510596,-2.080664 4.799532,0.768245 -5.489765,-1.40845 -3.162234,-1.472471 3.386961,-3.072979 3.258546,-5.153643 0.12842,-0.816263 z m -12.857607,4.561457 3.38696,3.937254 6.131844,3.60115 6.517089,2.672852 0.963118,2.704864 -28.460098,-0.400128 0.04816,-7.090262 5.842907,-1.088346 5.570025,-4.337384 z"
       id="path2986"
       inkscape:connector-curvature="0" />
  </g>
  <g
     id="layer1"
     inkscape:label="Layer 1"
     inkscape:groupmode="layer" />
</svg>
