<?xml version="1.0" encoding="UTF-8" standalone="no"?>
<!-- Created with Inkscape (http://www.inkscape.org/) -->

<svg
   xmlns:dc="http://purl.org/dc/elements/1.1/"
   xmlns:cc="http://creativecommons.org/ns#"
   xmlns:rdf="http://www.w3.org/1999/02/22-rdf-syntax-ns#"
   xmlns:svg="http://www.w3.org/2000/svg"
   xmlns="http://www.w3.org/2000/svg"
   version="1.1"
   width="64"
   height="64"
   id="svg2985">
  <defs
     id="defs2987" />
  <metadata
     id="metadata2990">
    <rdf:RDF>
      <cc:Work
         rdf:about="">
        <dc:format>image/svg+xml</dc:format>
        <dc:type
           rdf:resource="http://purl.org/dc/dcmitype/StillImage" />
        <dc:title></dc:title>
      </cc:Work>
    </rdf:RDF>
  </metadata>
  <g
     id="layer1">
    <path
       d="m 32.504623,0.54868491 c -17.409731,0 -31.53124977,14.09026909 -31.53124977,31.50000109 0,17.409731 14.12151877,31.53125 31.53124977,31.53125 17.409736,0 31.531246,-14.121519 31.531246,-31.53125 0,-17.409732 -14.12151,-31.50000109 -31.531246,-31.50000109 z m 0.125,3.49999999 c 15.656476,0 28.343746,12.6872771 28.343746,28.3437511 0,15.656474 -12.68727,28.34375 -28.343746,28.34375 -15.656474,0 -28.3437498,-12.687276 -28.3437498,-28.34375 0,-15.656474 12.6872758,-28.3437511 28.3437498,-28.3437511 z m 2.53125,10.6875011 0,5 5.999996,0 -5.999996,6 3.999996,4 6,-6 0,6 5,0 0,-15 -14.999996,0 z m -20,20 0,15 15,0 0,-5 -6,0 6,-6 -4,-4 -6,6 0,-6 -5,0 z"
       id="path2993-2"
       style="fill:#ffffff;fill-opacity:1;stroke:none" />
  </g>
</svg>
